<?xml version="1.0" encoding="UTF-8"?>
<svg id="Layer_1" xmlns="http://www.w3.org/2000/svg" version="1.1" viewBox="0 0 457 379">
  <!-- Generator: Adobe Illustrator 29.5.1, SVG Export Plug-In . SVG Version: 2.1.0 Build 141)  -->
  <defs>
    <style>
      .st0 {
        fill: #f6ef8a;
      }

      .st1 {
        fill: #e8fafa;
      }

      .st2 {
        fill: #feefe1;
      }

      .st3 {
        fill: #d5f6ee;
      }

      .st4 {
        fill: #71cbc0;
      }

      .st5 {
        fill: #c2e6c6;
      }

      .st6 {
        fill: none;
      }

      .st7 {
        fill: #cde8a5;
      }

      .st8 {
        fill: #f7a1a2;
      }

      .st9 {
        fill: #d6f3f4;
      }

      .st10 {
        fill: #9ce0d1;
      }

      .st11 {
        fill: #87d8cf;
      }

      .st12 {
        fill: #75cbac;
      }

      .st13 {
        fill: #fdbbb6;
      }

      .st14 {
        fill: #e6a7a0;
      }

      .st15 {
        fill: #99cedf;
      }

      .st16 {
        fill: #f48ca9;
      }

      .st17 {
        fill: #a6adab;
      }

      .st18 {
        fill: #fee1ba;
      }

      .st19 {
        fill: #d4b0ae;
      }

      .st20 {
        fill: #fe92a3;
      }

      .st21 {
        fill: #cef0d8;
      }

      .st22 {
        fill: #e3eaf1;
      }

      .st23 {
        fill: #fefefe;
      }

      .st24 {
        fill: #bce7b7;
      }

      .st25 {
        fill: #b1e6ea;
      }

      .st26 {
        fill: #e0e8d7;
      }

      .st27 {
        fill: #fee487;
      }

      .st28 {
        fill: #deeab5;
      }

      .st29 {
        fill: #fef5ed;
      }

      .st30 {
        fill: #e1f8ef;
      }
    </style>
  </defs>
  <path class="st6" d="M251.62,230.45c-.01-.05-.02-.11-.05-.16.02.05.03.1.05.16Z"/>
  <path class="st6" d="M111.34,272.61c.08-.07.17-.13.26-.18-.09.06-.17.12-.26.18Z"/>
  <path class="st6" d="M123.91,284.75c.02.09.02.18,0,.27.02-.09.02-.18,0-.27Z"/>
  <path class="st6" d="M111.86,272.28c.1-.05.2-.1.3-.14-.1.04-.2.09-.3.14Z"/>
  <path class="st6" d="M123.09,284.2c.09-.02.19-.01.27,0-.09-.02-.18-.02-.27,0Z"/>
  <path class="st6" d="M251.53,231.09s.06-.1.08-.15c-.02.05-.05.1-.08.15Z"/>
  <path class="st6" d="M123.81,284.5c.05.07.09.16.1.25-.02-.09-.05-.17-.1-.25Z"/>
  <path class="st6" d="M110.9,273.04c.07-.08.13-.15.21-.22-.07.07-.14.14-.21.22Z"/>
  <path class="st6" d="M48.39,139.42c.07.06.14.13.2.2-.07-.07-.13-.13-.2-.2Z"/>
  <path class="st6" d="M243.33,171.47s.02-.05.03-.07c-.01.02-.02.04-.03.07Z"/>
  <path class="st6" d="M243.31,171.61s0-.05,0-.07c0,.02,0,.05,0,.07Z"/>
  <path class="st6" d="M110.17,274.69c.01-.1.03-.2.05-.3-.02.1-.04.2-.05.3Z"/>
  <path class="st6" d="M110.16,275.3c0-.1,0-.2,0-.3,0,.1,0,.2,0,.3Z"/>
  <path class="st6" d="M243.33,171.72s.02.05.04.07c-.02-.03-.03-.07-.05-.11,0,.01,0,.02,0,.04Z"/>
  <path class="st6" d="M110.31,274.09c.03-.1.07-.19.11-.29-.04.09-.08.19-.11.29Z"/>
  <path class="st6" d="M58.41,292.31c-.35.25-.75.43-1.19.53.44-.1.85-.28,1.19-.53Z"/>
  <path class="st6" d="M251.65,230.61c0,.05-.01.11-.02.16,0-.05.02-.11.02-.16Z"/>
  <path class="st6" d="M48.1,301.96c.02-.05.05-.11.08-.16-.03.05-.06.1-.08.16Z"/>
  <path class="st6" d="M290.73,252.95s-.04-.05-.04-.09c0,.03.02.06.04.09Z"/>
  <path class="st6" d="M290.95,253.1c-.06,0-.12-.03-.17-.06,0,0,0,.01.01.02.05.03.1.05.16.05Z"/>
  <path class="st6" d="M267.16,148.37s-.06.03-.09.05c.03-.02.06-.03.09-.05Z"/>
  <path class="st6" d="M160.77,272.37c-.07-.02-.14-.05-.19-.09.06.04.12.08.19.09Z"/>
  <path class="st6" d="M43.45,287.8c.35-.25.75-.43,1.19-.53-.44.1-.85.28-1.19.53Z"/>
  <path class="st6" d="M160.53,272.23s-.07-.07-.09-.11c.03.04.06.07.09.11Z"/>
  <path class="st6" d="M160.63,271.29s.04-.02.06-.03c-.02,0-.04.02-.06.03Z"/>
  <path class="st6" d="M59.79,289.58c.01.66-.17,1.29-.51,1.82.34-.53.52-1.16.51-1.82Z"/>
  <path class="st6" d="M42.07,290.54c-.01-.66.17-1.29.51-1.82-.34.53-.52,1.16-.51,1.82Z"/>
  <path class="st6" d="M267.35,148.02s-.02.07-.03.11c0-.03.03-.05.03-.08,0,0,0-.02,0-.03Z"/>
  <path class="st6" d="M160.47,271.43s.03-.04.05-.06c-.02.02-.03.04-.05.06Z"/>
  <path class="st6" d="M48.02,302.29c0-.06,0-.11.01-.17-.01.06-.01.11-.01.17Z"/>
  <path class="st6" d="M160.37,271.61s.02-.05.03-.07c-.01.02-.02.04-.03.07Z"/>
  <path class="st6" d="M48.03,302.54c.02.08.05.15.09.22-.05-.09-.07-.19-.09-.29,0,.02,0,.04,0,.06Z"/>
  <path class="st6" d="M160.33,271.82s0,.02,0,.03c0-.04,0-.08,0-.12,0,.03-.02.06-.01.09Z"/>
  <path class="st6" d="M48.29,301.68s.09-.09.14-.12c-.05.04-.1.08-.14.12Z"/>
  <path class="st6" d="M243.4,171.34s.03-.04.06-.06c-.02.02-.04.04-.06.06Z"/>
  <path class="st6" d="M160.4,272.06s-.03-.08-.04-.13c.01.04.02.09.04.13Z"/>
  <path class="st6" d="M110.56,273.54c.05-.09.1-.17.16-.26-.06.08-.11.17-.16.26Z"/>
  <path class="st6" d="M92.51,77.89c.02.09.03.17.04.26,0-.09-.03-.17-.04-.26Z"/>
  <path class="st6" d="M37.83,198.87s0,0,.01,0c-.06,0-.13,0-.19-.01.06,0,.12.02.18.01Z"/>
  <path class="st6" d="M92.56,78.42c0,.09,0,.17,0,.26,0-.09,0-.17,0-.26Z"/>
  <path class="st6" d="M49.4,141.91c0,.1-.03.2-.05.29.02-.1.04-.2.05-.29Z"/>
  <path class="st6" d="M92.36,77.39c.03.08.07.16.09.25-.02-.08-.06-.16-.09-.25Z"/>
  <path class="st6" d="M36.77,198.68c-.09-.03-.17-.08-.25-.12.08.04.16.09.25.12Z"/>
  <path class="st6" d="M92.51,78.94c-.02.08-.03.17-.06.25.02-.08.04-.17.06-.25Z"/>
  <path class="st6" d="M92.12,76.93c.05.07.09.14.13.22-.04-.07-.09-.15-.13-.22Z"/>
  <path class="st6" d="M37.29,198.83c-.08-.01-.16-.04-.25-.07.08.02.16.05.25.07Z"/>
  <path class="st6" d="M92.11,79.9c-.05.08-.11.16-.17.24.06-.08.12-.16.17-.24Z"/>
  <path class="st6" d="M48.78,139.82c.06.07.11.15.16.23-.05-.08-.1-.16-.16-.23Z"/>
  <path class="st6" d="M49.08,140.28c.04.08.08.17.11.25-.03-.09-.07-.17-.11-.25Z"/>
  <path class="st6" d="M47.47,138.89c-.05-.02-.1-.03-.16-.05.12.03.23.09.35.14-.06-.03-.12-.06-.19-.09Z"/>
  <path class="st6" d="M47.93,139.1c.08.05.16.1.24.15-.08-.05-.15-.11-.24-.15Z"/>
  <path class="st6" d="M49.4,141.34c0,.09,0,.19,0,.29,0-.1,0-.19,0-.29Z"/>
  <path class="st6" d="M92.36,79.43c-.03.08-.07.17-.11.25.04-.08.08-.16.11-.25Z"/>
  <path class="st6" d="M49.29,140.8c.03.09.04.18.06.27-.02-.09-.03-.18-.06-.27Z"/>
  <path class="st6" d="M91.9,76.62c-.08-.09-.17-.18-.26-.26.12.1.22.22.31.33-.02-.02-.03-.05-.05-.08Z"/>
  <path class="st6" d="M35.06,196.71c-.04-.19-.07-.39-.07-.58,0,.2.03.4.07.58Z"/>
  <path class="st6" d="M48.45,214.82s-.06.07-.1.1c0,0,.02-.01.03-.02.03-.03.05-.05.07-.08Z"/>
  <path class="st6" d="M192.99,179.15c.05-.06.11-.12.17-.18-.06.06-.11.12-.17.18Z"/>
  <path class="st6" d="M193.34,178.82c.06-.05.13-.1.19-.14-.07.04-.13.09-.19.14Z"/>
  <path class="st6" d="M48.19,215.01s.05-.02.08-.03c-.03.01-.05.03-.08.03Z"/>
  <path class="st6" d="M48.11,215.02s-.06,0-.09,0c.03,0,.06,0,.09,0Z"/>
  <path class="st6" d="M192.4,180.32c-.02.11-.04.23-.04.34,0-.14.04-.28.07-.42,0,.03-.02.05-.02.08Z"/>
  <path class="st6" d="M192.51,179.98c.03-.07.05-.15.08-.22-.03.07-.06.15-.08.22Z"/>
  <path class="st6" d="M192.71,179.54c.04-.07.08-.14.13-.21-.05.07-.09.14-.13.21Z"/>
  <path class="st6" d="M194.19,178.39c.08-.02.16-.05.24-.06-.08.01-.16.04-.24.06Z"/>
  <path class="st6" d="M47.85,214.97s.06.02.09.03c-.03,0-.06-.02-.09-.03Z"/>
  <path class="st6" d="M35.51,197.71c-.06-.08-.1-.16-.15-.25.05.08.09.17.15.25Z"/>
  <path class="st6" d="M35.24,197.24c-.05-.11-.08-.23-.12-.34.04.12.07.23.12.34Z"/>
  <path class="st6" d="M35.86,198.11c-.06-.06-.12-.13-.17-.19.06.06.11.13.17.19Z"/>
  <path class="st6" d="M194.67,178.3c.09,0,.18-.01.27-.01-.09,0-.18,0-.27.01Z"/>
  <path class="st6" d="M193.75,178.56c.07-.04.14-.07.22-.1-.07.03-.14.07-.22.1Z"/>
  <path class="st6" d="M36.29,198.44c-.08-.05-.14-.11-.21-.16.07.05.14.11.21.16Z"/>
  <path class="st6" d="M110.22,275.79c.02.1.05.2.09.3-.05-.15-.08-.31-.11-.46,0,.05,0,.11.02.16Z"/>
  <path class="st6" d="M251.35,230.01c.05.04.08.1.12.15-.03-.04-.05-.09-.09-.12,0,0-.02-.02-.03-.02Z"/>
  <path class="st6" d="M379.17,205.07c-.05-.1-.11-.19-.15-.29.04.1.1.19.15.29Z"/>
  <path class="st6" d="M392.5,170.63c.07-.06.16-.1.23-.15-.08.05-.16.09-.23.15Z"/>
  <path class="st6" d="M330.14,34.21c.06.03.12.04.19.04-.07,0-.13-.02-.19-.04Z"/>
  <path class="st6" d="M328.98,25.41c.03-.1.03-.19.03-.29,0,.1,0,.2-.03.29Z"/>
  <path class="st6" d="M379.43,205.49c.09.12.19.23.29.34-.14-.14-.25-.29-.36-.44.02.03.04.07.07.11Z"/>
  <path class="st6" d="M393.71,170.03c.11-.03.23-.04.35-.06-.12.02-.24.03-.35.06Z"/>
  <path class="st6" d="M392.01,171.08c.06-.07.14-.13.21-.2-.07.07-.15.12-.21.2Z"/>
  <path class="st6" d="M329.87,33.94s.03.05.05.08c-.02-.03-.04-.05-.05-.08Z"/>
  <path class="st6" d="M393.07,170.27c.1-.05.2-.08.31-.12-.1.04-.21.07-.31.12Z"/>
  <path class="st6" d="M330.08,34.18s-.07-.04-.1-.07c0,0,0,.01.01.02.03.02.06.04.08.05Z"/>
  <path class="st6" d="M379.44,201.3c.07-.1.15-.19.23-.28-.09.09-.16.19-.23.28Z"/>
  <path class="st6" d="M391.62,171.62c.05-.08.12-.16.17-.24-.06.08-.12.15-.17.24Z"/>
  <path class="st6" d="M391.14,173.59s0,0,0,0c0-.13,0-.25.02-.38,0,.12-.02.25-.02.38Z"/>
  <path class="st6" d="M328.97,24.83c.02.06.05.12.06.19,0-.07-.04-.13-.06-.19Z"/>
  <path class="st6" d="M391.17,172.89c.02-.13.06-.24.09-.37-.03.12-.07.24-.09.37Z"/>
  <path class="st6" d="M391.33,172.23c.04-.11.09-.2.14-.3-.05.1-.1.2-.14.3Z"/>
  <path class="st6" d="M356.52,122.65c-.37.37-.77.7-1.21,1,.43-.29.84-.63,1.21-1Z"/>
  <path class="st6" d="M306.89,188.09s0-.05,0-.07c0,.02,0,.05,0,.07Z"/>
  <path class="st6" d="M379.09,201.87c.05-.1.1-.21.16-.31-.06.1-.11.2-.16.31Z"/>
  <path class="st6" d="M306.92,187.8s0,.03,0,.04c0-.03.02-.05.03-.08,0,.01-.02.02-.02.03Z"/>
  <path class="st6" d="M433.55,208.95c-.92,2.48-2.08,4.87-3.46,7.12,1.38-2.25,2.54-4.63,3.46-7.12Z"/>
  <path class="st6" d="M329.86,33.56s0,.05-.01.07c0-.02,0-.05.01-.07Z"/>
  <path class="st6" d="M357.93,120.77c-.25.46-.55.9-.88,1.3.33-.4.63-.84.88-1.3Z"/>
  <path class="st6" d="M358.91,116.88h0c0,1.13-.23,2.2-.64,3.18.41-.98.64-2.05.64-3.18Z"/>
  <path class="st6" d="M378.76,203.81c-.01-.11-.03-.22-.03-.34,0,.11.02.22.03.34Z"/>
  <path class="st6" d="M307.38,187.49c.08,0,.16,0,.24.04-.08-.04-.16-.05-.24-.04Z"/>
  <path class="st6" d="M378.9,204.46c-.03-.11-.07-.21-.09-.32.02.11.06.21.09.32Z"/>
  <path class="st6" d="M378.74,203.15c0-.11.02-.22.03-.33-.02.11-.03.22-.03.33Z"/>
  <path class="st6" d="M378.86,202.49c.03-.11.06-.21.1-.32-.04.1-.07.21-.1.32Z"/>
  <path class="st6" d="M307,187.68s.05-.05.07-.08c-.03.02-.05.05-.07.08Z"/>
  <path class="st6" d="M307.14,187.56c.05-.03.11-.05.17-.06-.06.01-.12.03-.17.06Z"/>
  <path class="st6" d="M303.85,51.51s0,.05,0,.08c0-.03,0-.05,0-.08Z"/>
  <path class="st6" d="M128.27,333.78c-.08-.09-.16-.17-.23-.26.07.09.15.18.23.26Z"/>
  <path class="st6" d="M128.67,334.17c.1.08.21.15.32.22-.16-.1-.3-.22-.45-.34.04.04.08.08.13.12Z"/>
  <path class="st6" d="M303.69,51.25s.04.03.06.05c-.02-.02-.03-.04-.06-.05Z"/>
  <path class="st6" d="M127.83,333.22c-.06-.1-.12-.2-.18-.31.05.11.11.21.18.31Z"/>
  <path class="st6" d="M303.52,51.18s.06.02.09.04c-.02,0-.03-.02-.06-.03-.01,0-.03,0-.04,0Z"/>
  <path class="st6" d="M127.32,331.92c-.02-.11-.04-.23-.05-.35,0,.12.03.23.05.35Z"/>
  <path class="st6" d="M305.86,59.03s-.09-.05-.12-.09c0,0,0,.01.01.02.03.03.07.05.11.07Z"/>
  <path class="st6" d="M127.51,332.59c-.04-.11-.08-.22-.11-.34.03.11.07.23.11.34Z"/>
  <path class="st6" d="M305.57,58.61s-.02-.09-.02-.14c0,.05.01.1.02.14Z"/>
  <path class="st6" d="M59.36,287.35l.35,1.56-.35-1.56c-.2-.89-.74-1.61-1.45-2.06.71.45,1.25,1.17,1.45,2.06Z"/>
  <path class="st6" d="M43.45,287.8c-.35.25-.64.56-.87.92.23-.36.52-.67.87-.92Z"/>
  <path class="st6" d="M266.88,148.47s.07,0,.1-.01c-.03,0-.07,0-.1.01Z"/>
  <path class="st6" d="M267.22,148.3s.05-.05.06-.08c-.02.03-.04.05-.06.08Z"/>
  <path class="st6" d="M42.5,292.76l-.35-1.56.35,1.56c.2.89.74,1.61,1.45,2.06-.71-.45-1.25-1.17-1.45-2.06Z"/>
  <path class="st6" d="M289.68,134.27c-.33.05-.66.08-1,.08.34,0,.67-.02,1-.08Z"/>
  <path class="st6" d="M283.22,127.8s0,0,0,0c-.62,2.9,1.31,5.77,4.32,6.42.38.08.75.12,1.12.13-.37,0-.74-.05-1.12-.13-3.01-.64-4.94-3.52-4.32-6.42.62-2.9,3.56-4.73,6.57-4.08s4.94,3.52,4.32,6.42c-.46,2.13-2.17,3.68-4.24,4.1,2.07-.41,3.79-1.96,4.24-4.1h0c.62-2.9-1.31-5.77-4.32-6.42h0c-3.01-.64-5.95,1.18-6.57,4.08Z"/>
  <path class="st6" d="M58.41,292.31c.35-.25.64-.56.87-.92-.23.36-.52.67-.87.92Z"/>
  <path class="st6" d="M305.6,58.72s.04.07.06.1c-.02-.03-.05-.06-.06-.1Z"/>
  <path class="st6" d="M305.6,58.22s-.01.06-.02.09c0-.03,0-.06.02-.09Z"/>
  <path class="st6" d="M329.85,33.85s-.02-.07-.02-.11c0,.04.01.07.02.11Z"/>
  <path class="st6" d="M127.34,330.52c.02-.12.05-.24.09-.35-.04.12-.07.23-.09.35Z"/>
  <path class="st6" d="M303.83,51.43s-.02-.05-.03-.07c.01.02.02.05.03.07Z"/>
  <path class="st6" d="M127.27,331.22c0-.12,0-.23.02-.35-.01.12-.02.23-.02.35Z"/>
  <path class="st6" d="M305.94,59.08c.08.04.16.06.25.06-.09,0-.17-.03-.25-.06Z"/>
  <path class="st6" d="M328.84,24.55s.05.05.07.08c-.02-.03-.05-.05-.07-.08Z"/>
  <path class="st6" d="M328.3,24.14c.13.04.25.11.35.19,0,0,0,0,0,0-.1-.08-.22-.14-.34-.18Z"/>
  <path class="st6" d="M127.56,329.84c.05-.12.11-.23.17-.34-.06.11-.12.23-.17.34Z"/>
  <path class="st15" d="M328.97,24.83c.02.06.05.12.06.19,0,.04,0,.07,0,.11,0,.1,0,.2-.03.29,0,0,0,0,0,.01-.04.12-.1.24-.18.34-.11.14-3.13,3.25-9.05,9.32-1.28,1.31-1.76,2.54-1.43,3.67.28.98,1.18,1.67,2.23,1.73,5.99.35,11.38.43,16.19.25,1.28-.05,2.29-1.04,2.29-2.25,0-4.12-5.59-4.12-8.7-4.23-.07,0-.13-.02-.19-.04-.02,0-.04-.03-.06-.04-.03-.02-.06-.03-.08-.05,0,0,0-.01-.01-.02-.03-.03-.05-.06-.07-.09-.02-.03-.04-.05-.05-.08-.01-.03-.01-.06-.02-.09,0-.04-.02-.07-.02-.11,0,0,0-.01,0-.02,0-.03.01-.07.02-.1,0-.02,0-.05.01-.07.02-.06.06-.12.1-.17,2.45-2.76,5.41-5.64,8.89-8.65.4-.34,1.04-1.23,1.93-2.67.22-.35.29-.76.19-1.16-.45-1.77-1.44-2.82-2.98-3.13-1.97-.39-7.31-.46-16-.2-1.37.05-2.95,2.02-2.23,3.45,1.47,2.9,6.41,2.46,8.54,3.11.12.04.24.1.34.18,0,0,0,0,0,0,.08.06.13.14.19.23.02.03.05.05.07.08.03.06.04.12.06.19Z"/>
  <path class="st15" d="M329.98,34.11s-.05-.06-.07-.09c.02.03.04.06.07.09Z"/>
  <path class="st15" d="M328.98,25.41c-.04.12-.1.25-.18.35.08-.1.14-.22.18-.34,0,0,0,0,0-.01Z"/>
  <path class="st15" d="M330.08,34.18s.04.03.06.04c-.02,0-.04-.03-.06-.04Z"/>
  <path class="st15" d="M328.65,24.33c.08.06.13.15.19.23-.06-.08-.11-.16-.19-.23Z"/>
  <path class="st15" d="M329.85,33.85s0,.06.02.09c-.01-.03-.01-.06-.02-.09Z"/>
  <path class="st15" d="M329.02,25.01s0,.07,0,.11c0-.04.01-.07,0-.11Z"/>
  <path class="st15" d="M329.83,33.74s0-.08.02-.12c0,.03-.02.06-.02.1,0,0,0,.01,0,.02Z"/>
  <path class="st15" d="M329.96,33.39s-.08.11-.1.17c.02-.06.05-.12.1-.17Z"/>
  <path class="st15" d="M328.97,24.83c-.02-.06-.03-.13-.06-.19.03.06.04.12.06.19Z"/>
  <path class="st27" d="M269.85,97.97c19.78,13.43,48.66,10,64.2-8.57,1.57-1.87,2.48-3.24,2.74-4.09.1-.33.11-.67.02-1-.55-2.03-1.87-2.73-3.97-2.1-14.29,4.28-26.99,2.71-38.1-4.71-7.86-5.25-13.59-12.56-16.04-21.65-2.42-8.98-1.56-19.01,2.67-27.67,1.51-3.09,2.36-4.96,2.53-5.59.41-1.51-.61-3.14-2.17-3.17-6.65-.13-15.4,6.08-20.11,10.77-10.61,10.55-14.65,23.36-12.12,38.43,2.09,12.43,10.18,22.45,20.35,29.35Z"/>
  <path class="st0" d="M155.64,47.94c.25,0,.5-.05.75-.14,12.49-4.47,25.01-7.28,37.56-8.41,12.55-1.13,25.36-.62,38.45,1.54.26.04.51.05.76.01,2.57-.39,3.58-1.79,3.03-4.21-.27-1.18-1.22-2.08-2.41-2.29-13.71-2.37-27.19-2.95-40.44-1.76-13.25,1.19-26.4,4.18-39.47,8.97-1.14.42-1.91,1.48-1.96,2.69-.11,2.48,1.14,3.68,3.73,3.6Z"/>
  <path class="st27" d="M131.75,54.45c0-.51.2-1,.53-1.35.99-1.05,2.28-1.36,3.49-2.8,6.81-8.12-5.8-19.12-12.58-9.94-.71.97-1.45,2.1-2.2,3.39-.22.37-.58.63-1,.72l-12.4,2.55,23.87,21.58.29-14.15Z"/>
  <path class="st20" d="M90.7,59.5c2.93,2.68,9.1,8.24,18.53,16.68,5.41,4.84,13.38,14.79,21.23,9.34,6.21-4.3,6.01-11.82,1-16.92l-23.87-21.58c-2.05-1.83-3.83-3.29-5.36-4.38-7.97-5.69-18.16,2.27-15.18,11.29.71,2.12,1.92,3.98,3.65,5.57ZM99.53,48.93c.37.33,4.88,4.41,13.55,12.26,8.67,7.85,13.18,11.94,13.54,12.27,2.88,2.63-.66,6.5-4.03,5.12-.23-.1-.45-.22-.66-.37-4.57-3.42-8.09-6.76-13.61-11.76-5.53-5-9.19-8.18-13.05-12.38-.17-.19-.31-.4-.43-.62-1.71-3.22,1.79-7.12,4.69-4.52Z"/>
  <path class="st15" d="M303.86,51.59s0,.04,0,.06c0,.01,0,.03,0,.04-.95,3.53-8,6.82-8.01,10.53,0,1.07.88,1.94,1.98,1.97,3.07.07,7.06.17,11.95.28,1.11.03,2.07-.71,2.22-1.72.44-2.91-3.52-3.49-5.8-3.6-.09,0-.17-.03-.25-.06-.03-.01-.05-.04-.08-.05-.04-.02-.08-.04-.11-.07,0,0,0-.01-.01-.02-.03-.04-.06-.08-.08-.12-.02-.03-.05-.06-.06-.1-.01-.04-.02-.08-.02-.11-.01-.05-.02-.09-.02-.14,0,0,0-.01,0-.02,0-.04.02-.08.03-.13,0-.03,0-.06.02-.09.03-.08.08-.15.14-.21,3.04-3.17,5.35-5.68,6.93-7.55.79-.94.91-2.24.3-3.23-.46-.75-1.22-1.18-2.28-1.3-3.49-.4-7.47-.49-11.93-.28-.23.01-.46.07-.67.18-1.23.6-1.76,1.47-1.57,2.6.17,1.08,1.03,1.91,2.12,2.07,3.2.45,4.83.67,4.89.68.01,0,.03,0,.04,0,.02,0,.04.02.06.03.03.01.05.02.07.04.02.02.04.03.06.05.02.02.04.04.05.06.01.02.02.05.03.07,0,.02.02.05.03.07,0,.03,0,.05,0,.08Z"/>
  <path class="st15" d="M305.86,59.03s.05.04.08.05c-.03-.01-.05-.04-.08-.05Z"/>
  <path class="st15" d="M303.75,51.3s.04.04.05.06c-.01-.02-.03-.04-.05-.06Z"/>
  <path class="st15" d="M305.55,58.46c0-.05.01-.1.03-.15-.01.04-.03.08-.03.13,0,0,0,.01,0,.02Z"/>
  <path class="st15" d="M305.57,58.61s.01.08.02.11c-.01-.04-.02-.08-.02-.11Z"/>
  <path class="st15" d="M305.74,58.94s-.06-.08-.08-.12c.03.04.05.09.08.12Z"/>
  <path class="st15" d="M303.86,51.59s0,.07,0,.1c0-.01,0-.03,0-.04,0-.02,0-.04,0-.06Z"/>
  <path class="st15" d="M303.69,51.25s-.05-.03-.07-.04c.03.01.05.02.07.04Z"/>
  <path class="st15" d="M303.85,51.51s-.02-.05-.03-.07c0,.02.02.05.03.07Z"/>
  <path class="st15" d="M305.73,58.01c-.06.06-.1.13-.14.21.03-.08.08-.15.14-.21Z"/>
  <circle class="st27" cx="352.69" cy="53.76" r="7.14"/>
  <path class="st18" d="M95.27,54.07c3.86,4.2,7.52,7.38,13.05,12.38,5.52,5,9.04,8.34,13.61,11.76.21.15.43.27.66.37,3.37,1.38,6.91-2.49,4.03-5.12-.36-.33-4.87-4.42-13.54-12.27-8.67-7.85-13.18-11.93-13.55-12.26-2.9-2.6-6.4,1.3-4.69,4.52.12.22.26.43.43.62Z"/>
  <path class="st7" d="M52.94,126.44l5.09-7.3c-3.45-2.75-5.71-5.45-6.76-8.09-2.66-6.66,1.13-11.77,6.27-15.37.64-.45,1.5-.39,2.09.13,2.85,2.55,7.74,8.17,10.84,4.82.86-.94.96-2.34.22-3.34-1.73-2.35-3.41-4.72-5.02-7.11-1.37-2.22-1.1-3.88.83-4.98.83-.47,1.86-.35,2.56.3,3.96,3.69,6.21,5.77,6.75,6.25,3.16,2.8,7.82-2.19,5.95-4.87-.08-.11-.16-.21-.25-.32l-3.98-4.68c-.12-.14-.21-.3-.26-.47-.97-2.79.86-6.49,4.13-4.53.81.49,2.6,1.8,5.35,3.95,1.4,1.1,3.4,1.02,4.71-.21l.17-.15c.12-.1.22-.22.31-.33.06-.08.12-.16.17-.24.05-.07.09-.14.13-.22.04-.08.08-.16.11-.25.03-.08.07-.16.09-.25.02-.08.04-.17.06-.25.02-.09.03-.17.04-.26,0-.09,0-.17,0-.26,0-.09,0-.17,0-.26,0-.09-.03-.17-.04-.26-.02-.09-.03-.17-.06-.25-.02-.08-.06-.16-.09-.25-.03-.08-.07-.17-.11-.25-.04-.07-.09-.15-.13-.22-.05-.08-.11-.16-.17-.24-.09-.12-.19-.23-.31-.33l-7.38-6.49c-.69-.61-.99-1.57-.77-2.47.3-1.17.46-2.18.47-3.03.05-3.51-3.58-5.44-6.24-2.79-9.26,9.19-19.79,20.07-31.59,32.65-3.85,4.11-5.62,8.98-5.31,14.6.45,8.14,5.84,12.26,12.12,17.61Z"/>
  <path class="st7" d="M91.95,76.69c.06.08.12.16.17.24-.05-.08-.11-.16-.17-.24Z"/>
  <path class="st7" d="M92.55,78.15c0,.09,0,.17,0,.26,0-.09,0-.17,0-.26Z"/>
  <path class="st7" d="M92.45,77.64c.02.08.04.17.06.25-.02-.09-.03-.17-.06-.25Z"/>
  <path class="st7" d="M92.25,77.15c.04.08.08.17.11.25-.03-.08-.07-.17-.11-.25Z"/>
  <path class="st7" d="M92.25,79.68c-.04.07-.09.15-.13.22.05-.07.09-.14.13-.22Z"/>
  <path class="st7" d="M91.89,80.21s.03-.05.05-.07c-.1.12-.19.23-.31.33.09-.08.18-.17.26-.26Z"/>
  <path class="st7" d="M92.55,78.67c0,.09-.03.17-.04.26.02-.09.03-.17.04-.26Z"/>
  <path class="st7" d="M92.45,79.19c-.02.08-.06.16-.09.25.03-.08.07-.16.09-.25Z"/>
  <circle class="st27" cx="216.45" cy="71.39" r="6.53" transform="translate(-10.61 51.64) rotate(-13.28)"/>
  <path class="st13" d="M358.63,90.6c7.09,6.43,13.48,13.74,19.16,21.93,5.69,8.19,10.31,16.73,13.86,25.62,2.17,5.43,8.6,2.25,6.13-3.56-3.92-9.26-8.69-17.93-14.3-26.01-5.61-8.08-12.07-15.58-19.37-22.49-4.59-4.34-9.81.58-5.48,4.51Z"/>
  <path class="st14" d="M136.78,116.66c12.83-12.44,27.9-19.53,45.21-21.28,7.28-.73,15.23-.22,23.85,1.55,3.95-.97,6.36-3.14,7.23-6.49-18.52-5.47-36.77-4.81-54.74,1.97-3.16,1.19-6.2,2.65-9.13,4.36-2.97,5.42-6.32,10.55-10.06,15.4-.57.75-1.36,2.24-2.36,4.49Z"/>
  <path class="st30" d="M70.47,100.63c-3.1,3.35-7.99-2.27-10.84-4.82-.59-.52-1.45-.58-2.09-.13-5.14,3.6-8.93,8.71-6.27,15.37,1.05,2.64,3.31,5.34,6.76,8.09,2.85,2.33,5.59,4.82,8.22,7.46,2.54,2.55,6.12,3.73,10.75,3.54,4.55-.19,8.43-2.29,11.64-6.31,3.7-4.63,7.1-8.82,10.21-12.59,5.85-7.1,13.54-14.75,22.31-17.15l-.62-1.3c-.12-.26-.33-.48-.59-.62-11.89-6.34-21.77.06-32.12,3.48-8.54,2.82-13.67-2.88-19.84-6.42-.28-.16-.62-.15-.89.03l-1.43.92c1.61,2.39,3.29,4.76,5.02,7.11.74,1,.64,2.4-.22,3.34Z"/>
  <path class="st19" d="M205.84,96.93c11.79,2.81,22.39,7.82,31.78,15.02,3.59-2.11,2.78-5.67,1.38-8.95-8-5.55-16.64-9.74-25.93-12.56-.87,3.35-3.28,5.52-7.23,6.49Z"/>
  <path class="st24" d="M98.85,111.24c-3.11,3.77-6.51,7.96-10.21,12.59-3.21,4.02-7.09,6.12-11.64,6.31-4.63.19-8.21-.99-10.75-3.54-2.63-2.64-5.37-5.13-8.22-7.46l-5.09,7.3c5.65,5.53,9.86,9.06,12.64,10.6,8.51,4.72,19.23,3.01,25.87-4.02.7-.75,3.46-4.06,8.27-9.94,5.65-6.9,12.17-13.79,19.56-20.68,1.99-1.86,4.63-6.23,1.88-8.31-8.77,2.4-16.46,10.05-22.31,17.15Z"/>
  <path class="st23" d="M152.61,108.48c9.61-5.22,20.69-8.07,33.22-8.56,14.26-.55,27.01,2.22,38.24,8.33,14.93,8.18,26.85,21.37,32.08,37.58,2.34,7.24,2.9,9.31,5.68,15.37.86,1.89,1.57,4.29,2.12,7.2,1.32,7.06-.93,14.05-9.35,12.89-4.35-.6-8.51-5.51-11.23-9.49-.02-.02-.03-.05-.04-.07,0-.01,0-.02,0-.04,0-.03-.01-.05-.01-.08,0-.02,0-.05,0-.07,0-.02,0-.05.02-.07,0-.02.02-.05.03-.07.01-.02.03-.04.04-.06.02-.02.03-.04.06-.06,0,0,.02-.02.03-.03.02-.02.05-.03.07-.04,4.39-1.81,7.05-4.9,7.99-9.29-3.88,7.97-10.21,10.76-18.98,8.37-.85-.23-1.9-.91-3.17-2.04-2-1.77-2.2-3.55-.59-5.32.86-.96,2.28-1.1,3.24-.34,4.79,3.8,12.04,1.3,13.73-4.32.03-.08.28-.96.76-2.64.08-.27.22-.52.42-.72.93-.93,1.97-1.15,3.12-.68,1.81.74,2.52,2.44,2.13,5.11.63-1.01,1.01-2.08,1.13-3.22.02-.2-.04-.4-.16-.57l-2.28-2.98c-.23-.3-.61-.43-.98-.33-13.49,3.66-24.91,7.77-34.27,12.32-6.51,3.17-14.09,7.26-22.75,12.28-.28.17-.52.38-.71.64-3.45,4.77-7.77,8.64-12.94,11.6,6.32,1.94,12.71-1.47,13.12-8.43,0-.11.02-.23.04-.34,0-.03.02-.05.02-.08.02-.09.05-.17.08-.26.03-.07.05-.15.08-.22.03-.08.08-.15.12-.22.04-.07.08-.14.13-.21.05-.07.1-.12.15-.18.05-.06.11-.12.17-.18.06-.06.12-.1.19-.15.06-.05.13-.1.19-.14.07-.04.14-.08.22-.12.07-.04.14-.07.22-.1.07-.03.15-.05.23-.07.08-.02.16-.05.24-.06.08-.01.15-.02.23-.03.09,0,.18-.01.27-.01.03,0,.05,0,.08,0,.11,0,.23.02.34.04l.34.07c1.68.33,2.92,1.75,3.03,3.46.13,1.91-.18,3.7-.92,5.36-1.86,4.18-5.2,6.86-10.01,8.03-7.05,1.72-12.42.27-16.11-4.34l.84,2.48c.11.32.33.59.62.76,3.55,2.11,7.01,4.38,10.36,6.81,10.31,7.44,10.86,17.44,9.16,28.95,27.04,1.89,60.05-5,78.03-27.35,6.05-7.22,10.24-15.94,10.18-25.37-.06-10.16-6.19-18.22-16.32-20.35-.61-.13-1.1-.59-1.25-1.19l-2.62-10.36c-2.27-6.27-4.65-11.44-7.13-15.5-3.87-6.34-9.19-12.29-15.94-17.84-9.39-7.2-19.99-12.21-31.78-15.02-8.62-1.77-16.57-2.28-23.85-1.55-17.31,1.75-32.38,8.84-45.21,21.28l-5.9,6.54-4.13,5.79c7.17-9.36,15.79-16.2,25.86-20.51ZM237.84,190.43c-.43,5.36-5.57,10.16-10.06,12.14-4.48,1.97-11.49,2.53-15.74-.76-2.4-1.86-1.97-5.76,1.3-5.88.3,0,.6.05.88.17,3.95,1.73,6.97,1.85,10.78.17,3.82-1.69,5.76-3.99,7.15-8.08.1-.29.26-.55.47-.77,2.29-2.33,5.46-.02,5.22,3.01Z"/>
  <path class="st8" d="M124.75,116.54c1.49,2.71,3.54,4.93,6.13,6.66l5.9-6.54c1-2.25,1.79-3.74,2.36-4.49,3.74-4.85,7.09-9.98,10.06-15.4-9.49,4.93-17.64,11.52-24.45,19.77Z"/>
  <path class="st2" d="M133.85,159.91l31.25-30.27c1.36-2.4,3.06-3.21,5.11-2.44.3.12.57.31.77.56,1.45,1.78,2.45,3.29,4.23,4.53,11.83,8.25,25.85-6.29,17.35-18.02-.43-.59-1.68-1.78-3.73-3.56-.25-.22-.42-.52-.48-.84-.72-3.95,2.59-5.85,5.75-3.62,1.77,1.25,3.46,3.24,5.07,5.97,2.71,3.05,5.72,4.15,9.03,3.31,5.23-1.33,10.52-3.75,15.87-7.28-11.23-6.11-23.98-8.88-38.24-8.33-12.53.49-23.61,3.34-33.22,8.56-.26,1.77-.7,3.02-1.32,3.73-12.03,13.94-18.71,29.05-17.44,47.7Z"/>
  <path class="st14" d="M237.62,111.95c6.75,5.55,12.07,11.5,15.94,17.84,2.48,4.06,4.86,9.23,7.13,15.5,1.83,1.79,3.85,2.86,6.07,3.19.04,0,.08,0,.12,0,.03,0,.07,0,.1-.01.03,0,.06-.03.09-.04.03-.02.06-.03.09-.05.03-.02.04-.05.07-.07.02-.02.05-.05.06-.08.02-.03.02-.06.03-.1.01-.04.03-.07.03-.11l.64-5.83c-5.58-16.31-15.24-29.37-28.99-39.19,1.4,3.28,2.21,6.84-1.38,8.95Z"/>
  <path class="st16" d="M194.1,106.25c-3.16-2.23-6.47-.33-5.75,3.62.06.32.23.62.48.84,2.05,1.78,3.3,2.97,3.73,3.56,8.5,11.73-5.52,26.27-17.35,18.02-1.78-1.24-2.78-2.75-4.23-4.53-.2-.25-.47-.44-.77-.56-2.05-.77-3.75.04-5.11,2.44,2.25,5.52,6.1,9.12,11.55,10.8,17.36,5.35,31.93-12.13,22.52-28.22-1.61-2.73-3.3-4.72-5.07-5.97Z"/>
  <path class="st29" d="M183.51,200.96c-3.35-2.43-6.81-4.7-10.36-6.81-.29-.17-.51-.44-.62-.76l-.84-2.48c.26-6.2,4.63-3.11,7.55-1.82,5.17-2.96,9.49-6.83,12.94-11.6.19-.26.43-.47.71-.64,8.66-5.02,16.24-9.11,22.75-12.28,9.36-4.55,20.78-8.66,34.27-12.32.37-.1.75.03.98.33l2.28,2.98c.12.17.18.37.16.57-.12,1.14-.5,2.21-1.13,3.22l-.66,2.58c-.94,4.39-3.6,7.48-7.99,9.29-.04.02-.07.04-.1.06-.02.02-.04.04-.06.06-.02.02-.03.04-.04.06-.01.02-.02.04-.03.07,0,.02-.01.05-.02.07s0,.05,0,.07c0,.03,0,.05.01.08.01.04.02.08.05.11,2.72,3.98,6.88,8.89,11.23,9.49,8.42,1.16,10.67-5.83,9.35-12.89-.55-2.91-1.26-5.31-2.12-7.2-2.78-6.06-3.34-8.13-5.68-15.37-5.23-16.21-17.15-29.4-32.08-37.58-5.35,3.53-10.64,5.95-15.87,7.28-3.31.84-6.32-.26-9.03-3.31,9.41,16.09-5.16,33.57-22.52,28.22-5.45-1.68-9.3-5.28-11.55-10.8l-31.25,30.27c2.18,16.39,10.24,29.03,24.18,37.93,4.99,2.66,8.88,4.19,11.65,4.59,4.14.6,6.89,1.16,8.24,1.69,7.75,3.01,11,8.6,9.75,16.77-.98,6.45-6.27,6.3-11.25,6.98l16.25,2.04c1.7-11.51,1.15-21.51-9.16-28.95Z"/>
  <path class="st29" d="M243.31,171.54s0-.05.02-.07c0,.02-.01.05-.02.07Z"/>
  <path class="st29" d="M243.33,171.69s-.01-.05-.01-.08c0,.03,0,.05.01.08Z"/>
  <path class="st29" d="M243.48,171.26s-.02.02-.03.03c.03-.02.06-.05.1-.06-.03.01-.05.02-.07.04Z"/>
  <path class="st29" d="M243.36,171.4s.03-.04.04-.06c-.02.02-.03.04-.04.06Z"/>
  <path class="st18" d="M154.53,211.2c1.41-4.38,2.58-8.83,3.5-13.36-13.94-8.9-22-21.54-24.18-37.93-1.27-18.65,5.41-33.76,17.44-47.7.62-.71,1.06-1.96,1.32-3.73-10.07,4.31-18.69,11.15-25.86,20.51-6.63,8.65-10.53,18.25-11.71,28.79-2.37,21.28,6.57,41.55,23.21,55.11,2.07,1.02,4.12,1.97,6.17,2.86,5.06,2.21,8.43.69,10.11-4.55Z"/>
  <path class="st13" d="M350.74,125.05c1.69,0,3.26-.51,4.57-1.4.43-.29.84-.63,1.21-1,.18-.18.36-.38.53-.58.33-.4.63-.84.88-1.3.13-.23.24-.47.34-.71.41-.98.64-2.05.64-3.18,0-4.51-3.66-8.17-8.17-8.17s-8.17,3.66-8.17,8.17,3.66,8.17,8.17,8.17Z"/>
  <path class="st20" d="M105.43,163.47c-.72,18.95,4.85,36.66,17.97,50.59,4.04,4.17,8.43,7.93,13.18,11.26,5.45,3.33,11.61,6.06,18.48,8.17,26.44,8.11,56.73,9.48,84.25,1.19,3.14-.95,5.78-2.05,7.91-3.3,8.67-9.05,16.49-18.66,23.48-28.82-17.98,22.35-50.99,29.24-78.03,27.35l-16.25-2.04c-13.73-2.11-27.37-6.52-38.17-14.98-16.64-13.56-25.58-33.83-23.21-55.11,1.18-10.54,5.08-20.14,11.71-28.79l4.13-5.79c-2.59-1.73-4.64-3.95-6.13-6.66l-7.44,10.01c-2.23,4.41-4.26,8.63-6.11,12.65-3.53,7.71-5.45,15.8-5.77,24.27Z"/>
  <path class="st13" d="M339.73,135.64c-3.55.59-5.37.89-5.44.9-.32.02-.62-.18-.72-.49-.01-.03-.28-1.85-.79-5.44-.86-6.06-5.66-9.76-11.73-9.1-9.16.98-11.99,11.15-11.4,18.83.59,7.69,2.84,14.89,6.74,21.6.7,1.22,1.95,2.02,3.35,2.14,5.94.54,11.69.3,17.26-.72,8.17-1.51,18.26-7.23,18.07-16.87-.16-8.04-7.72-12.12-15.34-10.85Z"/>
  <path class="st13" d="M294.11,130.14c.62-2.9-1.31-5.77-4.32-6.42s-5.95,1.18-6.57,4.08c-.62,2.9,1.31,5.77,4.32,6.42.38.08.75.12,1.12.13,0,0,.01,0,.02,0,.34,0,.67-.02,1-.08.06-.01.13-.02.19-.04,2.07-.41,3.79-1.96,4.24-4.1Z"/>
  <path class="st13" d="M289.86,134.23c-.06.01-.13.03-.19.04.06-.01.13-.02.19-.04Z"/>
  <path class="st13" d="M288.67,134.35s-.01,0-.02,0c0,0,.01,0,.02,0Z"/>
  <path class="st22" d="M105.43,163.47c.32-8.47,2.24-16.56,5.77-24.27,1.85-4.02,3.88-8.24,6.11-12.65-2.93,1.85-5.31,4.02-7.12,6.51-3.42,4.68-7.41,10.91-9.93,16.5-8.26,18.32-11.51,37.66-9.75,58.01l32.89,6.49c-13.12-13.93-18.69-31.64-17.97-50.59Z"/>
  <path class="st27" d="M35.06,196.71c.01.06.04.12.06.18.04.12.07.23.12.34.04.08.08.15.13.22.05.08.09.17.15.25.05.08.12.14.18.21.06.06.11.13.17.19.07.06.14.11.21.17.07.05.14.11.21.16.07.05.15.08.23.12.08.04.16.09.25.12.09.03.18.05.28.08.08.02.16.05.25.07.12.02.24.02.36.03.06,0,.13.01.19.01.2,0,.39-.03.58-.07l.28-.07c1.97-.46,3.32-2.26,3.23-4.28-.85-17.97,1.59-35.26,7.32-51.88.04-.12.06-.24.09-.36.02-.1.04-.2.05-.29,0-.09,0-.19,0-.28,0-.1,0-.19,0-.29,0-.09-.03-.18-.05-.28-.02-.09-.03-.18-.06-.27-.03-.09-.06-.17-.1-.26-.03-.09-.07-.17-.11-.25-.04-.08-.09-.16-.14-.23-.05-.08-.1-.16-.16-.23-.06-.07-.12-.14-.19-.2-.07-.07-.13-.14-.2-.2-.07-.06-.15-.11-.23-.17-.08-.05-.15-.11-.24-.15-.09-.05-.18-.08-.27-.12-.11-.05-.22-.1-.35-.14l-.14-.04c-1.66-.47-3.4.41-4.01,2.03-6.79,18.2-8.56,35.77-8.18,55.3,0,.2.03.39.07.58Z"/>
  <path class="st27" d="M48.16,139.25c.08.05.16.11.23.17-.07-.06-.15-.11-.23-.17Z"/>
  <path class="st27" d="M35.36,197.46c-.04-.07-.09-.14-.13-.22.04.08.08.15.13.22Z"/>
  <path class="st27" d="M35.06,196.72c.01.06.04.11.06.17-.02-.06-.05-.12-.06-.18,0,0,0,0,0,.01Z"/>
  <path class="st27" d="M38.43,198.8c-.19.05-.39.07-.58.07.19,0,.39-.03.58-.07Z"/>
  <path class="st27" d="M47.66,138.97c.09.04.18.08.27.12-.09-.05-.18-.08-.27-.12Z"/>
  <path class="st27" d="M48.94,140.05c.05.08.1.15.14.23-.04-.08-.09-.16-.14-.23Z"/>
  <path class="st27" d="M35.69,197.92c-.06-.07-.13-.14-.18-.21.06.08.12.14.18.21Z"/>
  <path class="st27" d="M36.52,198.56c-.08-.04-.16-.07-.23-.12.07.05.15.08.23.12Z"/>
  <path class="st27" d="M36.08,198.28c-.07-.06-.15-.11-.21-.17.07.06.14.11.21.17Z"/>
  <path class="st27" d="M49.31,142.41c.02-.07.02-.14.04-.21-.02.12-.04.24-.09.36.02-.05.03-.1.05-.16Z"/>
  <path class="st27" d="M49.19,140.54c.04.09.07.17.1.26-.03-.09-.06-.17-.1-.26Z"/>
  <path class="st27" d="M49.35,141.07c.02.09.04.18.05.28,0-.09-.03-.18-.05-.28Z"/>
  <path class="st27" d="M49.41,141.63c0,.09,0,.19,0,.28,0-.09,0-.19,0-.28Z"/>
  <path class="st27" d="M48.59,139.61c.06.07.13.13.19.2-.06-.07-.12-.14-.19-.2Z"/>
  <path class="st27" d="M37.66,198.86c-.12,0-.25,0-.36-.03.12.02.24.02.36.03Z"/>
  <path class="st27" d="M37.05,198.76c-.09-.03-.19-.05-.28-.08.09.03.18.05.28.08Z"/>
  <path class="st8" d="M267.35,148.05s-.02.05-.03.08c-.01.03-.02.07-.03.1-.02.03-.04.05-.06.08-.02.02-.04.05-.07.07-.03.02-.06.03-.09.05-.03.02-.06.03-.09.04-.03,0-.07,0-.1.01-.03,0-.06.01-.09,0,0,0-.02,0-.03,0-2.22-.33-4.24-1.4-6.07-3.19l2.62,10.36c.15.6.64,1.06,1.25,1.19,10.13,2.13,16.26,10.19,16.32,20.35.06,9.43-4.13,18.15-10.18,25.37-6.99,10.16-14.81,19.77-23.48,28.82l3.56-1.38.76-.36c1.43-1.57,2.97-3.03,4.63-4.36,3.43-2.76,7.21-5.93,11.35-9.51,3.62-3.14,6.94-5.41,11.1-8.26,1.01-.7,2.78-2.69,5.29-5.96,3.12-7.26,4.9-14.84,5.33-22.75.48-6.61-1-12.55-4.44-17.84-3.32-5.1-7.88-7.9-13.48-9.53-.44-.13-.79-.48-.92-.92l-2.41-8.32-.64,5.83s0,.02,0,.03Z"/>
  <path class="st8" d="M266.98,148.46s.06-.03.09-.04c-.03.01-.06.03-.09.04Z"/>
  <path class="st8" d="M266.88,148.47s-.08.01-.12,0c0,0,.02,0,.03,0,.03,0,.06,0,.09,0Z"/>
  <path class="st8" d="M267.22,148.3s-.04.05-.07.07c.03-.02.04-.05.07-.07Z"/>
  <path class="st8" d="M267.28,148.22s.02-.06.03-.1c-.01.03-.02.07-.03.1Z"/>
  <path class="st25" d="M386.23,154.17c-14.52,2.63-26.48,12.59-31.46,26.21l8.05,4.95c5.36-17.62,24.13-26.79,41.36-21.43,6.49,2.01,12.1,6.07,16.83,12.17,4.66,6,6.61,13.26,5.85,21.79-2.53,13.89-12.78,25.55-27.1,27.65l1.52,9.66c8.35-1.34,16.07-5.13,22.14-10.88,2.59-2.45,4.82-5.22,6.67-8.22,1.38-2.25,2.54-4.63,3.46-7.12.31-.83.59-1.67.84-2.52,3.51-11.81,1.42-24.59-5.69-34.81-9.43-13.57-26.11-20.42-42.47-17.46Z"/>
  <path class="st16" d="M250.07,154.24c-1.15-.47-2.19-.25-3.12.68-.2.2-.34.45-.42.72-.48,1.68-.73,2.56-.76,2.64-1.69,5.62-8.94,8.12-13.73,4.32-.96-.76-2.38-.62-3.24.34-1.61,1.77-1.41,3.55.59,5.32,1.27,1.13,2.32,1.81,3.17,2.04,8.77,2.39,15.1-.4,18.98-8.37l.66-2.58c.39-2.67-.32-4.37-2.13-5.11Z"/>
  <path class="st23" d="M364.23,205.84c3.77,8.19,9.22,14.01,17.42,17.44,8.72-7.28,16.42-15.01,25.04-23.08,6.79-6.36,12.06-6.3,20.17-2.34.76-8.53-1.19-15.79-5.85-21.79-4.73-6.1-10.34-10.16-16.83-12.17-17.23-5.36-36,3.81-41.36,21.43-1.9,7.52-1.43,14.36,1.41,20.51ZM379.67,201.02s.05-.07.08-.1c.11-.1.22-.2.34-.29l11.31-8.63c.49-.37.76-.96.72-1.57l-.98-16.83s0,0,0,0c0-.13,0-.25.02-.38,0-.11,0-.22.01-.33.02-.13.06-.24.09-.37.03-.1.04-.2.07-.3.04-.11.09-.2.14-.3.05-.1.09-.21.14-.31.05-.08.12-.16.17-.24.07-.1.14-.21.22-.3.06-.07.14-.13.21-.2.09-.09.18-.18.28-.26.07-.06.16-.1.23-.15.11-.07.22-.15.33-.21.1-.05.2-.08.31-.12.11-.04.22-.09.33-.12.11-.03.23-.04.35-.06.12-.02.23-.05.35-.06,0,0,0,0,0,0l.97-.05c1.73-.1,3.22,1.22,3.33,2.96l1.23,21.06c.06.94-.36,1.85-1.11,2.43l-13.36,10.19c-1.66,1.26-4,1.1-5.46-.39l-.28-.29c-.1-.11-.2-.22-.29-.34-.03-.03-.04-.07-.07-.11-.07-.1-.13-.21-.19-.31-.05-.1-.11-.19-.15-.29-.05-.11-.08-.21-.12-.32-.03-.11-.07-.21-.09-.32-.02-.11-.04-.22-.05-.33-.01-.11-.03-.22-.03-.34,0-.11,0-.22.01-.33,0-.11.02-.22.03-.33.02-.11.05-.22.08-.33.03-.11.06-.21.1-.32.04-.1.09-.2.14-.3.05-.1.1-.21.16-.31.06-.09.12-.18.19-.26.07-.1.15-.19.23-.28Z"/>
  <path class="st27" d="M71.19,170.96c-.31-.25-.64-.48-.99-.67-.88-.48-1.9-.75-2.97-.75-3.45,0-6.24,2.79-6.24,6.24s2.79,6.24,6.24,6.24,6.24-2.79,6.24-6.24c0-.43-.04-.85-.13-1.26-.21-1.02-.66-1.94-1.3-2.71-.25-.31-.54-.59-.85-.85Z"/>
  <path class="st27" d="M73.34,174.52c-.21-1.02-.66-1.94-1.3-2.71.64.77,1.09,1.7,1.3,2.71Z"/>
  <path class="st27" d="M70.2,170.29c.35.19.69.42.99.67-.31-.25-.64-.48-.99-.67Z"/>
  <path class="st27" d="M72.04,171.81c-.25-.31-.54-.59-.85-.85.31.25.59.54.85.85Z"/>
  <path class="st12" d="M379.09,201.87c-.05.1-.1.2-.14.3-.04.1-.07.21-.1.32-.03.11-.06.22-.08.33-.02.11-.03.22-.03.33,0,.11-.02.22-.01.33,0,.11.02.22.03.34.01.11.03.22.05.33.02.11.06.21.09.32.04.11.07.22.12.32.04.1.1.19.15.29.06.11.12.21.19.31.11.15.22.31.36.44l.28.29c1.46,1.49,3.8,1.65,5.46.39l13.36-10.19c.75-.58,1.17-1.49,1.11-2.43l-1.23-21.06c-.11-1.74-1.6-3.06-3.33-2.96l-.97.05c-.12,0-.23.04-.35.06-.12.02-.24.03-.35.06-.12.03-.22.08-.33.12-.1.04-.21.07-.31.12-.12.06-.22.14-.33.21-.08.05-.16.09-.23.15-.1.08-.19.17-.28.26-.07.07-.15.12-.21.2-.08.09-.15.2-.22.3-.06.08-.12.15-.17.24-.06.1-.1.2-.14.31-.05.1-.1.2-.14.3-.03.1-.05.2-.07.3-.03.12-.07.24-.09.37-.02.11,0,.22-.01.33,0,.13-.02.25-.02.38l.98,16.83c.04.61-.23,1.2-.72,1.57l-11.31,8.63c-.15.12-.29.25-.42.39-.09.09-.16.19-.23.28-.07.09-.13.17-.19.26-.06.1-.11.2-.16.31Z"/>
  <path class="st12" d="M378.78,202.82c.02-.11.05-.22.08-.33-.03.11-.06.22-.08.33Z"/>
  <path class="st12" d="M379.36,205.38c-.07-.1-.13-.21-.19-.31.06.11.12.21.19.31Z"/>
  <path class="st12" d="M378.81,204.14c-.02-.11-.04-.22-.05-.33.01.11.03.22.05.33Z"/>
  <path class="st12" d="M378.73,203.47c0-.11,0-.22.01-.33,0,.11-.02.22-.01.33Z"/>
  <path class="st12" d="M379.02,204.78c-.05-.11-.08-.22-.12-.32.04.11.07.22.12.32Z"/>
  <path class="st12" d="M391.26,172.53c.03-.1.04-.2.07-.3-.03.1-.05.2-.07.3Z"/>
  <path class="st12" d="M391.16,173.22c0-.11,0-.22.01-.33-.02.11,0,.22-.01.33Z"/>
  <path class="st12" d="M391.79,171.38c.07-.1.14-.21.22-.3-.08.09-.15.2-.22.3Z"/>
  <path class="st12" d="M379.75,200.92s-.05.07-.08.1c.13-.14.26-.27.42-.39-.12.09-.23.19-.34.29Z"/>
  <path class="st12" d="M378.95,202.17c.04-.1.09-.2.14-.3-.05.1-.1.2-.14.3Z"/>
  <path class="st12" d="M391.48,171.93c.05-.1.09-.21.14-.31-.06.1-.1.2-.14.31Z"/>
  <path class="st12" d="M394.4,169.92c-.12,0-.23.04-.35.06.12-.02.23-.05.35-.06,0,0,0,0,0,0Z"/>
  <path class="st12" d="M392.73,170.48c.11-.07.22-.15.33-.21-.12.06-.22.14-.33.21Z"/>
  <path class="st12" d="M379.44,201.3c-.07.09-.13.17-.19.26.06-.09.12-.18.19-.26Z"/>
  <path class="st12" d="M393.38,170.15c.11-.04.22-.09.33-.12-.12.03-.22.08-.33.12Z"/>
  <path class="st12" d="M392.22,170.88c.09-.09.18-.18.28-.26-.1.08-.19.17-.28.26Z"/>
  <path class="st16" d="M171.69,190.91c3.69,4.61,9.06,6.06,16.11,4.34,4.81-1.17,8.15-3.85,10.01-8.03.74-1.66,1.05-3.45.92-5.36-.11-1.71-1.35-3.13-3.03-3.46l-.34-.07c-.14-.03-.28-.04-.42-.04-.09,0-.18,0-.27.01-.08,0-.16.01-.23.03-.08.01-.16.04-.24.06-.08.02-.16.04-.23.07-.07.03-.15.07-.22.1-.07.04-.15.07-.22.12-.07.04-.13.09-.19.14-.06.05-.13.1-.19.15-.06.06-.11.12-.17.18-.05.06-.11.12-.15.18-.05.07-.09.14-.13.21-.04.07-.08.14-.12.22-.03.07-.06.15-.08.22-.03.08-.06.17-.08.26-.03.14-.06.27-.07.42-.41,6.96-6.8,10.37-13.12,8.43-2.92-1.29-7.29-4.38-7.55,1.82Z"/>
  <path class="st16" d="M193.15,178.97c.06-.05.12-.1.19-.15-.06.05-.13.1-.19.15Z"/>
  <path class="st16" d="M192.83,179.33c.05-.07.1-.12.15-.18-.05.06-.11.12-.15.18Z"/>
  <path class="st16" d="M192.59,179.76c.03-.08.08-.15.12-.22-.04.07-.08.14-.12.22Z"/>
  <path class="st16" d="M192.43,180.24c.02-.09.05-.17.08-.26-.03.08-.06.17-.08.26Z"/>
  <path class="st16" d="M193.53,178.68c.07-.04.14-.08.22-.12-.07.04-.15.07-.22.12Z"/>
  <path class="st16" d="M195.02,178.28s-.05,0-.08,0c.14,0,.28.01.42.04-.11-.02-.23-.04-.34-.04Z"/>
  <path class="st16" d="M193.96,178.46c.07-.03.15-.05.23-.07-.08.02-.16.04-.23.07Z"/>
  <path class="st16" d="M194.44,178.33c.08-.01.15-.02.23-.03-.08,0-.16.01-.23.03Z"/>
  <path class="st9" d="M281.46,206.86c-5.16,11.95-12.22,22.61-21.18,31.96-3.67,4.07-7.69,7.73-12.07,10.98,4.71-1.51,13.48-4.12,26.29-7.82,10.29-2.97,19.56-8.59,27.8-16.85.4-2.34.73-4.85,1-7.52.88-8.97-.21-17.62-3.27-25.95l-8.75-13c-.09-.14-.22-.25-.38-.32-.71-.31-1.26-.16-1.66.46-.43,7.91-2.21,15.49-5.33,22.75l-2.45,5.31Z"/>
  <path class="st5" d="M381.65,223.28c-8.2-3.43-13.65-9.25-17.42-17.44-2.84-6.15-3.31-12.99-1.41-20.51l-8.05-4.95c-3.78,10.34-3.16,21.78,1.72,31.75,6.15,12.59,18.35,21.31,32.41,23.19,4.12.55,8.29.5,12.38-.15l-1.52-9.66c-6.34.92-12.38.18-18.11-2.23Z"/>
  <path class="st16" d="M232.62,187.42c-.21.22-.37.48-.47.77-1.39,4.09-3.33,6.39-7.15,8.08-3.81,1.68-6.83,1.56-10.78-.17-.28-.12-.58-.18-.88-.17-3.27.12-3.7,4.02-1.3,5.88,4.25,3.29,11.26,2.73,15.74.76,4.49-1.98,9.63-6.78,10.06-12.14.24-3.03-2.93-5.34-5.22-3.01Z"/>
  <path class="st12" d="M339.95,215.02c-3.78-4.85-6.84-8.42-9.17-10.71-4.28-4.21-10.18-8.81-17.69-13.79-1.8-1.19-3.62-2.19-5.47-2.99-.08-.04-.16-.04-.24-.04-.02,0-.04,0-.07.01-.06.01-.12.03-.17.06-.02.01-.05.03-.07.04-.03.02-.05.05-.07.08-.02.03-.04.05-.06.09-.01.02-.02.05-.03.08-.02.06-.03.12-.03.18,0,.02,0,.05,0,.07.01.08.04.16.08.23,10.25,14.83,17.12,28.9,17.29,48.14,1.31-3.95,2.31-8.32,4.24-11.6,2.67-4.54,6.49-7.82,11.45-9.85Z"/>
  <path class="st12" d="M307.31,187.5s.04-.01.07-.01c-.02,0-.04,0-.07.01Z"/>
  <path class="st12" d="M307.1,187.58s-.02.02-.03.03c.02-.02.04-.03.07-.04-.01,0-.03,0-.04.02Z"/>
  <path class="st12" d="M306.89,188.02c0-.06,0-.12.03-.18-.02.06-.03.12-.03.18Z"/>
  <path class="st12" d="M306.97,188.33c-.05-.07-.07-.15-.08-.23.01.08.04.16.08.23Z"/>
  <path class="st12" d="M306.94,187.77s.04-.06.06-.09c-.02.03-.04.06-.06.09Z"/>
  <path class="st1" d="M303.3,217.61c-.27,2.67-.6,5.18-1,7.52-2.01,10.09-5.87,19.28-11.57,27.56-.04.05-.05.12-.04.18,0,.03.02.06.04.09.02.03.03.06.05.08.05.04.1.07.17.06,6.8,0,13.53.69,20.2,2.07,6.42-16.28,8.14-34.01.39-50.12-2.62-5.45-4.92-11.83-11.51-13.39,3.06,8.33,4.15,16.98,3.27,25.95Z"/>
  <path class="st1" d="M406.69,200.2c-8.62,8.07-16.32,15.8-25.04,23.08,5.73,2.41,11.77,3.15,18.11,2.23,14.32-2.1,24.57-13.76,27.1-27.65-8.11-3.96-13.38-4.02-20.17,2.34Z"/>
  <path class="st2" d="M187.67,220.89c1.25-8.17-2-13.76-9.75-16.77-1.35-.53-4.1-1.09-8.24-1.69-2.77-.4-6.66-1.93-11.65-4.59-.92,4.53-2.09,8.98-3.5,13.36-1.68,5.24-5.05,6.76-10.11,4.55-2.05-.89-4.1-1.84-6.17-2.86,10.8,8.46,24.44,12.87,38.17,14.98,4.98-.68,10.27-.53,11.25-6.98Z"/>
  <path class="st14" d="M272.81,216.54c1.03-.64,1.94-1.45,2.7-2.39l5.95-7.29,2.45-5.31c-2.51,3.27-4.28,5.26-5.29,5.96-4.16,2.85-7.48,5.12-11.1,8.26-4.14,3.58-7.92,6.75-11.35,9.51-1.66,1.33-3.2,2.79-4.63,4.36,3.39-1.48,7-3.09,9.88-5.26,3.71-2.78,7.5-5.39,11.39-7.84Z"/>
  <path class="st5" d="M49.69,246.91c2.94.43,4.42-.18,6.82-1.78,6.89-4.59,12.49-10.29,16.81-17.09,4.24-6.68,5.27-18.04-1.94-22.98-8.26-5.66-16.8-.9-21.16,6.76-.83,1.47-1.42,2.47-1.77,3-.02.03-.04.06-.07.08,0,0-.02.01-.03.02-.02.02-.05.04-.08.05-.03.01-.05.03-.08.03-.03,0-.06.01-.09.01s-.06,0-.09,0c-.03,0-.06-.01-.08-.02-.03,0-.06-.02-.09-.03-.01,0-.02,0-.03-.01-.03-.02-.06-.04-.08-.07-2.23-2.37-4.25-4.11-6.04-5.23-11.06-6.92-22.18,2.01-20.6,13.93,1.61,12.14,17.68,21.75,28.6,23.32Z"/>
  <path class="st5" d="M48.35,214.92s-.05.04-.08.05c.03-.01.05-.03.08-.05Z"/>
  <path class="st5" d="M48.11,215.02s.06,0,.09-.01c-.03,0-.06.01-.09.01Z"/>
  <path class="st5" d="M47.85,214.97s-.08-.05-.12-.08c.03.03.05.05.08.07.01,0,.02,0,.03.01Z"/>
  <path class="st5" d="M48.02,215.02s-.06-.01-.08-.02c.03,0,.05.02.08.02Z"/>
  <path class="st17" d="M251.35,230.01s.02.02.03.02c.04.04.06.08.09.12.04.05.08.09.1.14.02.05.03.1.05.16s.03.1.04.16c0,.05-.01.11-.02.16,0,.05,0,.11-.02.16-.02.05-.05.1-.08.15-.03.04-.04.09-.07.13,0,0-.02.02-.02.03-3.13,3.36-6.37,6.66-9.72,9.9,3.31,1.77,6.85,2.86,10.62,3.26.32.03.63-.08.85-.31,2.09-2.2,4.46-3.96,7.1-5.28,8.96-9.35,16.02-20.01,21.18-31.96l-5.95,7.29c-.76.94-1.67,1.75-2.7,2.39-3.89,2.45-7.68,5.06-11.39,7.84-2.88,2.17-6.49,3.78-9.88,5.26l-.76.36c.29-.07.48-.06.57.01Z"/>
  <path class="st3" d="M123.4,214.06l-32.89-6.49c.49,6.83,1.53,13.53,3.11,20.08,14.49-.3,28.81-1.08,42.96-2.33-4.75-3.33-9.14-7.09-13.18-11.26Z"/>
  <path class="st4" d="M350.14,234.29c-2.36-6.82-5.76-13.24-10.19-19.27-4.96,2.03-8.78,5.31-11.45,9.85-1.93,3.28-2.93,7.65-4.24,11.6l-1.73,15.59,27.61-17.77Z"/>
  <path class="st21" d="M237.82,291.74c8.91-3.83,14.22-6.16,18.38-8.68.25-.15.36-.46.26-.74-3.75-10.4-10.25-18.69-19.52-24.86-7.79,4.74-16.04,8.58-24.77,11.51-9.85,3.32-19.53,5.07-29.02,5.25-3.2.05-8.65-.15-16.36-.6-2.36-.14-4.13-.83-6.02-1.25-.07-.02-.14-.05-.19-.09-.02-.01-.03-.03-.05-.05-.04-.03-.07-.07-.09-.11-.01-.02-.03-.04-.04-.07-.02-.04-.03-.08-.04-.13,0-.03-.01-.05-.01-.07,0-.01,0-.02,0-.03,0-.03.01-.06.01-.09,0-.03,0-.06,0-.09,0-.01.01-.02.01-.03,0-.02.02-.05.03-.07.02-.04.04-.08.07-.11.02-.02.03-.04.05-.06.03-.03.07-.06.11-.08.02-.01.04-.02.06-.03.07-.03.13-.05.21-.05,5.34-.03,10.37-.44,15.09-1.24,10.07-1.7,19.88-4.37,29.43-8,13.34-4.76,25.44-11.7,36.29-20.82,3.35-3.24,6.59-6.54,9.72-9.9.04-.05.07-.11.1-.16.03-.05.06-.1.08-.15.02-.05.02-.11.02-.16s.02-.11.02-.16c0-.05-.02-.11-.04-.16-.01-.05-.02-.11-.05-.16-.02-.05-.07-.09-.1-.14-.04-.05-.07-.11-.12-.15-.09-.07-.28-.08-.57-.01l-3.56,1.38c-2.13,1.25-4.77,2.35-7.91,3.3-27.52,8.29-57.81,6.92-84.25-1.19-6.87-2.11-13.03-4.84-18.48-8.17-14.15,1.25-28.47,2.03-42.96,2.33l5.3,15.9c.15.45.63.71,1.09.58,5.45-1.46,10.98-2.6,16.59-3.41,10.14-1.46,18,4.65,20.49,14.04,1.56,5.87,2.95,10.84,4.17,14.89,2.08,6.93,1.07,13.27-3.04,19.01-.22.31-.16.75.15.98,4.8,3.65,9.65,6.98,14.54,10,16.55,10.22,34.53,15.49,53.96,15.8,12.95.21,25.1-1.33,36.44-4.62l-5.81-18.37c-.09-.28.05-.59.32-.71Z"/>
  <path class="st21" d="M251.61,230.94c.02-.05.02-.11.02-.16,0,.05,0,.11-.02.16Z"/>
  <path class="st21" d="M251.62,230.45c.01.05.03.1.04.16,0-.05-.02-.11-.04-.16Z"/>
  <path class="st21" d="M251.57,230.29c-.02-.05-.07-.09-.1-.14.03.05.08.09.1.14Z"/>
  <path class="st21" d="M251.53,231.09c-.03.05-.05.11-.1.16,0,0,.02-.02.02-.03.03-.04.05-.09.07-.13Z"/>
  <path class="st3" d="M290.79,253.05s0-.01-.01-.02c-.03-.02-.04-.05-.05-.08-.02-.03-.04-.05-.04-.09,0,0,0-.01,0-.02,0-.06.02-.11.05-.16,5.7-8.28,9.56-17.47,11.57-27.56-8.24,8.26-17.51,13.88-27.8,16.85-12.81,3.7-21.58,6.31-26.29,7.82l-11.27,7.66c9.27,6.17,15.77,14.46,19.52,24.86.1.28-.01.59-.26.74-4.16,2.52-9.47,4.85-18.38,8.68-.27.12-.41.43-.32.71l5.81,18.37c6.78-2.03,14.14-4.98,22.09-8.85,20.61-10.02,37.18-25.6,45.75-46.8-6.67-1.38-13.4-2.07-20.2-2.07-.06,0-.11-.02-.16-.05Z"/>
  <path class="st3" d="M290.69,252.86c0-.06,0-.12.04-.18-.03.05-.05.1-.05.16,0,0,0,.01,0,.02Z"/>
  <path class="st3" d="M290.78,253.03s-.04-.05-.05-.08c.02.03.03.06.05.08Z"/>
  <path class="st11" d="M295.85,296.51c13.48-6.01,30.94-7.5,42.78,2.71,14.42-18.85,18.48-42.21,11.51-64.93l-27.61,17.77c-4.59,17.13-13.49,31.94-26.68,44.45Z"/>
  <path class="st12" d="M252.33,244.41c-3.77-.4-7.31-1.49-10.62-3.26-10.85,9.12-22.95,16.06-36.29,20.82,1.71,2.65,3.96,4.99,6.75,7,8.73-2.93,16.98-6.77,24.77-11.51l11.27-7.66c4.38-3.25,8.4-6.91,12.07-10.98-2.64,1.32-5.01,3.08-7.1,5.28-.22.23-.53.34-.85.31Z"/>
  <path class="st7" d="M399.03,248.73c-2.54-1.61-4.73-1.02-6.57,1.77-.16.24-.26.52-.31.81-.72,4.61-2.18,9.73-4.38,15.34-5.03,12.82-11.8,24.3-20.31,34.45l6.59,4.81c12.83-15.27,21.68-32.57,26.54-51.9.61-2.43.48-4-1.56-5.28Z"/>
  <path class="st8" d="M38.91,273.53c23.81-5.34,47.61-10.71,71.41-16.11,1.28-.29,3.42-.63,6.42-1.03,1.96-.27,3.47.08,4.54,1.05-.32-2.99.16-5.86,1.45-8.61-2.63-.83-5.46-.92-8.51-.26-27.59,5.93-50.06,10.89-67.42,14.88-6.49,1.49-11.8,2.87-15.93,4.13l4.5,8.43c1.1-1.37,2.28-2.2,3.54-2.48Z"/>
  <path class="st19" d="M121.28,257.44c.91.86,1.6,1.92,2.09,3.17.79,2.96.33,6.05-1.37,9.26,2.9,1.07,4,3.56,3.31,7.45,2.23,2.79,3.82,6.15,4.77,10.08,2.7-3.84,5.3-8.16,4.55-11.99-.59-3.03-2.03-8.43-4.3-16.19-1.38-4.71-2.87-8.98-7.6-10.39-1.29,2.75-1.77,5.62-1.45,8.61Z"/>
  <path class="st23" d="M116.74,256.39c-3,.4-5.14.74-6.42,1.03-23.8,5.4-47.6,10.77-71.41,16.11-1.26.28-2.44,1.11-3.54,2.48-1.07,6.56,3.66,5.91,8.2,4.73,8.05-2.1,12.45-3.22,13.19-3.37,4.12-.82,6.24,1.08,7.48,5.03,1.11,3.56,1.78,6.04,1.99,7.44.61,4.05-3.51,6.73-6.77,8-4.18,1.62-7.77,2.82-10.76,3.59-.1.03-.19.08-.27.13-.05.04-.1.08-.14.12-.04.04-.08.08-.11.13-.03.05-.06.1-.08.16-.02.05-.05.11-.06.16-.01.06-.01.11-.01.17,0,.06,0,.12,0,.19.02.1.04.2.09.29.07.13.39.25.96.34,5.88-1.8,11.81-2.19,17.79-1.18,5.61.95,10.75,3.72,13.98,8.43,2.78,4.07,3.83,8.75,3.16,14.05,9.01.04,17.18-2.47,24.51-7.52.88-.61,1.85-1.98,2.9-4.11.17-.33.27-.69.32-1.05.19-1.37.46-3.18.83-5.42,1.32-8.05,6.51-14.06,11.23-21.04.05-.08.09-.16.11-.25.02-.09.02-.18,0-.27-.02-.09-.05-.18-.1-.25-.05-.07-.11-.14-.19-.19-.08-.05-.16-.09-.25-.11-.09-.02-.18-.02-.27,0-4.77.93-8.13,1.53-10.1,1.79-3.91.52-6.52-.9-7.84-4.26-2.01-5.15-5.81-12.94,1.11-14.69,1.85-.47,6.59-1.53,14.2-3.19,1.89-.41,2.86-1.49,2.91-3.24-.49-1.25-1.18-2.31-2.09-3.17-1.07-.97-2.58-1.32-4.54-1.05Z"/>
  <path class="st8" d="M125.31,277.32c-3.49,1.53-6.97,2.49-10.46,2.9-1.78.21-3.46-.86-4.03-2.56l-.52-1.56c-.03-.1-.06-.2-.09-.3-.01-.05-.01-.11-.02-.16-.02-.11-.03-.22-.04-.33,0-.1,0-.2,0-.3,0-.11.01-.21.02-.31.01-.1.03-.2.05-.3.02-.1.05-.2.08-.29.03-.1.07-.19.11-.29.04-.09.09-.18.14-.27.05-.09.1-.17.16-.26.06-.08.12-.16.19-.24.07-.08.13-.15.21-.22.07-.07.15-.14.23-.2.08-.07.17-.13.26-.18.08-.05.17-.11.26-.15.1-.05.2-.1.3-.14.05-.02.1-.05.15-.07.1-.03.2-.06.3-.09l9.39-2.12c1.7-3.21,2.16-6.3,1.37-9.26-.05,1.75-1.02,2.83-2.91,3.24-7.61,1.66-12.35,2.72-14.2,3.19-6.92,1.75-3.12,9.54-1.11,14.69,1.32,3.36,3.93,4.78,7.84,4.26,1.97-.26,5.33-.86,10.1-1.79.09-.02.19-.01.27,0,.18.04.34.15.44.3.05.08.09.16.1.25.02.09.02.18,0,.27-.02.09-.05.17-.11.25-4.72,6.98-9.91,12.99-11.23,21.04-.37,2.24-.64,4.05-.83,5.42-.05.36-.15.72-.32,1.05-1.05,2.13-2.02,3.5-2.9,4.11-7.33,5.05-15.5,7.56-24.51,7.52l-2.07.02c-.31,2.53-1.24,4.86-2.79,7.01,2.39.5,4.75.69,7.08.57,10.9-.55,25.33-4.33,31.68-14.11.97-1.5,1.89-4.16,2.76-7.98,1.9-8.31,4.36-15.46,9.41-22.52-.95-3.93-2.54-7.29-4.77-10.08Z"/>
  <path class="st8" d="M123.91,285.02c-.02.09-.05.17-.11.25.05-.08.09-.16.11-.25Z"/>
  <path class="st8" d="M123.81,284.5c-.1-.15-.26-.26-.44-.3.09.02.17.05.25.11.08.05.14.12.19.19Z"/>
  <path class="st11" d="M205.42,261.97c-9.55,3.63-19.36,6.3-29.43,8-4.72.8-9.75,1.21-15.09,1.24-.07,0-.14.02-.21.05-.02,0-.04.02-.06.03-.04.02-.08.05-.11.08-.02.02-.03.04-.05.06-.03.04-.05.07-.07.11-.01.02-.02.05-.03.07-.01.04-.01.08-.02.12,0,.04-.01.08,0,.12,0,.03,0,.05.01.07.01.04.02.09.04.13.01.02.02.04.04.07.03.04.06.07.09.11.02.02.03.03.05.05.06.04.12.08.19.09,1.89.42,3.66,1.11,6.02,1.25,7.71.45,13.16.65,16.36.6,9.49-.18,19.17-1.93,29.02-5.25-2.79-2.01-5.04-4.35-6.75-7Z"/>
  <path class="st11" d="M160.35,271.65s0,.06,0,.09c0-.04,0-.08.02-.12,0,.01-.01.02-.01.03Z"/>
  <path class="st11" d="M160.44,272.12s-.03-.04-.04-.07c.01.02.02.04.04.07Z"/>
  <path class="st11" d="M160.36,271.93s-.01-.05-.01-.07c0,.03,0,.05.01.07Z"/>
  <path class="st11" d="M160.52,271.37s.07-.06.11-.08c-.04.02-.08.05-.11.08Z"/>
  <path class="st11" d="M160.58,272.27s-.03-.03-.05-.05c.02.02.03.03.05.05Z"/>
  <path class="st11" d="M160.4,271.54s.04-.08.07-.11c-.03.04-.05.07-.07.11Z"/>
  <path class="st11" d="M160.69,271.26c.06-.03.13-.05.21-.05-.07,0-.14.02-.21.05Z"/>
  <path class="st20" d="M77.32,322.52c-4.15-4.47-7.09-7.37-8.82-8.7-5.77-4.43-12.24-8-19.42-10.71-.57-.09-.89-.21-.96-.34-.04-.07-.07-.15-.09-.22,0-.02,0-.04,0-.06-.01-.06-.01-.12,0-.19,0-.06,0-.11.01-.17.01-.06.04-.11.06-.16.02-.05.05-.11.08-.16.03-.05.07-.09.11-.13.04-.04.09-.09.14-.12.02-.01.03-.03.05-.04.07-.04.15-.07.22-.09,2.99-.77,6.58-1.97,10.76-3.59,3.26-1.27,7.38-3.95,6.77-8-.21-1.4-.88-3.88-1.99-7.44-1.24-3.95-3.36-5.85-7.48-5.03-.74.15-5.14,1.27-13.19,3.37-4.54,1.18-9.27,1.83-8.2-4.73l-4.5-8.43c-1.64,1.27-2.61,2.28-2.92,3.03-1.2,2.97-1.24,6.03-.13,9.17,2.31,6.48,3.95,11.27,4.93,14.36,2.01,6.36,4.46,10.78,10.03,13.23,8.44,3.7,15.04,8.05,21.55,14.22,4.3,4.08,8.63,8.6,14.82,9.85,1.55-2.15,2.48-4.48,2.79-7.01-2.15-.27-3.69-.9-4.62-1.91ZM43.95,294.82c-.71-.45-1.25-1.17-1.45-2.06l-.35-1.56c-.05-.22-.08-.44-.08-.66-.01-.66.17-1.29.51-1.82.23-.36.52-.67.87-.92.35-.25.75-.43,1.19-.53l10.79-2.41c.89-.2,1.77-.02,2.48.43.71.45,1.25,1.17,1.45,2.06l.35,1.56c.05.22.08.44.08.66.01.66-.17,1.29-.51,1.82-.23.36-.52.67-.87.92-.35.25-.75.43-1.19.53l-10.79,2.41c-.89.2-1.77.02-2.48-.43Z"/>
  <path class="st20" d="M48.03,302.48c-.01-.06-.01-.13,0-.19,0,.06,0,.12,0,.19Z"/>
  <path class="st20" d="M48.17,301.81s.07-.09.11-.13c-.04.04-.08.08-.11.13Z"/>
  <path class="st20" d="M48.48,301.52s-.03.03-.05.04c.08-.05.17-.1.27-.13-.08.02-.15.05-.22.09Z"/>
  <path class="st20" d="M48.04,302.12c.01-.06.04-.11.06-.16-.02.05-.05.11-.06.16Z"/>
  <path class="st28" d="M122,269.87l-9.39,2.12c-.16.04-.3.09-.45.15-.1.04-.2.09-.3.14-.09.05-.18.1-.26.15-.09.06-.17.12-.26.18-.08.06-.16.13-.23.2-.07.07-.14.14-.21.22-.07.08-.13.16-.19.24-.06.08-.11.17-.16.26-.05.09-.1.18-.14.27-.04.09-.08.19-.11.29-.03.1-.06.19-.08.29-.02.1-.04.2-.05.3-.01.1-.02.21-.02.31,0,.1,0,.2,0,.3,0,.11.02.22.04.33.03.16.05.31.11.46l.52,1.56c.57,1.7,2.25,2.77,4.03,2.56,3.49-.41,6.97-1.37,10.46-2.9.69-3.89-.41-6.38-3.31-7.45Z"/>
  <path class="st28" d="M110.42,273.81c.04-.09.09-.18.14-.27-.05.09-.1.18-.14.27Z"/>
  <path class="st28" d="M110.72,273.28c.06-.08.12-.16.19-.24-.07.08-.13.16-.19.24Z"/>
  <path class="st28" d="M112.31,272.07c-.05.02-.1.05-.15.07.15-.06.29-.12.45-.15-.1.02-.2.05-.3.09Z"/>
  <path class="st28" d="M111.6,272.43c.08-.05.17-.11.26-.15-.09.05-.18.1-.26.15Z"/>
  <path class="st28" d="M111.11,272.81c.07-.07.15-.14.23-.2-.08.06-.16.13-.23.2Z"/>
  <path class="st28" d="M110.23,274.38c.02-.1.05-.2.08-.29-.03.1-.06.19-.08.29Z"/>
  <path class="st28" d="M110.2,275.63c-.02-.11-.03-.22-.04-.33,0,.11.02.22.04.33Z"/>
  <path class="st28" d="M110.15,275c0-.11.01-.21.02-.31-.01.1-.02.21-.02.31Z"/>
  <path class="st28" d="M46.43,295.26l10.79-2.41c.44-.1.85-.28,1.19-.53.35-.25.64-.56.87-.92.34-.53.52-1.16.51-1.82,0-.22-.03-.44-.08-.66h0s-.35-1.56-.35-1.56c-.2-.89-.74-1.61-1.45-2.06-.71-.45-1.59-.63-2.48-.43l-10.79,2.41c-.44.1-.85.28-1.19.53-.35.25-.64.56-.87.92-.34.53-.52,1.16-.51,1.82,0,.22.03.44.08.66h0s.35,1.56.35,1.56c.2.89.74,1.61,1.45,2.06s1.59.63,2.48.43Z"/>
  <path class="st28" d="M42.07,290.54c0,.22.03.44.08.66h0c-.05-.22-.08-.44-.08-.66Z"/>
  <path class="st28" d="M46.43,295.26c-.89.2-1.77.02-2.48-.43.71.45,1.59.63,2.48.43l10.79-2.41-10.79,2.41Z"/>
  <path class="st28" d="M59.79,289.58c0-.22-.03-.44-.08-.66h0c.05.22.08.44.08.66Z"/>
  <path class="st28" d="M57.92,285.29c-.71-.45-1.59-.63-2.48-.43l-10.79,2.41,10.79-2.41c.89-.2,1.77-.02,2.48.43Z"/>
  <path class="st10" d="M295.85,296.51c-8.93,7.88-18.74,14.39-29.42,19.53-10.51,5.07-21.73,8.63-33.65,10.68-23.35,4.03-46.86,2.79-70.55-3.74-.22-.09-.47,0-.57.22-.09.22,0,.47.23.57,2.38,1.45,4.96,2.75,7.75,3.92,15.25,6.38,31.22,10.73,47.9,12.1,42.71,3.52,92.98-4.48,121.09-40.57-11.84-10.21-29.3-8.72-42.78-2.71Z"/>
  <path class="st28" d="M340.62,325.36l8.45,3.55c9.23-6.63,17.56-14.3,24.98-23l-6.59-4.81c-7.91,9.21-16.86,17.29-26.84,24.26Z"/>
  <path class="st18" d="M80.85,310.36c-3.23-4.71-8.37-7.48-13.98-8.43-5.98-1.01-11.91-.62-17.79,1.18,7.18,2.71,13.65,6.28,19.42,10.71,1.73,1.33,4.67,4.23,8.82,8.7.93,1.01,2.47,1.64,4.62,1.91l2.07-.02c.67-5.3-.38-9.98-3.16-14.05Z"/>
  <path class="st26" d="M323.61,335.45c-21.08,9.87-43.23,15.79-66.45,17.77-8.69.74-17.4,1.12-26.14,1.13.05,2.46-.39,4.87-1.33,7.23l28.84-.05c1.71-1.37,3.35-2.15,4.9-2.34,13.68-1.6,27.11-4.39,40.3-8.38,3.72-1.13,11-3.63,21.84-7.5,8.55-4.36,16.39-9.16,23.5-14.4l-8.45-3.55c-7.43,4.89-13.1,8.26-17.01,10.09Z"/>
  <path class="st0" d="M134.09,327.8c-1.95-1.24-4.53-.78-5.94,1.05l-.13.17c-.12.15-.21.31-.3.48-.06.11-.12.23-.17.34-.05.11-.09.22-.12.33-.04.12-.07.23-.09.35-.02.12-.04.23-.06.35-.01.12-.02.23-.02.35,0,.12,0,.24.01.35,0,.12.03.23.05.35.02.11.05.23.08.34.03.11.07.23.11.34.04.11.09.22.14.32.05.11.11.21.18.31.06.1.13.2.21.3.07.09.15.18.23.26.09.09.18.18.28.26.14.12.28.24.45.34,16.43,10.13,33.85,17.14,52.28,21.01l3.71-6.77c-18.03-3.85-34.99-10.79-50.89-20.83Z"/>
  <path class="st0" d="M127.4,332.26c-.03-.11-.06-.23-.08-.34.02.11.04.23.08.34Z"/>
  <path class="st0" d="M128.04,333.52c-.08-.1-.14-.2-.21-.3.06.1.13.2.21.3Z"/>
  <path class="st0" d="M127.65,332.91c-.05-.1-.1-.21-.14-.32.04.11.09.21.14.32Z"/>
  <path class="st0" d="M128.55,334.05c-.1-.08-.19-.17-.28-.26.09.09.18.18.28.26Z"/>
  <path class="st0" d="M127.28,331.57c0-.12-.01-.24-.01-.35,0,.12,0,.24.01.35Z"/>
  <path class="st0" d="M127.43,330.17c.03-.11.08-.22.12-.33-.05.11-.09.22-.12.33Z"/>
  <path class="st0" d="M127.29,330.87c.01-.12.03-.23.06-.35-.02.12-.04.23-.06.35Z"/>
  <path class="st0" d="M127.8,329.34c-.03.05-.05.11-.08.16.09-.16.18-.32.3-.48-.08.1-.15.21-.22.32Z"/>
  <path class="st9" d="M263.43,359.19c-1.55.19-3.19.97-4.9,2.34,25.49-.18,50.97-.7,76.46-1.55,13.67-.45,26.55-1.8,38.66-4.03,3.34-.62,7.96-1.28,9.92-3.98.33-.44.27-1.06-.13-1.44-1.1-1.05-2.73-1.86-4.89-2.41-10.61-2.73-21.75-4.15-33.44-4.27-6.21-.06-12.73-.24-19.54-.54-10.84,3.87-18.12,6.37-21.84,7.5-13.19,3.99-26.62,6.78-40.3,8.38Z"/>
  <path class="st28" d="M184.98,348.63l-3.71,6.77c15.91,3.72,32.05,5.78,48.42,6.18.94-2.36,1.38-4.77,1.33-7.23-15.53-.49-30.87-2.4-46.04-5.72Z"/>
</svg>