<?xml version="1.0" encoding="UTF-8"?>
<svg id="Layer_1" xmlns="http://www.w3.org/2000/svg" version="1.1" viewBox="0 0 710 618">
  <!-- Generator: Adobe Illustrator 29.5.1, SVG Export Plug-In . SVG Version: 2.1.0 Build 141)  -->
  <defs>
    <style>
      .st0 {
        fill: #f6ef8a;
      }

      .st1 {
        fill: #96dfd2;
      }

      .st2 {
        fill: #eefaf5;
      }

      .st3 {
        fill: #e8a5a0;
      }

      .st4 {
        fill: none;
      }

      .st5 {
        fill: #99cee0;
      }

      .st6 {
        fill: #d5b0ae;
      }

      .st7 {
        fill: #d6f3f4;
      }

      .st8 {
        fill: #d4f6ed;
      }

      .st9 {
        fill: #b1e7eb;
      }

      .st10 {
        fill: #fdbbb6;
      }

      .st11 {
        fill: #a5acaa;
      }

      .st12 {
        fill: #fee1ba;
      }

      .st13 {
        fill: #75ccad;
      }

      .st14 {
        fill: #78b4c6;
      }

      .st15 {
        fill: #73ccc1;
      }

      .st16 {
        fill: #e0e8da;
      }

      .st17 {
        fill: #e4eaf1;
      }

      .st18 {
        fill: #e6eac7;
      }

      .st19 {
        fill: #cef0d8;
      }

      .st20 {
        fill: #c1e6c6;
      }

      .st21 {
        fill: #fefefe;
      }

      .st22 {
        fill: #cee8a5;
      }

      .st23 {
        fill: #fee487;
      }

      .st24 {
        fill: #fef5ed;
      }

      .st25 {
        fill: #f8939e;
      }
    </style>
  </defs>
  <path class="st4" d="M445.1,94.85c-.07.08-.1.17-.12.26.02-.1.05-.19.12-.26Z"/>
  <path class="st4" d="M367.81,199.95c-.06.09-.12.19-.17.3.06-.13.14-.25.22-.36-.02.02-.04.04-.06.07Z"/>
  <path class="st4" d="M442.93,87.7s-.07-.04-.11-.06c.04.02.08.03.11.06Z"/>
  <path class="st4" d="M445.01,95.37s.03.06.04.08c-.02-.03-.03-.05-.04-.08Z"/>
  <path class="st4" d="M443.2,88.15s-.02-.09-.04-.14c.02.04.03.09.04.14Z"/>
  <path class="st4" d="M468.58,61.48c0,.05,0,.1,0,.15,0-.05,0-.1,0-.15Z"/>
  <path class="st4" d="M469.3,70.78s-.04-.03-.06-.05c0,.01.01.02.02.03,0,0,.02,0,.03.01Z"/>
  <path class="st4" d="M458.23,76.3c-.05-.06-.09-.12-.14-.18.04.06.09.12.14.18Z"/>
  <path class="st4" d="M458.55,76.62c-.06-.05-.12-.1-.17-.15.06.05.11.11.17.15Z"/>
  <path class="st4" d="M457.68,75.07c0-.08-.01-.16-.01-.24,0,.08,0,.16.01.24Z"/>
  <path class="st4" d="M457.78,75.52c-.02-.07-.04-.15-.06-.23.02.08.03.15.06.23Z"/>
  <path class="st4" d="M457.97,75.93c-.04-.07-.07-.13-.1-.2.03.07.06.14.1.2Z"/>
  <path class="st4" d="M443.02,87.79s.06.06.08.1c-.02-.04-.05-.07-.08-.1Z"/>
  <path class="st4" d="M422.6,164.72c-.08.54-.08,1.07,0,1.59-.08-.52-.09-1.05,0-1.59Z"/>
  <path class="st4" d="M422.71,164.18h0c.14-.54.36-1.03.65-1.48-.28.45-.5.94-.65,1.48Z"/>
  <path class="st4" d="M429.43,160.4c-.55-.15-1.11-.2-1.65-.18.54-.02,1.1.04,1.65.18,2.96.78,4.75,3.73,4,6.59-.47,1.79-1.82,3.12-3.49,3.68,1.67-.56,3.02-1.89,3.49-3.68h0c.75-2.86-1.04-5.81-4-6.59h0Z"/>
  <path class="st4" d="M423.07,167.8c.68,1.41,1.98,2.53,3.64,2.97t0,0c.55.14,1.11.2,1.65.18-.54.02-1.1-.04-1.65-.18-1.66-.44-2.96-1.56-3.64-2.97Z"/>
  <path class="st4" d="M427.78,160.22c-1.81.06-3.47,1-4.42,2.49.95-1.49,2.61-2.42,4.42-2.49Z"/>
  <path class="st4" d="M444.99,95.28s-.01-.07-.01-.1c0,.04,0,.07.01.1Z"/>
  <path class="st4" d="M445.17,95.58s-.04-.03-.05-.04c0,0,.01.02.02.03,0,0,.02,0,.03.01Z"/>
  <path class="st4" d="M429.43,170.82c-.35.08-.7.13-1.06.14.36-.01.72-.06,1.06-.14Z"/>
  <path class="st4" d="M423.07,167.8c-.23-.47-.39-.97-.47-1.49.08.52.24,1.02.47,1.49Z"/>
  <path class="st4" d="M442.46,87.57c.08,0,.16,0,.23.02-.01,0-.02-.01-.04-.01-.06-.01-.13-.01-.19,0Z"/>
  <path class="st4" d="M469.11,70.45s-.01-.07,0-.11c0,.04,0,.07,0,.11Z"/>
  <path class="st4" d="M473.18,173.24s-.06-.04-.09-.07c.03.03.06.05.09.07Z"/>
  <path class="st4" d="M472.96,172.96s.04.07.06.11c-.02-.03-.04-.07-.06-.11Z"/>
  <path class="st4" d="M473.27,173.3s.07.02.11.03c-.04,0-.07-.02-.11-.03Z"/>
  <path class="st4" d="M473.71,173.33c-.07.02-.14.02-.2.02.01,0,.03,0,.04,0,.05,0,.11-.01.16-.03Z"/>
  <path class="st4" d="M468.54,61.34s-.03-.09-.06-.13c.02.04.04.08.06.13Z"/>
  <path class="st4" d="M468.41,62.08c.08-.1.13-.21.15-.32-.03.12-.08.23-.15.32Z"/>
  <path class="st4" d="M497.66,156.7c-.21.49-.46.95-.75,1.39.29-.43.55-.9.75-1.39Z"/>
  <path class="st4" d="M301.15,360.15s-.01-.03-.01-.05c0,.02,0,.03.01.05Z"/>
  <path class="st4" d="M446.92,224.1c.09,0,.19.02.27.07-.09-.05-.18-.07-.27-.07Z"/>
  <path class="st4" d="M469.23,70c-.07.08-.11.17-.12.27.02-.1.05-.2.12-.27Z"/>
  <path class="st4" d="M482.35,151.09c.16-.51.37-1,.62-1.46-.25.46-.46.95-.62,1.46Z"/>
  <path class="st4" d="M498.3,153.52h0c0,1.13-.23,2.2-.64,3.18.41-.98.64-2.05.64-3.18Z"/>
  <path class="st4" d="M478.11,76.16c-.04.07-.07.13-.12.2.04-.06.08-.13.12-.2Z"/>
  <path class="st4" d="M476.74,77.28c-.08.02-.16.05-.24.07.08-.02.16-.04.24-.07Z"/>
  <path class="st4" d="M477.16,77.11c-.07.04-.14.07-.21.1.07-.03.14-.07.21-.1Z"/>
  <path class="st4" d="M446.6,224.2c.07-.05.16-.08.25-.09-.09.01-.17.04-.25.09Z"/>
  <path class="st4" d="M459.37,77.04c-.07-.02-.15-.05-.22-.08.07.03.14.06.22.08Z"/>
  <path class="st4" d="M469.13,70.55s.03.06.05.09c-.02-.03-.03-.06-.05-.09Z"/>
  <path class="st4" d="M459.76,77.13c.05,0,.1.01.16.01-.11,0-.21-.03-.31-.05.05,0,.1.03.16.03Z"/>
  <path class="st4" d="M478.4,74.98c0-.11-.01-.22-.03-.32.02.13.03.27.02.4,0-.03,0-.05,0-.08Z"/>
  <path class="st4" d="M478.38,75.31c0,.07-.02.15-.03.22.02-.07.02-.15.03-.22Z"/>
  <path class="st4" d="M477.85,76.54c-.05.06-.09.12-.15.17.05-.05.1-.11.15-.17Z"/>
  <path class="st4" d="M188.2,176.37c.06.07.11.14.17.22-.05-.07-.11-.15-.17-.22Z"/>
  <path class="st4" d="M478.28,75.75c-.02.07-.05.15-.07.21.03-.07.05-.14.07-.21Z"/>
  <path class="st4" d="M477.53,76.86c-.06.05-.11.1-.18.14.06-.04.12-.09.18-.14Z"/>
  <path class="st4" d="M231.94,114.57c.02.09.04.18.04.27,0-.09-.03-.18-.04-.27Z"/>
  <path class="st4" d="M231.55,113.58c.05.07.1.15.14.22-.04-.08-.09-.15-.14-.22Z"/>
  <path class="st4" d="M231.99,115.11c0,.09,0,.18,0,.27,0-.09,0-.18,0-.27Z"/>
  <path class="st4" d="M231.79,114.06c.03.08.07.17.09.25-.02-.09-.06-.17-.09-.25Z"/>
  <path class="st4" d="M231.78,116.15c-.04.09-.07.17-.11.25.04-.08.08-.17.11-.25Z"/>
  <path class="st4" d="M231.94,115.64c-.02.09-.03.17-.06.26.03-.08.04-.17.06-.26Z"/>
  <path class="st4" d="M231.33,113.27c-.09-.1-.18-.19-.28-.28.12.11.23.23.32.35-.02-.02-.03-.05-.05-.07Z"/>
  <path class="st4" d="M266.98,112.65c-.01.1-.04.19-.06.29.02-.1.05-.19.06-.29Z"/>
  <path class="st4" d="M266.98,112.06c0,.1,0,.2,0,.29,0-.1,0-.2,0-.29Z"/>
  <path class="st4" d="M231.53,116.62c-.05.08-.11.16-.17.24.06-.08.12-.16.17-.24Z"/>
  <path class="st4" d="M266.86,113.23c-.03.1-.08.19-.12.28.04-.09.09-.18.12-.28Z"/>
  <path class="st4" d="M266.62,113.79c-.05.09-.12.17-.18.26.06-.09.13-.17.18-.26Z"/>
  <path class="st4" d="M218.64,129.08c-.09.04-.19.07-.28.1.09-.03.19-.06.28-.1Z"/>
  <path class="st4" d="M215.78,128.9c-.09-.05-.17-.12-.26-.18.09.06.17.13.26.18Z"/>
  <path class="st4" d="M186.94,175.51c-.08-.03-.17-.05-.25-.07.14.03.26.08.39.13-.05-.02-.09-.05-.14-.06Z"/>
  <path class="st4" d="M187.35,175.69c.08.04.16.09.23.14-.08-.05-.15-.09-.23-.14Z"/>
  <path class="st4" d="M216.32,129.16c-.09-.03-.19-.08-.28-.12.09.04.18.09.28.12Z"/>
  <path class="st4" d="M187.81,175.99c.07.06.14.12.2.18-.07-.06-.13-.12-.2-.18Z"/>
  <path class="st4" d="M219.16,128.78c-.08.06-.17.11-.26.16.09-.05.17-.1.26-.16Z"/>
  <path class="st4" d="M216.9,129.31c-.1-.02-.19-.04-.29-.07.1.02.19.05.29.07Z"/>
  <path class="st4" d="M266.88,111.47c.03.1.04.19.06.29-.02-.1-.03-.2-.06-.29Z"/>
  <path class="st4" d="M219.57,128.44s.08-.08.12-.13c-.09.1-.19.18-.29.27.06-.05.12-.09.17-.14Z"/>
  <path class="st4" d="M218.07,129.27c-.1.02-.19.03-.29.05.1-.01.2-.02.29-.05Z"/>
  <path class="st4" d="M217.49,129.35c-.1,0-.2,0-.29,0,.1,0,.2.01.29,0Z"/>
  <path class="st4" d="M235.23,85.25c.08-.06.17-.1.26-.14-.09.05-.18.09-.26.14Z"/>
  <path class="st4" d="M417.08,304.65s-.02-.05-.02-.08c0,.03.01.05.02.08Z"/>
  <path class="st4" d="M417.25,304.81c-.06,0-.1-.04-.14-.08,0,0,0,.01,0,.02.04.03.08.06.13.06Z"/>
  <path class="st4" d="M355.72,101.56s.01,0,.02,0c0,0-.01,0-.02,0Z"/>
  <path class="st4" d="M362.45,108.54c-.19,2.33-1.62,4.27-3.61,5.24,1.99-.97,3.43-2.91,3.61-5.24h0c.18-2.19-.79-4.21-2.4-5.51,1.61,1.3,2.58,3.32,2.4,5.51Z"/>
  <path class="st4" d="M358.39,113.98c-.54.22-1.1.37-1.7.44.59-.07,1.16-.22,1.7-.44Z"/>
  <path class="st4" d="M370.74,198.94c.09.03.17.06.26.09-.08-.04-.17-.07-.26-.09Z"/>
  <path class="st4" d="M355.36,114.44c.45.04.9.03,1.33-.02-.43.05-.88.06-1.33.02Z"/>
  <path class="st4" d="M370.25,198.83c.08,0,.17.02.25.04-.08-.02-.17-.03-.25-.04Z"/>
  <path class="st4" d="M368.82,199.08c.07-.04.15-.07.23-.1-.08.03-.15.07-.23.1Z"/>
  <path class="st4" d="M368.4,199.34c.07-.05.13-.1.2-.14-.07.04-.14.09-.2.14Z"/>
  <path class="st4" d="M369.76,198.82c.08,0,.16-.01.25-.01-.08,0-.16,0-.25.01Z"/>
  <path class="st4" d="M369.28,198.9c.08-.02.16-.04.24-.06-.08.01-.16.04-.24.06Z"/>
  <path class="st4" d="M234.77,85.63s-.03.03-.04.04c.08-.08.17-.15.26-.22-.07.06-.15.11-.22.18Z"/>
  <path class="st4" d="M237.52,84.77c.1.02.19.05.29.08-.1-.03-.19-.06-.29-.08Z"/>
  <path class="st4" d="M238.63,85.21c.09.06.17.13.25.2-.08-.07-.16-.14-.25-.2Z"/>
  <path class="st4" d="M238.09,84.93c.09.04.18.09.27.14-.09-.05-.18-.1-.27-.14Z"/>
  <path class="st4" d="M266.33,110.41c.06.08.11.17.16.25-.05-.08-.1-.17-.16-.25Z"/>
  <path class="st4" d="M265.92,109.97s-.03-.02-.04-.03c.09.07.16.16.23.24-.07-.07-.12-.14-.2-.21Z"/>
  <path class="st4" d="M236.34,84.78c.1-.02.2-.02.3-.03-.1.01-.2.01-.3.03Z"/>
  <path class="st4" d="M368.04,199.67c.05-.06.11-.12.16-.18-.06.05-.11.12-.16.18Z"/>
  <path class="st4" d="M266.66,110.92c.05.09.07.18.11.28-.04-.09-.07-.19-.11-.28Z"/>
  <path class="st4" d="M235.77,84.96c.09-.04.19-.06.29-.09-.1.03-.19.05-.29.09Z"/>
  <path class="st4" d="M349.86,110.61c-.35-.76-.55-1.6-.57-2.47.02.87.22,1.71.57,2.47Z"/>
  <path class="st4" d="M236.93,84.72c.1,0,.19.01.29.02-.1,0-.19-.02-.29-.02Z"/>
  <path class="st4" d="M458.94,76.87c-.07-.04-.13-.08-.2-.12.06.04.13.08.2.12Z"/>
  <path class="st4" d="M539.57,286.35c.07.1.14.21.2.32-.06-.11-.13-.22-.2-.32Z"/>
  <path class="st4" d="M539.95,287.01c.05.12.09.23.13.35-.04-.12-.08-.24-.13-.35Z"/>
  <path class="st4" d="M538.48,285.29c.11.07.21.15.31.23-.1-.08-.2-.16-.31-.23Z"/>
  <path class="st4" d="M539.08,285.77c.09.09.18.18.26.28-.08-.1-.17-.19-.26-.28Z"/>
  <path class="st4" d="M540.19,287.73c.03.13.05.26.06.39-.02-.13-.04-.26-.06-.39Z"/>
  <path class="st4" d="M540.29,288.5c0,.14,0,.27-.01.41.01-.14.02-.27.01-.41Z"/>
  <path class="st4" d="M266.99,366.41c.05-.12.11-.23.17-.35-.06.11-.12.23-.17.35Z"/>
  <path class="st4" d="M266.69,367.79c0-.12,0-.23.02-.35-.01.12-.02.23-.02.35Z"/>
  <path class="st4" d="M266.77,367.09c.03-.12.05-.24.09-.35-.04.12-.07.23-.09.35Z"/>
  <path class="st4" d="M503.67,494.67c-.01-.09-.05-.17-.11-.24.05.07.1.15.11.24Z"/>
  <path class="st4" d="M266.75,368.5c-.02-.12-.04-.23-.05-.35,0,.12.03.23.05.35Z"/>
  <path class="st4" d="M537.79,284.94c.12.05.23.1.35.16-.11-.06-.23-.11-.35-.16Z"/>
  <path class="st4" d="M537.17,284.73c-.1-.02-.2-.04-.31-.05.19.03.36.08.54.13-.08-.02-.15-.06-.23-.08Z"/>
  <path class="st4" d="M468.25,461.13c.27-.6.57-1.18.9-1.75-.33.56-.62,1.15-.9,1.75Z"/>
  <path class="st4" d="M466.34,470h0c0-1.57.17-3.08.48-4.55-.31,1.46-.49,2.98-.48,4.55Z"/>
  <path class="st4" d="M492.9,488.57c-1.71.77-3.55,1.29-5.47,1.51,1.92-.21,3.76-.73,5.47-1.51Z"/>
  <path class="st4" d="M478.61,451.02c1.42-.58,2.91-.98,4.47-1.18-1.56.2-3.05.61-4.47,1.18Z"/>
  <path class="st4" d="M474.4,453.4c.27-.21.56-.4.84-.59-.28.19-.57.38-.84.59Z"/>
  <path class="st4" d="M497.6,485.52c-.94.83-1.95,1.56-3.03,2.19,1.08-.63,2.09-1.36,3.03-2.19Z"/>
  <path class="st4" d="M504.07,445.58s-.03.05-.05.07c0,0,.02,0,.02-.01.01-.02.02-.03.02-.05Z"/>
  <path class="st4" d="M503.98,445.67s-.03,0-.05,0c.02,0,.03,0,.05,0Z"/>
  <path class="st4" d="M503.34,494.26s-.06-.02-.09-.02c.03,0,.06.01.09.02Z"/>
  <path class="st4" d="M503.43,494.31s.06.04.08.06c-.03-.02-.05-.04-.08-.06Z"/>
  <path class="st4" d="M503.07,494.24s.05,0,.08,0c-.02,0-.03,0-.05,0-.01,0-.02.01-.03.01Z"/>
  <path class="st4" d="M530.83,208.64c.04-.11.1-.22.15-.32-.06.11-.11.21-.15.32Z"/>
  <path class="st4" d="M532.75,206.66c.11-.05.22-.09.34-.13-.12.04-.23.08-.34.13Z"/>
  <path class="st4" d="M533.43,206.44c.12-.03.25-.05.38-.06-.13.01-.25.03-.38.06Z"/>
  <path class="st4" d="M446.51,224.29s.04-.06.08-.08c-.03.02-.05.05-.08.08Z"/>
  <path class="st4" d="M518.87,242.31c.07.09.14.18.22.26-.12-.13-.22-.28-.32-.43.04.05.06.11.1.16Z"/>
  <path class="st4" d="M518.57,241.83c-.06-.1-.11-.21-.15-.31.05.11.09.21.15.31Z"/>
  <path class="st4" d="M531.6,207.46c.08-.08.17-.16.26-.24-.09.08-.17.15-.26.24Z"/>
  <path class="st4" d="M518.29,241.18c-.03-.11-.06-.23-.09-.34.02.11.05.23.09.34Z"/>
  <path class="st4" d="M530.56,209.91c0,.11,0,.22,0,.33-.01-.18,0-.36.02-.53,0,.07-.02.13-.03.2Z"/>
  <path class="st4" d="M518.9,237.87c.08-.1.16-.19.25-.28-.09.09-.17.18-.25.28Z"/>
  <path class="st4" d="M485.34,449.67h0c1.97,0,3.88.31,5.67.89-1.79-.59-3.7-.9-5.67-.89Z"/>
  <path class="st4" d="M530.63,209.33c.02-.12.05-.23.08-.34-.03.11-.06.23-.08.34Z"/>
  <path class="st4" d="M531.16,208.02c.06-.1.14-.19.21-.29-.07.09-.14.19-.21.29Z"/>
  <path class="st4" d="M523.19,388.25c0,.09,0,.18-.03.26.02-.09.03-.17.03-.26Z"/>
  <path class="st4" d="M266.94,369.18c-.04-.11-.08-.22-.11-.34.03.11.07.23.11.34Z"/>
  <path class="st4" d="M523.07,388.75c-.04.09-.08.17-.14.25.06-.08.1-.16.14-.25Z"/>
  <path class="st4" d="M268.09,370.76c.11.08.22.16.33.23-.17-.1-.31-.22-.45-.35.04.04.08.08.12.12Z"/>
  <path class="st4" d="M267.69,370.37c-.08-.09-.16-.17-.23-.26.07.09.15.18.23.26Z"/>
  <path class="st4" d="M267.25,369.81c-.06-.1-.12-.2-.18-.31.05.11.11.21.18.31Z"/>
  <path class="st4" d="M518.52,238.46c.05-.11.11-.21.18-.31-.06.1-.12.2-.18.31Z"/>
  <path class="st4" d="M523.12,387.74c.03.08.06.16.07.25-.01-.09-.04-.17-.07-.25Z"/>
  <path class="st4" d="M518.14,239.8c0-.12.02-.23.05-.34-.02.11-.04.23-.05.34Z"/>
  <path class="st4" d="M518.27,239.11c.03-.11.07-.22.11-.33-.04.11-.08.22-.11.33Z"/>
  <path class="st4" d="M522.96,387.38c-.07-.1-.14-.18-.23-.26.12.1.2.23.27.36-.02-.03-.02-.07-.04-.1Z"/>
  <path class="st4" d="M518.15,240.49c-.01-.12-.02-.23-.02-.35,0,.12,0,.23.02.35Z"/>
  <path class="st4" d="M532.14,207.01c.1-.07.2-.13.3-.19-.1.06-.2.12-.3.19Z"/>
  <path class="st4" d="M176.3,317.55c-.09-.07-.18-.13-.27-.21.08.08.18.14.27.21Z"/>
  <path class="st4" d="M175.08,315.93c-.04-.12-.08-.23-.12-.36.03.12.07.24.12.36Z"/>
  <path class="st4" d="M175.79,317.09c-.08-.08-.15-.17-.22-.26.07.09.14.17.22.26Z"/>
  <path class="st4" d="M175.38,316.55c-.06-.1-.12-.2-.17-.31.05.11.11.21.17.31Z"/>
  <path class="st4" d="M262.52,297.26c0,.1,0,.19,0,.29,0-.1.01-.19,0-.29Z"/>
  <path class="st4" d="M262.43,296.69s0-.02-.01-.03c.02.08.03.16.05.24-.01-.07-.01-.14-.03-.21Z"/>
  <path class="st4" d="M178.72,318.24c.15-.01.29-.04.44-.07-.19.04-.38.06-.57.07.05,0,.09,0,.14,0Z"/>
  <path class="st4" d="M262.5,297.85c-.01.1-.04.2-.06.3.02-.1.05-.2.06-.3Z"/>
  <path class="st4" d="M187.85,338.21c.09-.07.19-.13.29-.16-.11.03-.21.09-.29.16Z"/>
  <path class="st4" d="M177.52,318.13c-.11-.03-.22-.06-.33-.1.11.04.22.07.33.1Z"/>
  <path class="st4" d="M178.2,318.23c-.11,0-.22-.01-.33-.03.11.02.22.02.33.03Z"/>
  <path class="st4" d="M176.88,317.9c-.1-.05-.21-.1-.31-.16.1.06.2.11.31.16Z"/>
  <path class="st4" d="M262.37,298.42c-.03.09-.08.18-.12.27.04-.09.08-.18.12-.27Z"/>
  <path class="st4" d="M301.21,359.75c.04-.05.1-.09.16-.11-.06.02-.12.06-.16.11Z"/>
  <path class="st4" d="M301.17,359.82s.02-.05.03-.07c-.02.02-.02.04-.03.07Z"/>
  <path class="st4" d="M301.41,359.63c.06-.02.13-.02.2,0-.07-.02-.14-.02-.2,0Z"/>
  <path class="st4" d="M446.38,224.71s0-.05,0-.07c0,.02,0,.04,0,.07Z"/>
  <path class="st4" d="M187.66,338.44c.03-.05.07-.09.11-.14-.04.04-.08.09-.11.14Z"/>
  <path class="st4" d="M446.44,224.37s0,0,0,.01c0,0,0-.01,0-.02,0,0,0,0,0,0Z"/>
  <path class="st4" d="M261.8,299.45c-.07.08-.14.15-.22.22.07-.07.15-.14.22-.22Z"/>
  <path class="st4" d="M262.14,298.96c-.05.08-.1.16-.16.24.05-.08.11-.15.16-.24Z"/>
  <polygon class="st4" points="301.13 359.9 301.13 359.9 301.13 359.9 301.13 359.9"/>
  <path class="st4" d="M260.86,300.19c-.2.1-.41.18-.62.24.22-.06.43-.14.62-.24Z"/>
  <path class="st4" d="M261.37,299.86c-.09.07-.2.14-.3.2.1-.06.21-.12.3-.2Z"/>
  <path class="st4" d="M234.11,443.51s-.09,0-.13,0c.02,0,.04.01.06.01.03,0,.05,0,.08,0Z"/>
  <path class="st4" d="M233.6,493.61s.01-.02.02-.03c0,0-.01,0-.02.01,0,0,0,.01,0,.02Z"/>
  <path class="st4" d="M233.81,462.18c.43-1.46.98-2.85,1.67-4.14-.69,1.29-1.25,2.68-1.67,4.14Z"/>
  <path class="st4" d="M233.82,493.48s.05-.01.08,0c-.03,0-.05,0-.08,0Z"/>
  <path class="st4" d="M233.72,443.4s-.04-.04-.06-.07c.02.02.04.05.06.07Z"/>
  <path class="st4" d="M234.16,493.58c-.06-.06-.14-.09-.22-.1.08.01.16.04.22.1Z"/>
  <path class="st4" d="M500.08,456.99c-2.34-2.99-5.48-5.26-9.07-6.43,3.59,1.17,6.72,3.44,9.07,6.43Z"/>
  <path class="st4" d="M233.75,493.5s-.04.02-.06.03c.02-.01.04-.03.06-.03Z"/>
  <path class="st4" d="M497.6,485.52c.94-.83,1.8-1.75,2.58-2.76-.77,1-1.64,1.93-2.58,2.76Z"/>
  <path class="st4" d="M472.56,454.98c-.61.59-1.19,1.22-1.73,1.89.53-.67,1.11-1.3,1.73-1.89Z"/>
  <path class="st4" d="M233.8,443.45s.05.03.08.04c-.03,0-.06-.02-.08-.04Z"/>
  <path class="st4" d="M504.48,469.86c.02,4.9-1.6,9.39-4.31,12.9,2.71-3.51,4.33-8.01,4.31-12.9h0c-.02-4.9-1.67-9.38-4.4-12.87,2.73,3.49,4.38,7.98,4.4,12.87Z"/>
  <path class="st4" d="M233.57,443.16s.02.06.03.09c-.02-.03-.03-.06-.03-.09Z"/>
  <path class="st4" d="M249.59,312.03c0-.1-.01-.21-.01-.31,0,.1,0,.2.01.31Z"/>
  <path class="st4" d="M249.63,312.49c.03.14.07.28.12.42-.06-.18-.1-.35-.13-.53,0,.04,0,.07.01.11Z"/>
  <path class="st4" d="M194.63,330.06l1.9-.42c.33-.07.62-.2.9-.35-.28.15-.58.28-.9.35l-1.9.42Z"/>
  <path class="st4" d="M199.32,326.13c0-.24-.03-.47-.08-.71l-.28-1.29.28,1.29c.05.24.08.48.08.71Z"/>
  <path class="st4" d="M187.59,339.01s0,0,0,.01c-.01-.04-.01-.09-.02-.13,0,.04,0,.08,0,.11Z"/>
  <path class="st4" d="M250.82,309.27c.09-.07.17-.14.26-.2-.09.06-.18.13-.26.2Z"/>
  <path class="st4" d="M251.35,308.92c.1-.05.21-.11.32-.15-.11.04-.21.09-.32.15Z"/>
  <path class="st4" d="M250.37,309.7c.07-.08.13-.16.21-.23-.08.07-.14.15-.21.23Z"/>
  <path class="st4" d="M187.57,338.73s.02-.1.04-.14c-.02.05-.03.09-.04.14Z"/>
  <path class="st4" d="M249.61,311.4c.01-.1.03-.21.05-.31-.02.1-.04.21-.05.31Z"/>
  <path class="st4" d="M249.75,310.79c.03-.1.07-.2.11-.3-.04.1-.08.2-.11.3Z"/>
  <path class="st4" d="M250.01,310.21c.05-.09.1-.18.16-.27-.06.09-.11.18-.16.27Z"/>
  <path class="st4" d="M468.3,61s.06.06.09.09c-.02-.02-.03-.05-.05-.07,0,0-.02,0-.03-.02Z"/>
  <path class="st4" d="M116.46,483.89c-.21.17-.43.32-.65.48.22-.16.44-.31.65-.48Z"/>
  <path class="st4" d="M114.06,485.51c-.23.13-.48.24-.72.36.24-.12.49-.23.72-.36Z"/>
  <path class="st4" d="M118.43,481.93c-.16.2-.35.38-.52.57.18-.19.36-.37.52-.57Z"/>
  <path class="st4" d="M115.31,484.75c-.24.17-.51.31-.76.47.26-.15.52-.3.76-.47Z"/>
  <path class="st4" d="M121.11,475.88c-.03.21-.08.4-.11.61.04-.2.09-.4.11-.61Z"/>
  <path class="st4" d="M193.72,440.92s-.06.02-.09.02c.03,0,.06-.01.09-.02Z"/>
  <path class="st4" d="M120.87,477.19c-.06.22-.14.44-.21.66.07-.22.15-.43.21-.66Z"/>
  <path class="st4" d="M120.47,478.46c-.09.23-.2.45-.3.67.1-.22.21-.44.3-.67Z"/>
  <path class="st4" d="M119.93,479.68c-.12.24-.27.46-.4.69.14-.23.28-.45.4-.69Z"/>
  <path class="st4" d="M117.5,482.95c-.19.19-.39.36-.59.53.2-.18.41-.35.59-.53Z"/>
  <path class="st4" d="M119.28,452.77s-.08-.06-.11-.09c.01.01,0,.03.02.05.02.02.05.04.08.05Z"/>
  <path class="st4" d="M112.72,486.18c-.25.11-.51.2-.77.3.26-.1.52-.19.77-.3Z"/>
  <path class="st4" d="M194.46,492.71s.07.1.07.16c0-.06-.02-.12-.07-.16Z"/>
  <path class="st4" d="M194.04,440.63c-.02.06-.05.1-.09.15,0,0,.01,0,.01-.01.03-.04.06-.09.08-.13Z"/>
  <path class="st4" d="M193.8,440.89s.05-.03.07-.05c-.02.02-.04.04-.07.05Z"/>
  <path class="st4" d="M193.44,440.92s.07.01.1.02c-.03,0-.07,0-.1-.02Z"/>
  <path class="st4" d="M109.82,487.19c-.3.08-.62.13-.93.2.31-.06.63-.12.93-.2Z"/>
  <path class="st4" d="M111.31,486.74c-.28.1-.57.17-.86.26.29-.08.58-.16.86-.26Z"/>
  <path class="st4" d="M108.26,487.51c-.33.06-.68.09-1.02.13.34-.04.69-.07,1.02-.13Z"/>
  <path class="st4" d="M119.24,480.84c-.15.23-.32.44-.49.66.16-.22.34-.43.49-.66Z"/>
  <path class="st4" d="M115.21,441.64c-.11.17-.24.34-.36.51.12-.17.25-.33.36-.51Z"/>
  <path class="st4" d="M115.83,440.54c-.08.17-.18.33-.27.49.09-.16.19-.32.27-.49Z"/>
  <path class="st4" d="M116.32,439.39c-.06.18-.15.35-.22.52.07-.18.16-.35.22-.52Z"/>
  <path class="st4" d="M113.64,443.65c-.13.14-.28.27-.42.4.14-.13.29-.26.42-.4Z"/>
  <path class="st4" d="M114.48,442.68c-.13.17-.28.32-.42.48.14-.16.29-.31.42-.48Z"/>
  <path class="st4" d="M121.19,474.52h0c0,.21-.03.42-.04.63.01-.21.04-.42.04-.63Z"/>
  <path class="st4" d="M119.13,452.59s0-.06,0-.09c0,.03,0,.06,0,.09Z"/>
  <path class="st4" d="M116.68,438.18c-.05.21-.12.4-.18.61.06-.2.13-.4.18-.61Z"/>
  <path class="st4" d="M116.9,436.94c-.02.21-.07.42-.11.63.04-.21.09-.41.11-.63Z"/>
  <path class="st4" d="M116.97,435.66s0,0,0,0c0,.21-.02.41-.03.62.01-.2.04-.4.03-.61Z"/>
  <path class="st4" d="M106.7,447.67c-.22.06-.45.1-.67.15.22-.05.45-.09.67-.15Z"/>
  <path class="st4" d="M105.3,447.98c-.22.04-.45.06-.68.09.23-.03.46-.05.68-.09Z"/>
  <path class="st4" d="M108.04,447.24c-.21.08-.43.13-.64.2.21-.07.43-.13.64-.2Z"/>
  <path class="st4" d="M112.7,444.54c-.15.13-.31.24-.46.36.15-.12.31-.23.46-.36Z"/>
  <path class="st4" d="M103.84,448.17c-.23.02-.47.02-.71.03.24-.01.48-.01.71-.03Z"/>
  <path class="st4" d="M109.32,446.71c-.17.08-.36.15-.54.22.18-.08.36-.14.54-.22Z"/>
  <path class="st4" d="M111.66,445.35c-.18.12-.36.23-.55.35.18-.12.37-.23.55-.35Z"/>
  <path class="st4" d="M110.53,446.08c-.17.1-.35.18-.52.27.17-.09.35-.18.52-.27Z"/>
  <path class="st4" d="M194.32,492.65s.05.01.07.02c-.02,0-.03-.03-.06-.03,0,0,0,0-.01,0Z"/>
  <path class="st4" d="M559.12,541.37c-.06.01-.11.02-.17.03.06,0,.12-.02.17-.03Z"/>
  <path class="st4" d="M559.43,541.27c-.05.02-.1.04-.16.06.05-.02.1-.04.16-.06Z"/>
  <path class="st4" d="M560.42,539.79c0-.06,0-.12,0-.18,0,.09,0,.17,0,.26,0-.03,0-.05.01-.08Z"/>
  <path class="st4" d="M560.39,540.05c0,.05-.02.1-.04.16.01-.05.03-.1.04-.16Z"/>
  <path class="st4" d="M560.3,540.36c-.02.05-.04.1-.07.15.02-.05.05-.1.07-.15Z"/>
  <path class="st4" d="M160.79,481.53c-.81-1.01-1.54-2.09-2.16-3.25.62,1.16,1.34,2.25,2.16,3.25Z"/>
  <path class="st4" d="M428.87,446.63s-.04,0-.06,0c.02,0,.04,0,.05,0,0,0,0,0,0,0Z"/>
  <path class="st4" d="M428.6,446.56s-.06-.06-.08-.1c.02.04.05.07.08.1Z"/>
  <path class="st4" d="M559.95,540.9s-.08.08-.12.11c.04-.04.08-.07.12-.11Z"/>
  <path class="st4" d="M610.33,477.02c-.06,0-.12.01-.18.04.06-.02.12-.03.18-.04Z"/>
  <path class="st4" d="M610.51,477c.06,0,.12.02.18.04-.06-.01-.12-.03-.18-.04Z"/>
  <path class="st4" d="M609.77,477.28c.06-.06.13-.09.2-.13-.04.03-.09.04-.14.07-.02.02-.04.04-.06.06Z"/>
  <path class="st4" d="M602.47,468.47c-.06-.06-.1-.14-.09-.23,0,.09.04.17.09.23Z"/>
  <path class="st4" d="M602.69,468.56s-.07-.03-.11-.04c.04.02.06.05.11.05,0,0,0,0,0,0Z"/>
  <path class="st4" d="M611.04,477.19c-.05-.04-.1-.08-.16-.11.06.03.11.07.16.11Z"/>
  <path class="st4" d="M560.06,540.78s.06-.09.09-.13c-.03.05-.06.09-.09.13Z"/>
  <path class="st4" d="M428.99,446.6s.02,0,.02,0c0,0-.02,0-.02,0Z"/>
  <path class="st4" d="M559.71,541.11s-.09.06-.13.09c.05-.03.09-.06.13-.09Z"/>
  <path class="st4" d="M194.91,471.39c-.24,1.39-.6,2.73-1.07,4,.48-1.27.84-2.61,1.07-4Z"/>
  <path class="st4" d="M189.39,452.86c1.9,1.98,3.4,4.36,4.41,7.01-1.01-2.65-2.51-5.04-4.41-7.01Z"/>
  <path class="st4" d="M195.02,464.72c.11.8.18,1.6.2,2.42-.02-.82-.09-1.62-.2-2.42Z"/>
  <path class="st4" d="M186.89,484.8c2.56-1.94,4.69-4.52,6.15-7.54-1.46,3.02-3.59,5.6-6.15,7.54Z"/>
  <path class="st4" d="M171.32,447.55c1.25-.32,2.55-.5,3.87-.55-1.32.05-2.62.23-3.87.55Z"/>
  <path class="st4" d="M158.63,478.28c-.62-1.16-1.14-2.38-1.54-3.66.4,1.28.92,2.51,1.54,3.66Z"/>
  <path class="st4" d="M162.95,452.12c1.43-1.31,3.03-2.41,4.76-3.25-1.73.84-3.33,1.94-4.76,3.25Z"/>
  <path class="st4" d="M156.15,466.41c.37-5.02,2.38-9.51,5.43-12.9-3.05,3.39-5.06,7.88-5.43,12.9h0c-.16,2.15,0,4.25.42,6.25-.43-2-.58-4.09-.42-6.25Z"/>
  <path class="st4" d="M187.83,451.4c.49.41.96.85,1.41,1.31-.45-.46-.92-.9-1.41-1.31Z"/>
  <path class="st4" d="M335.34,493.72c.09,0,.19.04.26.11-.07-.07-.16-.11-.26-.11Z"/>
  <path class="st4" d="M335.71,494.09c0-.1-.05-.19-.11-.26.07.07.11.16.11.26Z"/>
  <path class="st4" d="M387.37,533.85s-.08.05-.13.07c.01,0,.03,0,.04-.01.03-.02.06-.04.09-.06Z"/>
  <path class="st4" d="M386.82,533.9s-.05-.03-.07-.06c.02.02.05.04.07.06Z"/>
  <path class="st4" d="M428.45,446.3c0,.05.02.1.05.14-.03-.04-.04-.09-.05-.14Z"/>
  <path class="st4" d="M387.15,533.95s-.06.01-.09.01c.03,0,.06,0,.09-.01Z"/>
  <path class="st4" d="M386.89,533.93s.06.02.09.02c-.03,0-.06-.01-.09-.02Z"/>
  <path class="st4" d="M335.07,493.83c.07-.07.16-.11.26-.11,0,0,0,0,0,0-.1,0-.19.04-.26.11Z"/>
  <path class="st4" d="M428.65,446.58s.05.03.08.04c-.03,0-.05-.02-.08-.04Z"/>
  <path class="st4" d="M106.65,487.72c-.34.03-.69.03-1.04.04.35-.01.69-.02,1.04-.04Z"/>
  <path class="st4" d="M174.72,233.91c-.05-.09-.09-.17-.13-.27.04.09.08.18.13.27Z"/>
  <path class="st4" d="M187.92,251.57s-.03.02-.05.03c.01-.01.03-.01.05-.03,0,0,0,0,0,0Z"/>
  <path class="st4" d="M188.73,177.32c.03.09.05.17.07.26-.02-.09-.04-.17-.07-.26Z"/>
  <path class="st4" d="M175.03,234.38c-.06-.07-.12-.15-.17-.23.05.08.11.15.17.23Z"/>
  <path class="st4" d="M187.53,251.7c-.05,0-.1-.02-.16-.04.05.02.1.04.16.04Z"/>
  <path class="st4" d="M188.51,176.82c.04.08.08.16.12.24-.04-.08-.08-.16-.12-.24Z"/>
  <path class="st4" d="M187.14,251.52c.05.06.11.1.18.13-.07-.03-.13-.08-.18-.13Z"/>
  <path class="st4" d="M187.63,251.69s.07,0,.11-.02c-.03.01-.07.01-.11.02Z"/>
  <path class="st4" d="M174.51,233.38c-.03-.1-.06-.2-.08-.3.02.1.05.2.08.3Z"/>
  <path class="st4" d="M176.97,235.47c-.09-.01-.19-.02-.28-.04.09.02.18.03.28.04Z"/>
  <path class="st4" d="M175.43,234.79c-.07-.06-.14-.12-.21-.19.07.07.14.13.21.19Z"/>
  <path class="st4" d="M177.4,235.5c.13,0,.25-.01.37-.03-.16.02-.32.02-.48.02.04,0,.07,0,.11,0Z"/>
  <path class="st4" d="M188.86,178.39c0,.1-.02.19-.04.29.02-.1.03-.19.04-.29Z"/>
  <path class="st4" d="M175.9,235.11c-.08-.05-.17-.09-.25-.15.08.06.16.1.25.15Z"/>
  <path class="st4" d="M176.41,235.34c-.09-.03-.18-.06-.27-.1.09.04.18.07.27.1Z"/>
  <path class="st4" d="M188.85,177.84c.01.09.02.19.02.28,0-.09,0-.19-.02-.28Z"/>
  <path class="st5" d="M457.68,75.07c0,.08.03.15.04.22.02.08.03.15.06.23.02.07.05.14.09.21.03.07.06.14.1.2.04.07.08.13.12.19.04.06.09.12.14.18.05.06.1.11.16.16.05.05.11.11.17.15.06.05.12.09.19.13.06.04.13.08.2.12.07.04.14.06.21.09.07.03.14.06.22.08.08.02.16.04.24.05.1.02.21.04.31.05,6.07.29,11.47.37,16.18.26.14,0,.27-.02.39-.05.08-.02.16-.04.24-.07.07-.02.14-.04.21-.07.07-.03.14-.07.21-.1.07-.04.13-.07.2-.11.06-.04.12-.09.18-.14.06-.05.12-.1.17-.15.05-.05.1-.11.15-.17.05-.06.1-.11.14-.18.04-.06.08-.13.12-.2.04-.07.07-.13.1-.2.03-.07.05-.14.07-.21.02-.07.05-.15.06-.22.02-.07.02-.15.03-.22,0-.08.02-.17.02-.25,0-.13,0-.26-.02-.4l-.03-.18c-.2-1.53-1.41-2.73-2.95-2.91l-5.82-.67c-.11-.01-.19-.06-.27-.12,0,0-.02,0-.03-.01-.01,0-.01-.02-.02-.03-.03-.03-.05-.06-.07-.09-.02-.03-.03-.06-.05-.09-.01-.03-.02-.06-.02-.1,0-.04-.01-.07,0-.11,0-.01,0-.03,0-.04,0-.01.01-.02.01-.03.02-.1.05-.19.12-.27l3.95-4.29c.09-.1.2-.19.31-.28,2.41-1.81,4.34-3.57,5.77-5.28,1.59-1.9,1.46-3.7-.42-5.12-.25-.19-.52-.33-.81-.43-.86-.29-2.34-.46-4.43-.5-5.99-.11-9.97-.09-11.96.06-3.31.26-3.48,4.82-.13,5.48,2.58.51,4.74.91,6.47,1.21.12.02.23.08.32.16.01,0,.03,0,.03.02.02.02.03.05.05.07.04.04.07.08.09.12.02.04.04.08.06.13.02.05.03.09.04.14,0,.05,0,.1,0,.15,0,.03,0,.06,0,.09,0,.01-.01.02-.02.04-.03.11-.07.23-.15.32-2.99,3.42-6.17,6.71-9.53,9.87-.69.65-1.09,1.51-1.21,2.56-.01.11,0,.21,0,.31,0,.08,0,.16.01.24Z"/>
  <path class="st5" d="M458.38,76.47c-.05-.05-.11-.1-.16-.16.05.06.1.11.16.16Z"/>
  <path class="st5" d="M457.87,75.73c-.03-.07-.06-.14-.09-.21.02.07.05.14.09.21Z"/>
  <path class="st5" d="M457.72,75.29c-.02-.07-.03-.15-.04-.22,0,.08.03.15.04.22Z"/>
  <path class="st5" d="M458.09,76.12c-.04-.06-.09-.12-.12-.19.04.07.08.13.12.19Z"/>
  <path class="st5" d="M468.58,61.63s0,.08-.02.12c0-.01.01-.02.02-.04,0-.03,0-.06,0-.09Z"/>
  <path class="st5" d="M458.74,76.75c-.06-.04-.13-.08-.19-.13.06.05.12.09.19.13Z"/>
  <path class="st5" d="M468.39,61.09s.07.08.09.12c-.03-.05-.06-.08-.09-.12Z"/>
  <path class="st5" d="M469.1,70.34s0-.05.01-.07c0,.01-.01.02-.01.03,0,.01,0,.03,0,.04Z"/>
  <path class="st5" d="M469.24,70.73s-.05-.06-.07-.09c.02.03.04.06.07.09Z"/>
  <path class="st5" d="M478.4,75.06c0,.08,0,.17-.02.25,0-.08.02-.17.02-.25Z"/>
  <path class="st5" d="M478.35,75.53c-.02.08-.04.15-.06.22.02-.07.05-.15.06-.22Z"/>
  <path class="st5" d="M469.3,70.78c.08.06.17.11.27.12-.1-.01-.19-.06-.27-.12Z"/>
  <path class="st5" d="M468.3,61c-.09-.07-.2-.13-.32-.16.12.02.23.08.32.16Z"/>
  <path class="st5" d="M468.58,61.48s-.02-.09-.04-.14c.02.04.03.09.04.14Z"/>
  <path class="st5" d="M478.21,75.97c-.03.07-.07.13-.1.2.04-.07.07-.13.1-.2Z"/>
  <path class="st5" d="M469.11,70.45s.01.07.02.1c-.01-.03-.02-.06-.02-.1Z"/>
  <path class="st5" d="M476.42,77.37s.05-.01.07-.02c-.13.03-.26.05-.39.05.11,0,.22-.01.32-.03Z"/>
  <path class="st5" d="M459.15,76.96c-.07-.03-.15-.06-.21-.09.07.04.14.06.21.09Z"/>
  <path class="st5" d="M459.61,77.09c-.08-.01-.16-.03-.24-.05.08.02.16.04.24.05Z"/>
  <path class="st5" d="M476.95,77.21c-.07.03-.14.05-.21.07.07-.02.14-.04.21-.07Z"/>
  <path class="st5" d="M477.7,76.71c-.05.05-.11.1-.17.15.06-.05.12-.1.17-.15Z"/>
  <path class="st5" d="M477.99,76.36c-.04.06-.09.12-.14.18.05-.06.1-.11.14-.18Z"/>
  <path class="st5" d="M477.35,77c-.06.04-.13.08-.2.11.07-.04.13-.07.2-.11Z"/>
  <path class="st5" d="M457.67,74.51c0,.05-.01.1-.01.16,0,.05,0,.1,0,.16,0-.1,0-.21,0-.31Z"/>
  <path class="st23" d="M400.18,126.93c10.69,11.15,23.64,16.36,38.84,15.63,15.17-.73,27.21-6.91,36.14-18.56,1.78-2.32,1.54-5.71-2.25-5.2-2.93.39-6.21,1.66-9.39,2.04-10.59,1.29-20.13-.78-28.63-6.21-11.43-7.32-18.73-19.61-18.07-33.11.29-5.9,1.2-10.55,2.75-13.94,1.57-3.44,2.79-6.14,3.67-8.11.51-1.15.07-2.51-1.03-3.15-1.87-1.1-7.16.99-8.83,1.82-17.1,8.51-27.03,24.92-24.92,44.12,1.03,9.37,4.93,17.59,11.72,24.67Z"/>
  <path class="st0" d="M292.04,83.59c.84.63,1.63.99,2.36,1.09.31.05.62.02.92-.08,6.8-2.23,11.04-3.57,12.71-4.03,7.99-2.2,16.44-3.7,25.34-4.51,8.89-.8,17.47-.84,25.74-.11,1.73.15,6.13.71,13.22,1.68.31.04.62.01.92-.09.71-.23,1.42-.73,2.13-1.5.21-.23.33-.52.35-.83.12-2.46-.77-3.85-2.67-4.17-13.45-2.33-26.89-2.88-40.3-1.67s-26.53,4.17-39.35,8.88c-1.81.66-2.43,2.19-1.87,4.58.07.3.25.57.5.76Z"/>
  <path class="st23" d="M271.09,91.11c.02-.79.48-1.5,1.18-1.87,2.24-1.14,3.72-2.81,4.44-5,1.26-3.82-.81-8.22-4.34-9.9-5.29-2.51-9.45,1.03-11.54,5.65-.31.67-.93,1.14-1.66,1.27l-12.62,2.18,24.18,21.43.36-13.76Z"/>
  <path class="st25" d="M249.85,114.08c2.82,2.55,6.18,6.02,9.53,7.92,8.88,5.03,17.82-2.85,14.53-12.47-.27-.81-1.33-2.36-3.18-4.66l-24.18-21.43c-1.23-1.09-2.68-2.34-4.33-3.75-10.44-8.87-22.25,6.88-12.11,16.38,2.44,2.29,9.02,8.29,19.74,18.01ZM234.57,85.83l.16-.16s.03-.03.04-.04c.07-.07.14-.12.22-.18.08-.07.16-.14.25-.2.08-.06.17-.1.26-.14.09-.05.18-.1.27-.14.09-.04.19-.06.29-.09.09-.03.19-.06.28-.08.1-.02.2-.02.3-.03.1-.01.2-.03.29-.03.1,0,.19.01.29.02.1,0,.2,0,.3.03.1.02.19.05.29.08.1.03.19.05.29.08.09.04.18.09.27.14.09.05.18.08.27.14.09.06.17.13.25.2.07.06.15.11.22.17.01.01.03.03.04.04,4.45,4.09,8.9,8.16,13.33,12.21,4.45,4.03,8.92,8.06,13.41,12.11.01.01.03.02.04.03.07.06.13.14.2.21.07.08.15.15.22.23.06.08.11.17.16.25.06.09.12.17.16.26.05.09.07.18.11.28.04.09.08.18.11.28.03.1.04.19.06.29.02.1.04.19.05.29,0,.1,0,.2,0,.29,0,.1,0,.2,0,.3-.01.1-.04.19-.06.29-.02.1-.03.2-.06.3-.03.1-.08.19-.12.28-.04.09-.07.19-.12.28-.05.09-.12.17-.18.26-.05.08-.1.16-.16.24-.01.01-.02.03-.03.04l-.15.18c-1.09,1.26-2.95,1.51-4.33.58-2.01-1.35-3.54-2.49-4.57-3.42-3.26-2.92-6.43-5.78-9.51-8.59-3.09-2.8-6.24-5.69-9.45-8.66-1.03-.93-2.31-2.34-3.84-4.22-1.06-1.28-.99-3.16.17-4.37Z"/>
  <path class="st5" d="M442.93,87.7s.06.06.09.09c.03.03.06.06.08.1.02.04.03.07.05.11.02.04.03.09.04.14,0,.01.01.02.01.04,0,.07,0,.13,0,.2-.29,1.58-3.7,4.57-6.92,7.99-1.65,1.75-1.49,4.51,1.79,4.45.55,0,4.31.11,11.26.35,1.1.04,2.04-.78,2.14-1.87.28-2.96-3.55-3.43-6.04-3.6-.1,0-.19-.06-.26-.12,0,0-.02,0-.03-.01,0,0-.01-.02-.02-.03-.02-.03-.04-.05-.06-.08-.02-.03-.03-.05-.04-.08-.01-.03-.02-.06-.02-.09,0-.03-.01-.07-.01-.1,0-.01,0-.02,0-.04,0-.01.01-.02.01-.03.01-.09.05-.19.12-.26,3.21-3.49,5.29-5.8,6.24-6.93,3.04-3.59.6-5.43-2.92-5.54-5.6-.19-8.51-.28-8.74-.28-1.73.02-2.84.45-3.33,1.3-2.27,3.93,4.04,4.38,6.11,4.17.06,0,.13,0,.19,0,.01,0,.02.01.04.01.05.01.09.03.13.05.04.02.08.03.11.06Z"/>
  <path class="st5" d="M443.2,88.15c.01.08.02.15,0,.23.01-.06.01-.13,0-.2,0-.01,0-.02-.01-.04Z"/>
  <path class="st5" d="M445.17,95.58c.07.06.16.11.26.12-.1,0-.19-.06-.26-.12Z"/>
  <path class="st5" d="M443.15,88.01s-.03-.08-.05-.11c.02.04.03.08.05.11Z"/>
  <path class="st5" d="M442.69,87.59s.09.03.13.05c-.04-.02-.08-.04-.13-.05Z"/>
  <path class="st5" d="M445.12,95.54s-.04-.05-.06-.08c.02.03.04.06.06.08Z"/>
  <path class="st5" d="M444.98,95.18s0-.04,0-.07c0,.01-.01.02-.01.03,0,.01,0,.02,0,.04Z"/>
  <path class="st5" d="M444.99,95.28s.01.06.02.09c-.01-.03-.02-.06-.02-.09Z"/>
  <path class="st5" d="M442.93,87.7s.06.06.09.09c-.03-.03-.06-.07-.09-.09Z"/>
  <circle class="st23" cx="492.1" cy="90.4" r="7.15" transform="translate(-7.61 115.48) rotate(-13.28)"/>
  <path class="st12" d="M238.24,94.42c3.21,2.97,6.36,5.86,9.45,8.66,3.08,2.81,6.25,5.67,9.51,8.59,1.03.93,2.56,2.07,4.57,3.42,1.38.93,3.24.68,4.33-.58l.15-.18c.07-.09.13-.18.19-.28.06-.09.13-.17.18-.26.05-.09.08-.19.12-.28.04-.09.09-.18.12-.28.03-.1.04-.2.06-.3.02-.1.05-.19.06-.29.01-.1,0-.2,0-.3,0-.1,0-.2,0-.29,0-.1-.03-.19-.05-.29-.02-.1-.03-.2-.06-.29-.03-.1-.07-.19-.11-.28-.04-.09-.07-.19-.11-.28-.05-.09-.11-.17-.16-.26-.05-.08-.1-.17-.16-.25-.06-.08-.14-.15-.22-.23-.08-.08-.15-.17-.23-.24-4.49-4.05-8.96-8.08-13.41-12.11-4.43-4.05-8.88-8.12-13.33-12.21-.08-.08-.17-.14-.26-.21-.08-.07-.16-.14-.25-.2-.09-.05-.18-.09-.27-.14-.09-.05-.18-.1-.27-.14-.09-.04-.19-.06-.29-.08-.1-.03-.19-.06-.29-.08-.1-.02-.2-.02-.3-.03-.1,0-.19-.02-.29-.02-.1,0-.2.02-.29.03-.1.01-.2.01-.3.03-.1.02-.19.06-.28.08-.1.03-.19.05-.29.09-.09.04-.18.09-.27.14-.09.05-.18.09-.26.14-.09.06-.16.13-.25.2-.09.07-.18.14-.26.22l-.16.16c-1.16,1.21-1.23,3.09-.17,4.37,1.53,1.88,2.81,3.29,3.84,4.22Z"/>
  <path class="st12" d="M266.77,111.2c.04.09.08.18.11.28-.03-.1-.07-.19-.11-.28Z"/>
  <path class="st12" d="M266.92,112.94c-.02.1-.03.2-.06.3.03-.1.04-.2.06-.3Z"/>
  <path class="st12" d="M234.99,85.45c.08-.07.16-.14.25-.2-.09.06-.16.13-.25.2Z"/>
  <path class="st12" d="M266.5,110.66c.06.09.12.17.16.26-.05-.09-.11-.17-.16-.26Z"/>
  <path class="st12" d="M235.49,85.1c.09-.05.18-.1.27-.14-.09.04-.18.09-.27.14Z"/>
  <path class="st12" d="M266.98,112.35c0,.1,0,.2,0,.3.01-.1,0-.2,0-.3Z"/>
  <path class="st12" d="M238.36,85.07c.09.05.18.08.27.14-.09-.05-.18-.09-.27-.14Z"/>
  <path class="st12" d="M236.05,84.87c.09-.03.19-.07.28-.08-.1.02-.19.06-.28.08Z"/>
  <path class="st12" d="M237.22,84.74c.1,0,.2,0,.3.03-.1-.02-.2-.02-.3-.03Z"/>
  <path class="st12" d="M266.74,113.51c-.04.09-.07.19-.12.28.05-.09.08-.19.12-.28Z"/>
  <path class="st12" d="M236.63,84.75c.1-.01.2-.03.29-.03-.1,0-.2.02-.29.03Z"/>
  <path class="st12" d="M266.28,114.29c.06-.08.11-.16.16-.24-.06.09-.12.19-.19.28.01-.01.02-.03.03-.04Z"/>
  <path class="st12" d="M266.12,110.18c.07.08.15.15.22.23-.06-.08-.14-.15-.22-.23Z"/>
  <path class="st12" d="M266.93,111.77c.02.1.04.19.05.29,0-.1-.03-.19-.05-.29Z"/>
  <path class="st12" d="M237.8,84.85c.1.03.19.05.29.08-.09-.04-.19-.06-.29-.08Z"/>
  <path class="st12" d="M239.1,85.58c-.07-.07-.15-.11-.22-.17.09.07.18.13.26.21-.01-.01-.03-.03-.04-.04Z"/>
  <path class="st22" d="M189.73,144.25c-.35-4.9,2.81-8.32,6.35-11.37,1.2-1.03,2.31-1.09,3.33-.16,2.14,1.95,3.94,3.49,5.39,4.62,3.45,2.68,7.77-.43,4.78-4.26-2.35-3.01-4.18-5.74-5.48-8.21.37-2.59,2.44-4.48,4.82-2.34,1.93,1.73,4.02,3.71,6.29,5.94.1.09.2.17.31.25.08.06.17.13.26.18.09.05.18.09.27.14.09.04.18.09.28.12.09.03.19.06.29.08.1.02.19.05.29.07.1.02.2.02.3.03.1,0,.2.01.29,0,.1,0,.2-.02.29-.03.1-.01.2-.02.29-.05.1-.02.19-.05.28-.09.09-.03.19-.06.28-.1.09-.04.18-.09.27-.14.09-.05.17-.1.26-.16.08-.06.16-.13.24-.2.1-.09.2-.17.29-.27l1.03-1.17c1.02-1.15,1.06-2.87.1-4.07-1.86-2.33-6.84-6.18-3.12-9.5,1.03-.92,2.59-.92,3.63-.01l4.55,3.99c1.35,1.19,3.36,1.2,4.72.03l.43-.37c.12-.11.23-.22.33-.34.06-.08.12-.16.17-.24.05-.07.1-.14.14-.22.04-.08.08-.17.11-.25.03-.08.07-.17.1-.25.03-.08.04-.17.06-.26.02-.09.04-.18.05-.27,0-.09,0-.18,0-.27,0-.09,0-.18,0-.27,0-.09-.03-.18-.04-.27-.02-.09-.03-.17-.06-.26-.02-.09-.06-.17-.09-.25-.03-.09-.07-.17-.11-.26-.04-.08-.09-.15-.14-.22-.05-.08-.11-.17-.17-.25-.1-.12-.2-.24-.32-.35l-7.12-6.26c-.86-.75-1.19-1.94-.86-3.04.94-3.05-.09-7.29-4.13-6.62-.48.08-.93.31-1.27.65-11.38,11.31-22.28,22.59-32.7,33.83-3.41,3.69-5,8.18-4.77,13.47,3.25.49,6.43.23,9.53-.77Z"/>
  <path class="st22" d="M231.38,113.34c.06.08.12.16.17.25-.05-.08-.11-.17-.17-.25Z"/>
  <path class="st22" d="M219.4,128.58c-.08.07-.16.14-.24.2.09-.06.16-.13.24-.2Z"/>
  <path class="st22" d="M231.89,114.31c.02.09.04.17.06.26-.02-.09-.03-.17-.06-.26Z"/>
  <path class="st22" d="M215.34,128.59c.06.05.12.08.18.13-.1-.08-.21-.15-.31-.25.04.04.08.08.13.12Z"/>
  <path class="st22" d="M216.04,129.04c-.09-.04-.18-.08-.27-.14.09.05.18.09.27.14Z"/>
  <path class="st22" d="M231.68,113.81c.04.08.08.17.11.26-.03-.09-.07-.17-.11-.26Z"/>
  <path class="st22" d="M217.78,129.32c-.1.01-.19.03-.29.03.1,0,.2-.02.29-.03Z"/>
  <path class="st22" d="M217.19,129.34c-.1,0-.2-.01-.3-.03.1.02.2.02.3.03Z"/>
  <path class="st22" d="M216.61,129.25c-.1-.02-.19-.05-.29-.08.09.03.19.06.29.08Z"/>
  <path class="st22" d="M231.67,116.4c-.04.08-.09.15-.14.22.05-.07.1-.14.14-.22Z"/>
  <path class="st22" d="M218.36,129.18c-.09.03-.19.06-.28.09.1-.02.19-.05.28-.09Z"/>
  <path class="st22" d="M218.9,128.94c-.09.05-.18.1-.27.14.09-.04.18-.09.27-.14Z"/>
  <path class="st22" d="M231.31,116.93s.03-.05.05-.07c-.1.12-.21.24-.33.34.1-.08.19-.18.28-.27Z"/>
  <path class="st22" d="M231.88,115.9c-.03.09-.06.17-.1.25.03-.08.07-.17.1-.25Z"/>
  <path class="st22" d="M231.98,115.37c0,.09-.03.18-.05.27.02-.09.04-.18.05-.27Z"/>
  <path class="st22" d="M231.99,114.84c0,.09,0,.18,0,.27,0-.09,0-.18,0-.27Z"/>
  <path class="st23" d="M350.48,111.69c.24.34.52.66.82.94.3.29.64.55.99.78s.74.42,1.14.58c.6.24,1.25.39,1.93.45.45.04.9.03,1.33-.02.59-.07,1.16-.22,1.7-.44.15-.06.3-.13.44-.2,1.99-.97,3.43-2.91,3.61-5.24.18-2.19-.79-4.21-2.4-5.51-.51-.41-1.09-.76-1.72-1-.6-.24-1.25-.39-1.93-.45-.22-.02-.44-.02-.65-.02,0,0-.01,0-.02,0-.45,0-.88.06-1.3.15-1.69.37-3.14,1.38-4.07,2.77-.46.7-.79,1.49-.95,2.35-.04.21-.07.43-.09.65h0c-.02.22-.02.44-.02.66.02.87.22,1.71.57,2.47.17.38.38.74.62,1.08Z"/>
  <path class="st23" d="M354.42,101.71c.42-.09.86-.14,1.3-.15-.45,0-.88.06-1.3.15Z"/>
  <path class="st23" d="M349.31,107.48c-.02.22-.02.44-.02.66,0-.22,0-.44.02-.66h0Z"/>
  <path class="st23" d="M354.42,101.71c-1.69.37-3.14,1.38-4.07,2.77.93-1.39,2.38-2.4,4.07-2.77Z"/>
  <path class="st23" d="M358.84,113.78c-.14.07-.29.14-.44.2.15-.06.3-.13.44-.2Z"/>
  <path class="st23" d="M352.3,113.41c-.36-.23-.69-.49-.99-.78.3.29.64.55.99.78Z"/>
  <path class="st23" d="M349.4,106.83c.16-.86.49-1.65.95-2.35-.46.7-.79,1.49-.95,2.35Z"/>
  <path class="st23" d="M351.3,112.63c-.3-.29-.58-.6-.82-.94.24.34.52.66.82.94Z"/>
  <path class="st23" d="M353.43,113.99c-.4-.16-.78-.35-1.14-.58.36.23.74.42,1.14.58Z"/>
  <path class="st23" d="M358.33,102.03c.63.25,1.21.59,1.72,1-.51-.41-1.09-.76-1.72-1Z"/>
  <path class="st23" d="M358.33,102.03c-.6-.24-1.25-.39-1.93-.45-.22-.02-.44-.02-.65-.02.22,0,.43,0,.65.02.68.05,1.33.21,1.93.45Z"/>
  <path class="st10" d="M496.91,122.5c-.7,1.77-.36,3.3,1.03,4.57,7.26,6.68,13.68,14.04,19.27,22.09,5.59,8.05,10.25,16.64,13.97,25.78.71,1.74,2.02,2.59,3.92,2.56.33,0,.65-.11.92-.31,1.91-1.37,2.29-3.43,1.12-6.17-3.96-9.26-8.7-17.87-14.22-25.82-5.53-7.95-11.94-15.4-19.23-22.34-2.16-2.05-4.22-2.42-6.17-1.11-.27.18-.49.44-.61.75Z"/>
  <path class="st3" d="M271.8,158.05c13.53-15.51,30.63-24.23,51.3-26.16,4.57-.43,10.56-.13,17.99.88,4.31-.03,7.1-.48,8.37-1.37,1.77-1.25,3.67-2.4,5.72-3.45-32.71-11-68.2-1.33-90.52,24.6,1.29,3.35,3.67,5.19,7.14,5.5Z"/>
  <path class="st7" d="M204.8,137.34c-1.45-1.13-3.25-2.67-5.39-4.62-1.02-.93-2.13-.87-3.33.16-3.54,3.05-6.7,6.47-6.35,11.37.59,3.65,2.01,6.45,4.27,8.42,5.17,4.52,9.52,8.42,13.05,11.69.36.34.78.61,1.24.81,5.65,2.41,10.85,2.15,15.61-.8,2.03-1.25,4.67-4.05,7.9-8.4,4.48-6,9.92-12.43,16.94-18.64,3.49-3.09,7.33-5.3,11.5-6.61-3.19-6.53-15.52-5.02-20.98-2.86-6.24,2.48-13.68,6.21-19.95,5.02-.53-.11-2.66-1.36-6.39-3.76-2.73-1.75-5.67-3.17-8.82-4.25,1.3,2.47,3.13,5.2,5.48,8.21,2.99,3.83-1.33,6.94-4.78,4.26Z"/>
  <path class="st6" d="M349.46,131.4c-1.27.89-4.06,1.34-8.37,1.37,13.24,2.39,25.17,7.62,35.8,15.69,1.41-2.66,2.05-5.51,1.92-8.55-7.32-5.14-15.2-9.13-23.63-11.96-2.05,1.05-3.95,2.2-5.72,3.45Z"/>
  <path class="st20" d="M231.8,155.97c-3.23,4.35-5.87,7.15-7.9,8.4-4.76,2.95-9.96,3.21-15.61.8-.46-.2-.88-.47-1.24-.81-3.53-3.27-7.88-7.17-13.05-11.69-2.26-1.97-3.68-4.77-4.27-8.42-3.1,1-6.28,1.26-9.53.77.13,4.36,1.63,8,4.52,10.93,6.55,6.63,12.75,12.1,18.59,16.41,4.19,3.11,8.82,4.42,13.87,3.93,12.61-1.22,17.67-12.03,25.25-20.49,6.26-6.99,11.89-12.79,16.88-17.39,1.55-1.43,4.16-6.84.93-7.69-4.17,1.31-8.01,3.52-11.5,6.61-7.02,6.21-12.46,12.64-16.94,18.64Z"/>
  <path class="st21" d="M323.1,131.89c-20.67,1.93-37.77,10.65-51.3,26.16l-9.44,12.88.35.18c.26.14.6.06.76-.2,1.29-2.01,2.59-3.98,3.92-5.93,5.91-8.71,13.83-15.17,23.74-19.36,9.74-5.41,20.92-8.47,33.53-9.17,19.31-1.06,36.27,4.5,50.89,16.67,9.58,7.97,16.86,18.76,20.58,31.11,1.68,5.59,2.55,8.54,2.62,8.85,1.38,6.09,7,13.71,4.28,20.41-2.66,6.55-10.04,5.42-15.16,2.22-2.5-1.57-5.37-4.2-8.62-7.91-4,.37-7.53-.63-10.6-2.98-1.37-1.05-1.81-2.92-1.05-4.47l.04-.1c.05-.1.11-.2.17-.3.02-.03.04-.04.06-.07.05-.08.11-.14.17-.21.05-.06.11-.12.16-.18.06-.06.13-.11.2-.16.07-.05.13-.1.2-.14.07-.04.14-.08.21-.11.08-.04.15-.07.23-.1.08-.03.15-.05.23-.07.08-.02.16-.04.24-.06.08-.01.16-.02.25-.03.08,0,.16-.01.25-.01.08,0,.16.01.24.02.09,0,.17.02.25.04.08.02.15.04.23.07.09.03.17.06.26.09.03.01.06.02.08.03.1.05.2.11.3.17,3.94,2.61,7.75,2.45,11.44-.49,1.9-1.51,2.54-3.8,2.97-5.99.15-.73.48-1.25.99-1.58,1.53-.97,3.13-.48,4.8,1.46-1.33-1.8-2.71-2.98-4.15-3.54-.28-.11-.59-.13-.89-.05-20.01,5.13-35.78,13.5-53.94,24.01-.28.16-.51.38-.67.65-1.71,2.85-2.49,5.93-2.32,9.25,1.53-1.77,2.25-3.79,2.18-6.07,0-.27.08-.53.24-.74,1.09-1.46,2.37-1.76,3.85-.91,2.26,1.31,2.94,3.5,2.04,6.59-2.85,9.82-13.82,13.14-22.68,9.33-2.36-1.01-4.8-3.12-3.77-5.82l-1.27,2.72c-.15.33-.1.71.11.99l1.84,2.39c.1.14.25.24.41.31,4.93,1.99,9.33,5.06,13.2,9.22,6.75,7.26,7.05,16.18,5.91,25.6,8.5.48,16.94.2,25.31-.83,21.25-2.63,42.88-11.84,55.52-29.67,6.45-9.1,11.07-21.94,5.25-32.62-2.91-5.34-7.48-8.65-13.7-9.92-.72-.15-1.28-.73-1.41-1.46-.82-4.78-2.26-9.71-4.31-14.8-4.4-11.24-11.54-20.84-21.43-28.8-10.63-8.07-22.56-13.3-35.8-15.69-7.43-1.01-13.42-1.31-17.99-.88ZM367.21,239.21c-4.5,1.98-12.78,2.68-16.47-1.51-1.64-1.86-.78-4.61,1.59-5.13.33-.08.68-.05.99.07,4.43,1.67,6.84,2.1,11.09.22,4.25-1.87,5.56-3.94,7.31-8.34.12-.32.34-.59.62-.78,1.98-1.4,4.59-.18,4.86,2.29.61,5.55-5.49,11.2-9.99,13.18Z"/>
  <path class="st24" d="M325.75,240.96c-3.87-4.16-8.27-7.23-13.2-9.22-.16-.07-.3-.17-.41-.31l-1.84-2.39c-.21-.28-.26-.66-.11-.99l1.27-2.72c.08-.21.17-.42.29-.63.79-1.09,1.67-1.4,2.63-.94,2.17,1.04,4.25,2.19,6.58,2.43,3.71.37,6.59-.71,8.64-3.24-.17-3.32.61-6.4,2.32-9.25.16-.27.39-.49.67-.65,18.16-10.51,33.93-18.88,53.94-24.01.3-.08.61-.06.89.05,1.44.56,2.82,1.74,4.15,3.54.21,8.15-3.9,13.21-12.32,15.17,3.25,3.71,6.12,6.34,8.62,7.91,5.12,3.2,12.5,4.33,15.16-2.22,2.72-6.7-2.9-14.32-4.28-20.41-.07-.31-.94-3.26-2.62-8.85-3.72-12.35-11-23.14-20.58-31.11-14.62-12.17-31.58-17.73-50.89-16.67-12.61.7-23.79,3.76-33.53,9.17.1,1.82-.32,3.31-1.26,4.48-2.94,3.65-5.33,6.87-7.16,9.66-12.98,19.79-13.3,44.6,1.96,63.56,6.94,8.63,15.85,14.02,26.74,16.19.85.17,2.17.25,3.97.24.34,0,.66.14.88.39,8.27,9.39,9.65,16.26-.43,24.41l15.83,2.01c1.14-9.42.84-18.34-5.91-25.6ZM305.35,168.8c-.32-.48-.47-1.27-.44-2.37.05-2.3,2.7-3.23,4.67-2.59.32.1.6.3.81.56,1.39,1.76,2.34,2.89,2.87,3.38,4.98,4.63,12.48,4.66,17.39.01,4.91-4.66,5.27-12.15.91-17.36-.47-.56-1.54-1.58-3.23-3.05-.25-.22-.43-.51-.52-.84-.53-2,.54-4.6,2.84-4.53,1.1.03,1.88.22,2.34.57,9.63,7.15,11.79,21.69,2.6,30.41-9.19,8.72-23.61,5.8-30.24-4.19Z"/>
  <path class="st3" d="M376.89,148.46c9.89,7.96,17.03,17.56,21.43,28.8,2.49-.63,5.49-.23,8.99,1.21-5.65-16.08-15.15-28.93-28.5-38.56.13,3.04-.51,5.89-1.92,8.55Z"/>
  <path class="st25" d="M335.59,172.99c9.19-8.72,7.03-23.26-2.6-30.41-.46-.35-1.24-.54-2.34-.57-2.3-.07-3.37,2.53-2.84,4.53.09.33.27.62.52.84,1.69,1.47,2.76,2.49,3.23,3.05,4.36,5.21,4,12.7-.91,17.36-4.91,4.65-12.41,4.62-17.39-.01-.53-.49-1.48-1.62-2.87-3.38-.21-.26-.49-.46-.81-.56-1.97-.64-4.62.29-4.67,2.59-.03,1.1.12,1.89.44,2.37,6.63,9.99,21.05,12.91,30.24,4.19Z"/>
  <path class="st10" d="M490.14,161.68c2.82,0,5.3-1.43,6.77-3.6.29-.43.55-.9.75-1.39.41-.98.64-2.05.64-3.18,0-4.51-3.65-8.16-8.16-8.16-3.1,0-5.79,1.73-7.18,4.27-.25.46-.46.95-.62,1.46-.24.77-.37,1.58-.37,2.43,0,4.51,3.65,8.16,8.16,8.16Z"/>
  <path class="st12" d="M316.26,240.14c-.22-.25-.54-.4-.88-.39-1.8.01-3.12-.07-3.97-.24-10.89-2.17-19.8-7.56-26.74-16.19-15.26-18.96-14.94-43.77-1.96-63.56,1.83-2.79,4.22-6.01,7.16-9.66.94-1.17,1.36-2.66,1.26-4.48-9.91,4.19-17.83,10.65-23.74,19.36-1.33,1.95-2.63,3.92-3.92,5.93-.16.26-.5.34-.76.2l-.35-.18c-11.96,21.14-10.77,45.3,2.67,65.2,6.32,9.36,14.8,16.45,25.45,21.27,6.96,3.15,15.41,5.54,25.35,7.15,10.08-8.15,8.7-15.02.43-24.41Z"/>
  <path class="st25" d="M398.32,177.26c2.05,5.09,3.49,10.02,4.31,14.8.13.73.69,1.31,1.41,1.46,6.22,1.27,10.79,4.58,13.7,9.92,5.82,10.68,1.2,23.52-5.25,32.62-12.64,17.83-34.27,27.04-55.52,29.67-8.37,1.03-16.81,1.31-25.31.83l-15.83-2.01c-9.94-1.61-18.39-4-25.35-7.15-10.65-4.82-19.13-11.91-25.45-21.27-13.44-19.9-14.63-44.06-2.67-65.2l9.44-12.88c-3.47-.31-5.85-2.15-7.14-5.5l-7.9,10.42c-1.99,4.24-4.03,8.25-6.14,12.02-.61,1.08-1.74,4.43-3.39,10.06-1.12,3.81-1.82,7.27-2.1,10.38-1.77,19.9,3.17,39.19,16.61,54.05,8.03,9.07,17,15.32,26.92,18.77,12.1,4.2,23.77,6.77,35.02,7.7,12.23,1.01,22.32,1.12,30.25.33,12.74-1.28,24.92-4.09,37.51-10.03l26.75-19.82,1.87-1.22c5.71-10.47,8.61-21.62,8.7-33.44-.53-11.24-7.01-20.78-17.8-23.61-.58-.15-1.04-.59-1.21-1.17l-2.44-8.52c-3.5-1.44-6.5-1.84-8.99-1.21Z"/>
  <path class="st10" d="M473.55,173.36s-.03,0-.04,0c-.04,0-.08-.01-.13-.02-.04,0-.07-.02-.11-.03-.04-.02-.07-.04-.1-.06s-.06-.04-.09-.07c-.03-.03-.05-.06-.07-.09-.02-.04-.04-.07-.06-.11,0-.01-.02-.02-.02-.04-.02-.05-.02-.1-.03-.16-.27-7.14-2.26-14.56-10.99-14.68-11.11-.15-13.67,12.27-12.66,20.88.87,7.36,3.1,13.94,6.69,19.74.75,1.2,2.02,1.97,3.43,2.08,10.85.82,24.11-.05,31.87-8.68,3.38-3.75,4.45-9.89,1.68-14.37-4.19-6.79-12.39-6.54-19.22-4.41-.05.02-.11.03-.16.03Z"/>
  <path class="st10" d="M473.51,173.35s-.08-.01-.13-.02c.04.01.08.02.13.02Z"/>
  <path class="st10" d="M473.08,173.16s-.05-.06-.07-.09c.02.03.04.06.07.09Z"/>
  <path class="st10" d="M473.18,173.24s.06.04.1.06c-.04-.02-.07-.04-.1-.06Z"/>
  <path class="st10" d="M472.96,172.96c-.02-.06-.04-.12-.05-.19,0,.05.01.11.03.16,0,.01.01.02.02.04Z"/>
  <path class="st10" d="M433.43,166.99c.75-2.86-1.04-5.81-4-6.59-.55-.15-1.11-.2-1.65-.18-1.81.06-3.47,1-4.42,2.49-.28.45-.5.94-.65,1.48-.05.18-.08.36-.11.54-.08.54-.08,1.07,0,1.59.08.52.24,1.02.47,1.49.68,1.41,1.98,2.53,3.64,2.97.55.14,1.11.2,1.65.18,0,0,0,0,0,0,.36-.01.72-.06,1.06-.14.17-.04.34-.09.51-.14,1.67-.56,3.02-1.89,3.49-3.68Z"/>
  <path class="st10" d="M428.37,170.96s0,0,0,0c0,0,0,0,0,0Z"/>
  <path class="st17" d="M245.13,195.43c.28-3.11.98-6.57,2.1-10.38,1.65-5.63,2.78-8.98,3.39-10.06,2.11-3.77,4.15-7.78,6.14-12.02-3.53,2.65-6.52,5.74-8.98,9.25-14.1,20.17-19.73,45.76-18,70.05,10.48,3.01,21.13,5.41,31.96,7.21-13.44-14.86-18.38-34.15-16.61-54.05Z"/>
  <path class="st23" d="M174.43,233.08c.02.1.05.2.08.3.03.09.05.18.09.26.04.09.08.18.13.27.04.08.09.17.14.25.05.08.11.15.17.23.06.07.12.15.19.22.07.07.14.13.21.19.07.06.14.12.22.17.08.05.16.1.25.15.08.05.16.09.25.13.09.04.18.07.27.1.09.03.19.06.28.08.09.02.18.03.28.04.1.01.21.02.31.03.16,0,.32,0,.48-.02l.21-.03c1.94-.28,3.36-1.97,3.3-3.93-.31-10.43.28-20.51,1.75-30.22.94-6.16,2.84-13.56,5.7-22.2.04-.13.07-.27.09-.4.02-.1.03-.19.04-.29,0-.09,0-.18,0-.27,0-.09,0-.19-.02-.28-.01-.09-.03-.18-.05-.27-.02-.09-.04-.17-.07-.26-.03-.09-.06-.17-.1-.26-.04-.08-.08-.16-.12-.24-.04-.08-.09-.15-.14-.23-.05-.07-.11-.15-.17-.22-.06-.07-.12-.13-.18-.2-.06-.06-.13-.12-.2-.18-.07-.06-.15-.11-.23-.16-.08-.05-.15-.1-.23-.14-.09-.04-.18-.08-.27-.12-.13-.05-.25-.1-.39-.13l-.12-.02c-1.69-.4-3.42.53-4.02,2.16-6.72,18.06-8.54,35.95-8.18,55.02,0,.16.03.32.06.48Z"/>
  <path class="st23" d="M176.15,235.24c-.09-.04-.17-.08-.25-.13.08.05.16.09.25.13Z"/>
  <path class="st23" d="M188.87,178.12c0,.09,0,.18,0,.27,0-.09,0-.18,0-.27Z"/>
  <path class="st23" d="M174.86,234.16c-.05-.08-.1-.16-.14-.25.04.08.09.17.14.25Z"/>
  <path class="st23" d="M188.8,178.84c.01-.05.01-.1.02-.15-.02.13-.05.27-.09.4.03-.08.05-.17.07-.25Z"/>
  <path class="st23" d="M188.8,177.57c.02.09.04.18.05.27-.01-.09-.03-.18-.05-.27Z"/>
  <path class="st23" d="M176.7,235.42c-.1-.02-.19-.05-.28-.08.09.03.19.06.28.08Z"/>
  <path class="st23" d="M188.36,176.59c.05.07.1.15.14.23-.04-.08-.09-.15-.14-.23Z"/>
  <path class="st23" d="M175.22,234.6c-.07-.07-.13-.14-.19-.22.06.07.12.15.19.22Z"/>
  <path class="st23" d="M188.02,176.18c.06.06.13.13.18.2-.06-.07-.12-.13-.18-.2Z"/>
  <path class="st23" d="M175.65,234.97c-.08-.05-.15-.11-.22-.17.07.06.14.12.22.17Z"/>
  <path class="st23" d="M177.29,235.49c-.11,0-.21-.01-.31-.03.1.01.21.02.31.03Z"/>
  <path class="st23" d="M188.63,177.06c.04.08.07.17.1.26-.03-.09-.06-.17-.1-.26Z"/>
  <path class="st23" d="M187.58,175.83c.08.05.16.11.23.16-.07-.06-.15-.11-.23-.16Z"/>
  <path class="st23" d="M174.4,232.97s.02.07.03.11c-.03-.16-.05-.32-.06-.48,0,.12.01.25.03.37Z"/>
  <path class="st23" d="M174.59,233.65c-.03-.09-.06-.17-.09-.26.03.09.05.18.09.26Z"/>
  <path class="st23" d="M187.08,175.57c.09.04.18.08.27.12-.09-.05-.18-.08-.27-.12Z"/>
  <path class="st9" d="M521.71,191.72c-7.48,2.1-14.2,6.23-19.39,11.91-4.68,5.12-7.96,11.34-9.53,18.07l8.37,6.57c.65-7.87,3.79-14.49,9.42-19.88,15.14-14.5,38.11-11.72,50.27,4.95,4.34,5.95,6.13,13.04,5.38,21.27-2.19,11.67-8.63,20.16-19.31,25.47l.96,9.91c5.94-2.06,11.32-5.42,15.73-9.82,4.17-4.17,7.37-9.16,9.39-14.65,2.87-7.76,3.26-16.22,1.14-24.26-1.31-4.98-3.57-9.69-6.64-13.87-10.42-14.19-28.77-20.47-45.79-15.67Z"/>
  <path class="st25" d="M391.57,192.63c-1.67-1.94-3.27-2.43-4.8-1.46-.51.33-.84.85-.99,1.58-.43,2.19-1.07,4.48-2.97,5.99-3.69,2.94-7.5,3.1-11.44.49-.12-.08-.25-.14-.38-.2-.08-.04-.17-.07-.26-.09-.08-.02-.15-.05-.23-.07-.08-.02-.17-.03-.25-.04-.08,0-.16-.02-.24-.02-.08,0-.16,0-.25.01-.08,0-.16.01-.25.03-.08.01-.16.04-.24.06-.08.02-.16.04-.23.07-.08.03-.15.07-.23.1-.07.04-.15.07-.21.11-.07.04-.14.09-.2.14-.07.05-.13.1-.2.16-.06.05-.11.12-.16.18-.06.07-.12.14-.17.21-.08.11-.16.23-.22.36l-.04.1c-.76,1.55-.32,3.42,1.05,4.47,3.07,2.35,6.6,3.35,10.6,2.98,8.42-1.96,12.53-7.02,12.32-15.17Z"/>
  <path class="st25" d="M369.04,198.97c.08-.03.15-.05.23-.07-.08.02-.16.04-.23.07Z"/>
  <path class="st25" d="M368.6,199.19c.07-.04.14-.08.21-.11-.07.04-.15.07-.21.11Z"/>
  <path class="st25" d="M368.2,199.5c.06-.06.13-.11.2-.16-.07.05-.13.1-.2.16Z"/>
  <path class="st25" d="M367.87,199.89c.05-.08.11-.14.17-.21-.06.07-.12.14-.17.21Z"/>
  <path class="st25" d="M370.01,198.81c.08,0,.16.01.24.02-.08,0-.16-.02-.24-.02Z"/>
  <path class="st25" d="M369.52,198.85c.08-.01.16-.02.25-.03-.08,0-.16.01-.25.03Z"/>
  <path class="st25" d="M370.51,198.87c.08.02.15.04.23.07-.08-.02-.15-.05-.23-.07Z"/>
  <path class="st25" d="M371.08,199.06s-.06-.02-.08-.03c.13.06.26.12.38.2-.09-.06-.19-.12-.3-.17Z"/>
  <path class="st21" d="M513.08,255.32c1.81,1.62,4.63,3.22,8.48,4.81,4.28-4.33,9.29-8.59,13.22-12.45,2.43-2.37,4.87-4.73,7.33-7.08,3.97-3.8,6.51-6.05,7.63-6.74,4.94-3.08,10.44-2.83,16.49.75.75-8.23-1.04-15.32-5.38-21.27-12.16-16.67-35.13-19.45-50.27-4.95-5.63,5.39-8.77,12.01-9.42,19.88-.18,10.76,3.79,19.78,11.92,27.05ZM519.15,237.59s.08-.1.13-.14c.08-.08.17-.15.26-.22l11.42-8.72c.4-.31.63-.8.6-1.31l-1-16.95c0-.11,0-.22,0-.33,0-.07.02-.13.03-.2.01-.13.03-.25.05-.38.02-.12.05-.23.08-.34.03-.12.07-.23.12-.34.04-.11.1-.22.15-.32.05-.1.11-.21.18-.3.07-.1.13-.19.21-.29.07-.09.15-.18.23-.26.08-.08.17-.16.26-.24.09-.08.18-.15.28-.22.1-.07.2-.13.3-.19.1-.06.21-.11.32-.16.11-.05.22-.09.34-.13.11-.04.22-.07.34-.09.12-.03.25-.05.38-.06.07,0,.13-.03.2-.03.11,0,.22,0,.33,0h.33c1.85.05,3.36,1.5,3.47,3.35l1.25,21.03c.04.82-.32,1.6-.96,2.1l-13.36,10.27c-1.75,1.35-4.24,1.2-5.81-.35l-.17-.16c-.08-.08-.15-.17-.22-.26-.04-.05-.06-.11-.1-.16-.07-.11-.14-.21-.2-.32-.06-.1-.11-.21-.15-.31-.05-.11-.09-.22-.12-.34-.03-.11-.06-.23-.09-.34-.02-.11-.04-.23-.05-.34-.01-.12-.02-.23-.02-.35,0-.12,0-.23.01-.35,0-.12.02-.23.05-.34.02-.12.05-.23.08-.34.03-.11.07-.22.11-.33.04-.11.09-.22.14-.32.05-.11.11-.21.18-.31.06-.1.13-.19.2-.28.08-.1.16-.19.25-.28Z"/>
  <circle class="st23" cx="206.67" cy="212.4" r="6.23" transform="translate(-31.35 35.85) rotate(-9.22)"/>
  <path class="st13" d="M518.52,238.46c-.05.1-.1.21-.14.32-.04.11-.08.22-.11.33-.03.11-.06.23-.08.34-.02.11-.04.23-.05.34,0,.11-.01.23-.01.35,0,.12,0,.23.02.35.01.11.03.23.05.34.02.11.05.23.09.34.04.11.08.23.12.34.04.11.1.21.15.31.06.11.13.22.2.32.1.15.2.29.32.43l.17.16c1.57,1.55,4.06,1.7,5.81.35l13.36-10.27c.64-.5,1-1.28.96-2.1l-1.25-21.03c-.11-1.85-1.62-3.3-3.47-3.34h-.33c-.18-.02-.36,0-.53.03-.13.01-.25.03-.38.06-.12.03-.23.06-.34.09-.12.04-.23.08-.34.13-.11.05-.21.1-.32.16-.1.06-.2.12-.3.19-.1.07-.19.14-.28.22-.09.08-.17.15-.26.24-.08.08-.16.17-.23.26-.07.09-.14.19-.21.29-.06.1-.12.2-.18.3-.05.1-.11.21-.15.32-.05.11-.08.23-.12.34-.03.11-.06.23-.08.34-.02.12-.04.25-.05.38-.01.18-.03.35-.02.53l1,16.95c.03.51-.2,1-.6,1.31l-11.42,8.72c-.15.11-.27.24-.39.37-.09.09-.17.18-.25.28-.07.09-.14.19-.2.28-.06.1-.12.2-.18.31Z"/>
  <path class="st13" d="M534.01,206.34c-.07,0-.13.02-.2.03.18-.02.35-.04.53-.04-.11,0-.22,0-.33,0Z"/>
  <path class="st13" d="M518.21,240.84c-.02-.11-.04-.23-.05-.34.01.12.03.23.05.34Z"/>
  <path class="st13" d="M518.42,241.51c-.05-.11-.09-.22-.12-.34.04.11.08.23.12.34Z"/>
  <path class="st13" d="M519.28,237.44s-.08.1-.13.14c.12-.13.25-.26.39-.37-.09.07-.18.14-.26.22Z"/>
  <path class="st13" d="M518.77,242.15c-.07-.11-.14-.21-.2-.32.06.11.13.22.2.32Z"/>
  <path class="st13" d="M530.98,208.32c.05-.1.11-.21.18-.3-.06.1-.12.2-.18.3Z"/>
  <path class="st13" d="M530.72,208.99c.03-.12.07-.23.12-.34-.05.11-.08.23-.12.34Z"/>
  <path class="st13" d="M530.58,209.71c.01-.13.03-.26.05-.38-.02.12-.04.25-.05.38Z"/>
  <path class="st13" d="M532.44,206.82c.1-.06.21-.11.32-.16-.11.05-.21.1-.32.16Z"/>
  <path class="st13" d="M533.09,206.53c.11-.04.22-.07.34-.09-.12.03-.23.06-.34.09Z"/>
  <path class="st13" d="M531.86,207.23c.09-.08.18-.15.28-.22-.1.07-.19.14-.28.22Z"/>
  <path class="st13" d="M531.37,207.73c.07-.09.15-.18.23-.26-.08.08-.16.17-.23.26Z"/>
  <path class="st13" d="M518.9,237.87c-.07.09-.14.19-.2.28.06-.1.13-.19.2-.28Z"/>
  <path class="st13" d="M518.38,238.78c.04-.11.09-.22.14-.32-.05.11-.1.21-.14.32Z"/>
  <path class="st13" d="M518.19,239.45c.02-.12.05-.23.08-.34-.03.11-.06.23-.08.34Z"/>
  <path class="st13" d="M518.13,240.14c0-.12,0-.23.01-.35,0,.12-.01.23-.01.35Z"/>
  <path class="st7" d="M404.01,270.43c-4.8,5.97-10.16,11.25-16.08,15.84,7.02-2.31,15.61-4.42,25.76-6.33,10.62-2,19.34-9.29,27.91-18.01,2.38-11.29,1.75-22.21-1.89-32.78-2.45-4.83-5.36-9.32-8.73-13.49-.38-.47-.86-.81-1.43-1.02-.29-.1-.49-.36-.53-.67l-.26-2.2c-.09,11.82-2.99,22.97-8.7,33.44-4.04,9.37-9.39,17.77-16.05,25.22Z"/>
  <path class="st25" d="M320.96,226.19c-2.33-.24-4.41-1.39-6.58-2.43-.96-.46-1.84-.15-2.63.94l-.29.63c-1.03,2.7,1.41,4.81,3.77,5.82,8.86,3.81,19.83.49,22.68-9.33.9-3.09.22-5.28-2.04-6.59-1.48-.85-2.76-.55-3.85.91-.16.21-.25.47-.24.74.07,2.28-.65,4.3-2.18,6.07-2.05,2.53-4.93,3.61-8.64,3.24Z"/>
  <path class="st25" d="M311.46,225.33l.29-.63c-.12.21-.21.42-.29.63Z"/>
  <path class="st20" d="M521.56,260.13c-3.85-1.59-6.67-3.19-8.48-4.81-8.13-7.27-12.1-16.29-11.92-27.05l-8.37-6.57c-3.01,12.89.51,26.48,9.46,36.48,8.91,9.96,22.12,15.15,35.5,13.97,3.46-.31,6.86-1.03,10.13-2.16l-.96-9.91c-8.57,3.27-17.02,3.28-25.36.05Z"/>
  <path class="st25" d="M372.34,223.74c-.28.19-.5.46-.62.78-1.75,4.4-3.06,6.47-7.31,8.34-4.25,1.88-6.66,1.45-11.09-.22-.31-.12-.66-.15-.99-.07-2.37.52-3.23,3.27-1.59,5.13,3.69,4.19,11.97,3.49,16.47,1.51,4.5-1.98,10.6-7.63,9.99-13.18-.27-2.47-2.88-3.69-4.86-2.29Z"/>
  <path class="st13" d="M475.94,247.4c-8.05-9.61-17.64-17.35-28.75-23.23-.08-.05-.18-.06-.27-.07-.02,0-.05,0-.07,0-.09.01-.17.04-.25.09,0,0-.01,0-.02,0-.03.02-.05.05-.08.08-.02.03-.05.05-.07.08,0,0,0,.01,0,.02-.04.08-.06.17-.06.25,0,.02,0,.05,0,.07.01.09.04.18.09.26,8.04,11.91,14.32,23.3,16.49,37.79,3.42-5.9,7.75-11.02,12.98-15.36Z"/>
  <path class="st13" d="M446.44,224.37s.05-.05.07-.08c-.02.03-.05.05-.07.08Z"/>
  <path class="st13" d="M446.59,224.2s0,0,0,0c0,0,.01,0,.02,0,0,0,0,0-.01,0Z"/>
  <path class="st13" d="M446.37,224.64c0-.09.02-.18.06-.25-.04.08-.06.17-.06.25Z"/>
  <path class="st13" d="M446.85,224.11s.04,0,.07,0c-.02,0-.04,0-.07,0Z"/>
  <path class="st13" d="M446.47,224.97c-.06-.08-.08-.17-.09-.26.01.09.04.18.09.26Z"/>
  <path class="st2" d="M441.6,261.93c-2.92,16.39-12.42,31.18-24.48,42.49-.04.04-.06.09-.06.15,0,.03.01.06.02.08,0,.03.01.06.03.08.03.04.08.07.14.08l25.09,2.45c10.6-15.44,16.77-36.89,12.31-55.3-1.31-5.43-3.96-11.61-7.93-18.54-.11-.18-.27-.33-.45-.44l-6.56-3.83c3.64,10.57,4.27,21.49,1.89,32.78Z"/>
  <path class="st2" d="M549.74,233.86c-1.12.69-3.66,2.94-7.63,6.74-2.46,2.35-4.9,4.71-7.33,7.08-3.93,3.86-8.94,8.12-13.22,12.45,8.34,3.23,16.79,3.22,25.36-.05,10.68-5.31,17.12-13.8,19.31-25.47-6.05-3.58-11.55-3.83-16.49-.75Z"/>
  <path class="st20" d="M189.99,283.65c1.86.21,3.61-.24,5.24-1.37,8.87-6.1,19.41-15.99,20.75-26.43.65-5.13-.92-11.71-5.69-14.5-9.98-5.83-18.03,1.21-22.24,10.04-.03.07-.08.13-.13.18,0,0,0,0,0,0-.01.01-.03.02-.05.03-.04.03-.09.06-.14.08-.03.01-.07.01-.11.02-.03,0-.07.02-.1.01-.05,0-.1-.02-.16-.04-.02,0-.03,0-.05-.01,0,0,0,0,0,0-.07-.03-.13-.07-.18-.13-5.06-5.63-13.15-10.63-20.4-5.74-7.92,5.35-7.95,15.13-2.92,22.46,5.67,8.25,16.81,14.33,26.17,15.41Z"/>
  <path class="st20" d="M187.37,251.67s-.04,0-.05-.01c0,0,0,0,0,0,.02,0,.03,0,.05.01Z"/>
  <path class="st20" d="M187.63,251.69s-.07.02-.1.01c.04,0,.07,0,.1-.01Z"/>
  <path class="st20" d="M188.05,251.39c-.03.07-.08.13-.13.18.05-.05.1-.11.13-.18Z"/>
  <path class="st20" d="M187.73,251.67s.09-.05.14-.08c-.04.03-.09.06-.14.08Z"/>
  <path class="st19" d="M365.6,300.03c-6.41,2.91-12.91,5.32-19.5,7.23-2,.65-3.94,1.15-5.82,1.52-14.13,2.76-28.29,2.83-42.49.22-.3-.06-.5-.34-.45-.63v-.05c.06-.31.32-.53.63-.52,14.58.42,29.69-3.2,43.41-7.94,15.49-5.04,29.31-12.91,41.48-23.61,2.67-2.84,5.39-5.64,8.16-8.41.55-.55.92-1.15,1.13-1.8l-.71.21c-12.59,5.94-24.77,8.75-37.51,10.03-7.93.79-18.02.68-30.25-.33-11.25-.93-22.92-3.5-35.02-7.7-9.92-3.45-18.89-9.7-26.92-18.77-10.83-1.8-21.48-4.2-31.96-7.21.81,12.92,3.56,25.43,8.26,37.52.27.7,1.02,1.09,1.74.9,2.63-.68,6.48-1.54,11.57-2.58,5.2-1.05,9.1-1.24,11.7-.57,8.36,2.19,11.93,8.06,14.19,16.41,2.51,9.24,3.78,13.93,3.82,14.08,1.56,6.25.45,11.94-3.33,17.08-.31.41-.22,1,.19,1.31,10.83,8.2,22.49,15.35,34.95,19.77,12.36,4.38,25.96,6.3,40.8,5.75,11.97-.43,22.75-2.29,32.36-5.57.06-13.95-1.25-26.18-10.81-37.01-2.5-2.83-5.71-5.94-9.62-9.33Z"/>
  <path class="st11" d="M404.02,257.83c-3.87,2.89-7.82,5.62-11.87,8.21-.21.65-.58,1.25-1.13,1.8-2.77,2.77-5.49,5.57-8.16,8.41,2.03,3.8,6.13,4.01,10.08,3.69.32-.03.62-.16.86-.38l10.21-9.13c6.66-7.45,12.01-15.85,16.05-25.22l-1.87,1.22c-3.16,5.84-9.15,7.65-14.17,11.4Z"/>
  <path class="st6" d="M404.02,257.83c5.02-3.75,11.01-5.56,14.17-11.4l-26.75,19.82.71-.21c4.05-2.59,8-5.32,11.87-8.21Z"/>
  <path class="st15" d="M490.36,311.24c1.01-3.46,1.71-6.96,2.09-10.5,2.16-20.31-3.34-38.09-16.51-53.34-5.23,4.34-9.56,9.46-12.98,15.36,2.22,17.83-1.52,34.5-11.22,50.03,13.29-2.89,25.52-3.89,38.62-1.55Z"/>
  <path class="st8" d="M417.12,304.74s0-.01,0-.02c-.02-.02-.02-.05-.03-.08,0-.03-.02-.05-.02-.08,0,0,0-.01,0-.02,0-.05.03-.09.06-.13,12.06-11.31,21.56-26.1,24.48-42.49-8.57,8.72-17.29,16.01-27.91,18.01-10.15,1.91-18.74,4.02-25.76,6.33-7.02,5.23-14.46,9.81-22.33,13.76,3.91,3.39,7.12,6.5,9.62,9.33,9.56,10.83,10.87,23.06,10.81,37.01,22.54-7.31,42.6-19.55,56.31-39.11l-25.09-2.45s-.09-.03-.13-.06Z"/>
  <path class="st8" d="M417.06,304.57c0-.05.02-.11.06-.15-.03.04-.06.08-.06.13,0,0,0,.01,0,.02Z"/>
  <path class="st8" d="M417.11,304.73s-.02-.05-.03-.08c0,.03.01.06.03.08Z"/>
  <path class="st13" d="M392.94,279.94c-3.95.32-8.05.11-10.08-3.69-12.17,10.7-25.99,18.57-41.48,23.61.33,2.95,1.91,5.41,4.72,7.4,6.59-1.91,13.09-4.32,19.5-7.23,7.87-3.95,15.31-8.53,22.33-13.76,5.92-4.59,11.28-9.87,16.08-15.84l-10.21,9.13c-.24.22-.54.35-.86.38Z"/>
  <path class="st22" d="M540.21,289.46c.04-.18.05-.37.06-.55.01-.14.02-.27.01-.41,0-.13-.02-.26-.03-.38-.02-.13-.04-.26-.06-.39-.03-.13-.07-.25-.11-.37-.04-.12-.08-.24-.13-.35-.05-.12-.11-.23-.18-.34-.06-.11-.13-.22-.2-.32-.07-.1-.15-.2-.23-.3-.08-.1-.17-.19-.26-.28-.09-.09-.19-.17-.29-.25-.1-.08-.2-.16-.31-.23-.11-.07-.22-.13-.34-.19-.11-.06-.23-.11-.35-.16-.13-.05-.26-.09-.39-.13-.18-.05-.35-.1-.54-.13h-.11c-2.43-.34-4.7,1.27-5.18,3.68-3.53,17.8-13.21,35.75-24.7,49.38l4.92,6.81c13.59-15.6,23.98-34.76,28.42-55.09Z"/>
  <path class="st22" d="M538.14,285.1c.12.06.23.12.34.19-.11-.07-.22-.13-.34-.19Z"/>
  <path class="st22" d="M537.4,284.81c.13.04.26.08.39.13-.13-.05-.26-.09-.39-.13Z"/>
  <path class="st22" d="M540.27,289.15c.01-.08,0-.16,0-.24-.01.18-.02.37-.06.55.02-.1.04-.2.05-.31Z"/>
  <path class="st22" d="M539.77,286.67c.06.11.12.22.18.34-.05-.12-.11-.23-.18-.34Z"/>
  <path class="st22" d="M540.08,287.36c.04.12.08.24.11.37-.03-.13-.07-.25-.11-.37Z"/>
  <path class="st22" d="M540.25,288.12c.02.13.03.25.03.38,0-.13-.02-.26-.03-.38Z"/>
  <path class="st22" d="M539.34,286.05c.08.1.16.19.23.3-.07-.1-.15-.2-.23-.3Z"/>
  <path class="st22" d="M538.79,285.52c.1.08.2.16.29.25-.09-.09-.19-.17-.29-.25Z"/>
  <path class="st25" d="M250.37,361.44c7.91-4.54,8.92-11.67,11.07-19.99,1.47-5.73,3.82-11.05,7.05-15.98l-5.57-10.61-8.22,1.96c-1.88.45-3.79-.59-4.42-2.41l-.53-1.5c-.05-.14-.09-.28-.12-.42,0-.04,0-.07-.01-.11-.02-.12-.03-.23-.04-.35,0-.1-.01-.21-.01-.31,0-.11.02-.22.03-.32.01-.1.03-.21.05-.31.02-.1.06-.2.09-.3.03-.1.07-.2.11-.3.04-.1.09-.19.15-.28.05-.09.1-.18.16-.27.06-.09.13-.17.2-.25.07-.08.13-.16.21-.23.08-.07.16-.14.24-.2.09-.07.17-.14.26-.2.09-.05.18-.1.27-.15.1-.05.21-.11.32-.15.04-.01.07-.03.1-.05.14-.05.28-.09.42-.12l9.64-2c1.29-3.67,1.79-7.22.82-11.14-.87-3.55-1.75-5.83.02-9.78-3.94-1.55-7.14-.86-11.74.1-19.71,4.11-45.57,9.89-77.58,17.34-3.85.89-6.13,3.12-6.83,6.69-.42,2.17.2,5.48,1.86,9.93.94,2.5,2.77,7.76,5.49,15.78,1.45,4.28,5.61,7.31,10.49,9.51,4.78,2.15,9.1,4.67,12.95,7.58,7.45,5.61,13.74,15.5,24.78,15.93,9.93.39,19.36-1.98,28.28-7.11ZM182.77,331.07c-.33-.31-.6-.69-.79-1.12-.1-.21-.17-.44-.22-.68l-.28-1.29c-.37-1.67.51-3.33,2.02-3.99.21-.1.44-.17.68-.22l10.57-2.32c.48-.1.95-.11,1.41-.02,1.36.25,2.5,1.29,2.81,2.72l.28,1.29c.05.24.08.48.08.71.02,1.33-.72,2.54-1.88,3.16-.28.15-.58.28-.9.35l-1.9.42-8.66,1.9c-1.19.26-2.38-.11-3.2-.89ZM212.49,354.91c-6.33-6.51-13.8-11.27-22.4-14.3-.55-.2-.95-.48-1.21-.83-.59-.12-.96-.27-1.13-.46-.08-.09-.13-.19-.16-.29,0,0,0,0,0-.01-.01-.04,0-.08,0-.11,0-.06-.02-.11-.01-.17,0-.05.02-.1.04-.14.01-.05.02-.1.05-.14.03-.05.07-.09.11-.14.03-.03.04-.06.07-.09,0,0,.01,0,.01,0,.08-.07.18-.13.29-.16,5.05-1.33,9.26-2.83,12.63-4.48,7.05-3.44,4.7-8.02,3-14.24-1.3-4.75-4.36-6.42-9.17-5.01-4.49,1.31-9.64,2.6-15.45,3.85-.14.03-.29.05-.44.07-.05,0-.09,0-.14,0-.13,0-.25,0-.38,0-.11,0-.22-.01-.33-.03-.12-.02-.23-.04-.35-.07-.11-.03-.22-.06-.33-.1-.11-.04-.21-.09-.31-.13-.1-.05-.21-.1-.31-.16-.1-.06-.19-.12-.28-.19-.09-.07-.18-.13-.27-.21-.09-.08-.16-.16-.24-.24-.08-.08-.15-.17-.22-.26-.07-.09-.13-.19-.19-.29-.06-.1-.12-.2-.17-.31-.05-.1-.09-.2-.13-.31-.04-.12-.08-.23-.12-.36-.01-.04-.03-.08-.04-.13-.03-.14-.05-.29-.07-.44l-.02-.16c-.19-2.18,1.25-4.16,3.38-4.63,22.15-4.98,45.04-10.15,68.69-15.52,2.2-.5,5.37-1.07,9.52-1.71,2.3-.36,4.58.79,5.66,2.85l.1.2c.11.2.18.41.24.62,0,.01,0,.02.01.03.02.07.02.14.03.21.02.12.05.23.06.35,0,.1,0,.19,0,.29,0,.1,0,.2-.01.31-.01.1-.04.2-.06.3-.02.09-.04.19-.07.28-.03.09-.07.18-.12.27-.04.09-.08.18-.12.27-.05.08-.1.16-.16.24-.06.08-.11.17-.18.25-.07.08-.14.15-.22.22-.07.07-.13.14-.21.2-.09.07-.2.14-.3.2-.06.04-.12.09-.18.12,0,0-.02,0-.03.01-.19.1-.4.18-.62.24-.04,0-4.12.89-12.25,2.66-4.57.99-7.37,2.69-6,7.63,1.6,5.72,2.79,13.35,11.19,11.81,4.87-.89,7.99-1.45,9.35-1.68.35-.06.69.17.75.51.15.81-3.44,5.56-6.28,9.66-4.04,5.83-4.76,10.41-6.01,18.02-.32,1.97-2.77,4.39-4.56,5.52-6.95,4.39-14.62,6.55-23.01,6.48-5.03.48-7.33-2.43-10.93-6.13Z"/>
  <path class="st6" d="M262.65,295.47c.97,3.92.47,7.47-.82,11.14,3,1.19,4.77,6.64,1.09,8.25l5.57,10.61c3.04-4.18,6.59-9.39,5.46-13.99-1.23-5.04-2.57-10.05-4.01-15.04-1.31-4.52-2.78-9.26-7.27-10.75-1.77,3.95-.89,6.23-.02,9.78Z"/>
  <path class="st21" d="M190,339.02c10.12-2.31,24.1-1.41,30.51,8.31,2.63,3.99,3.6,8.56,2.91,13.71,8.39.07,16.06-2.09,23.01-6.48,1.79-1.13,4.24-3.55,4.56-5.52,1.25-7.61,1.97-12.19,6.01-18.02,2.84-4.1,6.43-8.85,6.28-9.66-.06-.34-.4-.57-.75-.51-1.36.23-4.48.79-9.35,1.68-8.4,1.54-9.59-6.09-11.19-11.81-1.37-4.94,1.43-6.64,6-7.63,8.13-1.77,12.21-2.65,12.25-2.66.22-.06.42-.14.62-.24.07-.04.14-.09.21-.13.1-.06.21-.13.3-.2.08-.06.14-.13.21-.2.07-.07.15-.14.22-.22.07-.08.12-.16.18-.25.05-.08.11-.15.16-.24.05-.09.08-.18.12-.27.04-.09.08-.18.12-.27.03-.09.05-.18.07-.28.02-.1.05-.2.06-.3.01-.1.01-.2.01-.31,0-.1.01-.19,0-.29,0-.12-.03-.23-.06-.35-.02-.08-.02-.16-.05-.24-.06-.21-.14-.42-.24-.62l-.1-.2c-1.08-2.06-3.36-3.21-5.66-2.85-4.15.64-7.32,1.21-9.52,1.71-23.65,5.37-46.54,10.54-68.69,15.52-2.13.47-3.57,2.45-3.38,4.63l.02.16c.02.2.06.38.11.57.03.12.07.24.12.36.04.11.08.21.13.31.05.11.11.21.17.31.06.1.12.19.19.29.07.09.14.17.22.26.08.08.16.17.24.24.08.08.18.14.27.21.09.07.18.13.28.19.1.06.2.11.31.16.1.05.2.1.31.13.11.04.22.07.33.1.11.03.23.06.35.07.11.02.22.02.33.03.12,0,.25.01.38,0,.19,0,.38-.02.57-.07,5.81-1.25,10.96-2.54,15.45-3.85,4.81-1.41,7.87.26,9.17,5.01,1.7,6.22,4.05,10.8-3,14.24-3.37,1.65-7.58,3.15-12.63,4.48-.11.03-.21.09-.29.16-.03.03-.06.07-.09.1-.04.04-.08.09-.11.14-.02.04-.03.09-.05.14-.01.05-.03.1-.04.14,0,.06,0,.11.01.17,0,.04,0,.09.02.13.03.11.08.21.16.29.17.19.54.34,1.13.46l.37-.35c.21-.2.47-.34.75-.41Z"/>
  <path class="st15" d="M341.38,299.86c-13.72,4.74-28.83,8.36-43.41,7.94-.31-.01-.57.21-.62.52v.05c-.06.29.14.57.44.63,14.2,2.61,28.36,2.54,42.49-.22,1.88-.37,3.82-.87,5.82-1.52-2.81-1.99-4.39-4.45-4.72-7.4Z"/>
  <path class="st18" d="M261.83,306.61l-9.64,2c-.18.04-.35.1-.52.16-.11.04-.21.1-.32.15-.09.05-.18.09-.27.15-.09.06-.18.13-.26.2-.08.07-.17.13-.24.2-.08.07-.14.15-.21.23-.07.08-.14.16-.2.25-.06.09-.11.18-.16.27-.05.09-.1.18-.15.28-.04.1-.08.2-.11.3-.03.1-.07.2-.09.3-.02.1-.04.21-.05.31-.01.11-.03.21-.03.32,0,.1,0,.2.01.31,0,.12.02.23.04.35.03.18.07.36.13.53l.53,1.5c.63,1.82,2.54,2.86,4.42,2.41l8.22-1.96c3.68-1.61,1.91-7.06-1.09-8.25Z"/>
  <path class="st18" d="M249.66,311.09c.02-.1.06-.2.09-.3-.03.1-.07.2-.09.3Z"/>
  <path class="st18" d="M249.58,311.72c0-.11.02-.22.03-.32-.01.11-.03.21-.03.32Z"/>
  <path class="st18" d="M250.17,309.95c.06-.09.13-.17.2-.25-.07.08-.14.16-.2.25Z"/>
  <path class="st18" d="M249.62,312.38c-.02-.12-.03-.23-.04-.35,0,.12.02.23.04.35Z"/>
  <path class="st18" d="M249.86,310.49c.04-.1.09-.19.15-.28-.05.09-.1.18-.15.28Z"/>
  <path class="st18" d="M251.08,309.07c.09-.05.18-.1.27-.15-.09.05-.18.09-.27.15Z"/>
  <path class="st18" d="M250.58,309.47c.08-.07.16-.14.24-.2-.08.07-.17.13-.24.2Z"/>
  <path class="st18" d="M251.77,308.73s-.07.03-.1.05c.17-.07.34-.13.52-.16-.14.03-.28.07-.42.12Z"/>
  <path class="st1" d="M301.15,360.15c.02.06.06.12.11.17.89.71,1.99,1.38,3.32,2,16.18,7.61,34.44,12.58,52.63,14.08,30.08,2.47,62.24-.73,88.8-14.38,20.2-10.38,38.53-28.29,44.35-50.78-13.1-2.34-25.33-1.34-38.62,1.55-5.83,9.65-13.07,17.92-21.72,24.8-14.27,11.35-30.17,19.2-47.68,23.55-15.3,3.8-30.44,5.23-45.42,4.28-12.63-.8-24.4-2.73-35.31-5.79-.07-.02-.14-.01-.2,0-.02,0-.03,0-.05.01-.06.02-.12.06-.16.11,0,0,0,0,0,0-.02.02-.02.04-.03.07-.01.02-.03.05-.04.07,0,0,0,0,0,0-.02.07-.01.13,0,.2,0,.02,0,.03.01.05Z"/>
  <path class="st1" d="M301.13,360.1c-.02-.06-.02-.13,0-.2-.02.07-.01.13,0,.2Z"/>
  <polygon class="st1" points="301.2 359.76 301.2 359.76 301.21 359.75 301.2 359.76"/>
  <path class="st1" d="M301.13,359.9s.02-.05.04-.07c-.01.02-.03.05-.04.07Z"/>
  <path class="st1" d="M301.37,359.64s.03-.01.05-.01c-.02,0-.03,0-.05.01Z"/>
  <path class="st1" d="M301.26,360.32c-.05-.05-.09-.11-.11-.17.02.06.06.12.11.17Z"/>
  <path class="st18" d="M185.97,331.96l8.66-1.9,1.9-.42c.33-.07.62-.2.9-.35,1.16-.62,1.9-1.83,1.88-3.16,0-.24-.03-.47-.08-.71l-.28-1.29c-.31-1.43-1.46-2.47-2.81-2.72-.45-.08-.93-.08-1.41.02l-10.57,2.32c-.24.05-.47.13-.68.22-1.5.67-2.38,2.32-2.02,3.99l.28,1.29c.05.24.13.47.22.68.19.43.46.81.79,1.12.82.78,2.01,1.16,3.2.89Z"/>
  <path class="st18" d="M197.44,329.29c1.16-.62,1.9-1.83,1.88-3.16.02,1.33-.72,2.54-1.88,3.16Z"/>
  <path class="st18" d="M183.48,323.98c-1.5.67-2.38,2.32-2.02,3.99l.28,1.29-.28-1.29c-.37-1.67.51-3.33,2.02-3.99Z"/>
  <path class="st18" d="M182.77,331.07c-.33-.31-.6-.69-.79-1.12.19.43.46.81.79,1.12Z"/>
  <path class="st18" d="M196.14,321.41c-.45-.08-.93-.08-1.41.02l-10.57,2.32,10.57-2.32c.48-.1.95-.11,1.41-.02Z"/>
  <path class="st18" d="M185.97,331.96c-1.19.26-2.38-.11-3.2-.89.82.78,2.01,1.16,3.2.89l8.66-1.9-8.66,1.9Z"/>
  <path class="st18" d="M511.79,344.55l-4.92-6.81c-15.55,18.06-34.45,31.37-56.7,39.92l22.82-2.16c14.63-8.13,27.56-18.44,38.8-30.95Z"/>
  <path class="st12" d="M223.42,361.04c.69-5.15-.28-9.72-2.91-13.71-6.41-9.72-20.39-10.62-30.51-8.31-.28.07-.54.21-.75.41l-.37.35c.26.35.66.63,1.21.83,8.6,3.03,16.07,7.79,22.4,14.3,3.6,3.7,5.9,6.61,10.93,6.13Z"/>
  <path class="st0" d="M298.51,377.38c-7.97-3.12-16.29-7.45-24.96-12.99-1.96-1.25-4.54-.8-5.96,1.02l-.13.17c-.12.15-.21.32-.3.48-.06.11-.12.23-.17.35-.05.11-.09.22-.12.33-.04.12-.07.23-.09.35-.02.12-.05.23-.06.35-.01.12-.02.23-.02.35,0,.12,0,.24,0,.36,0,.12.03.23.05.35.02.12.04.23.08.34.03.11.07.23.11.34.04.11.09.22.14.32.05.11.11.21.18.31.06.1.13.2.21.3.07.09.15.18.23.26.09.09.18.18.28.27.14.12.29.25.45.35,13.03,8.13,26.86,14.24,41.47,18.35l9.79-5.06c-8.12-2.25-15.18-4.55-21.17-6.9Z"/>
  <path class="st0" d="M267.97,370.64c-.1-.08-.19-.17-.28-.27.09.09.18.18.28.27Z"/>
  <path class="st0" d="M266.86,366.74c.04-.11.08-.22.12-.33-.05.11-.09.22-.12.33Z"/>
  <path class="st0" d="M267.08,369.5c-.05-.11-.1-.21-.14-.32.04.11.09.22.14.32Z"/>
  <path class="st0" d="M266.71,367.44c.01-.12.03-.23.06-.35-.02.12-.05.23-.06.35Z"/>
  <path class="st0" d="M266.7,368.15c0-.12-.01-.24,0-.36,0,.12,0,.24,0,.36Z"/>
  <path class="st0" d="M267.23,365.91s-.05.1-.07.15c.09-.16.18-.33.3-.48-.08.11-.16.22-.23.33Z"/>
  <path class="st0" d="M266.82,368.84c-.03-.11-.06-.23-.08-.34.02.12.04.23.08.34Z"/>
  <path class="st0" d="M267.46,370.11c-.08-.1-.14-.2-.21-.3.06.1.13.2.21.3Z"/>
  <path class="st16" d="M450.17,377.66c-16.57,6.29-33.7,10.28-51.37,11.97-4.89.47-9.63.87-14.24,1.18-3.36,4.99-8.43,7.44-15.22,7.35l33.55-.26c3.68-1.82,7.07-3,10.16-3.55,7.16-1.27,13.53-2.53,19.12-3.8,4.43-1,9.93-2.67,16.48-5.02,5.6-2.01,11.04-3.86,16.33-5.53l8.01-4.5-22.82,2.16Z"/>
  <path class="st7" d="M432.17,390.55c-5.59,1.27-11.96,2.53-19.12,3.8-3.09.55-6.48,1.73-10.16,3.55,22.72.13,44.44-.55,58.34-.76,9.46-.14,16.91-.44,22.35-.91,13.24-1.12,22.09-2.08,32.78-4.3,2.39-.49,4.48-1.36,6.26-2.61.13-.09.22-.2.31-.32.06-.08.1-.16.14-.25.04-.08.07-.16.09-.24.02-.09.03-.17.03-.26,0-.09,0-.18,0-.26-.01-.09-.04-.17-.07-.25-.03-.09-.06-.18-.11-.26-.08-.13-.16-.25-.27-.36-1.29-1.13-2.87-1.94-4.73-2.43-6.71-1.79-13.74-2.92-21.09-3.38-10.29-.65-20.94-1.08-31.93-1.31-5.29,1.67-10.73,3.52-16.33,5.53-6.55,2.35-12.05,4.02-16.48,5.02Z"/>
  <path class="st7" d="M522.88,389.09s.03-.06.05-.09c-.09.12-.18.23-.31.32.1-.07.18-.14.26-.23Z"/>
  <path class="st7" d="M523.01,387.47c.05.08.08.17.11.26-.03-.09-.06-.18-.11-.26Z"/>
  <path class="st7" d="M523.16,388.51c-.02.08-.06.16-.09.24.04-.08.07-.16.09-.24Z"/>
  <path class="st7" d="M523.19,387.98c.01.09,0,.18,0,.26,0-.09,0-.18,0-.26Z"/>
  <path class="st18" d="M384.56,390.81c-5.87.3-10.83.37-14.89.21-16.53-.66-33.2-2.91-49.99-6.74l-9.79,5.06c19.46,5.46,39.28,8.4,59.45,8.82,6.79.09,11.86-2.36,15.22-7.35Z"/>
  <path class="st25" d="M226.68,501.06c4.19-.15,6.46-2.56,6.82-7.23,0-.09.05-.16.1-.22,0,0,0-.01,0-.02,0,0,.01,0,.02-.01.02-.02.04-.03.07-.05.02-.01.04-.03.06-.03.02,0,.04-.01.07-.01.03,0,.05-.01.08,0,0,0,.01,0,.02,0,0,0,.01,0,.02,0,.08.01.16.04.22.1,4.67,4.62,10.51,7.15,17.53,7.58,16.73,1.05,31.31-10.55,33.29-27.52.48-4.14.59-7.25.34-9.33-1.27-10.38-5.71-18.29-13.34-23.72-9.58-6.82-22.99-7.73-32.67-1.49-2.09,1.35-3.66,2.71-4.69,4.09-.13.17-.3.28-.51.32-.03,0-.05,0-.08,0-.02,0-.04,0-.06-.01-.03,0-.06,0-.1-.02-.03,0-.06-.02-.08-.04-.03-.02-.05-.03-.08-.05-.02-.02-.04-.04-.06-.07-.02-.02-.04-.05-.05-.08-.02-.03-.03-.06-.03-.09,0-.02-.02-.03-.02-.06,0-.03,0-.05,0-.08.01-7.02.05-16.52.11-28.51.04-7.68-9.57-8.17-13.01-3.73-.91,1.17-1.34,4.22-1.27,9.14.23,17.25.34,42.36.32,75.32,0,3.67,3.37,5.94,6.99,5.81ZM233.05,465.86c.15-1.27.41-2.49.76-3.67.43-1.46.98-2.85,1.67-4.14.63-1.17,1.36-2.27,2.17-3.28,4.08-5.06,10.35-7.97,16.98-7.21,1.99.23,3.87.78,5.61,1.58,1.74.81,3.32,1.88,4.73,3.16.94.86,1.79,1.81,2.55,2.84.38.51.74,1.05,1.07,1.6,1.33,2.21,2.27,4.7,2.72,7.36.34,1.99.4,4.08.16,6.2-.9,7.79-5.75,14.1-12.14,16.88-1.16.51-2.37.9-3.62,1.16-1.87.39-3.83.49-5.82.26-.66-.08-1.31-.19-1.95-.33-9.57-2.17-16.11-11.79-14.89-22.41Z"/>
  <path class="st25" d="M233.8,443.45s-.05-.03-.08-.05c.02.02.05.04.08.05Z"/>
  <path class="st25" d="M233.62,493.58s.04-.03.07-.05c-.02.01-.05.03-.07.05Z"/>
  <path class="st25" d="M233.57,443.16s-.03-.08-.03-.13c0,.03,0,.05,0,.08,0,.02.02.04.02.06Z"/>
  <path class="st25" d="M233.82,493.48s-.05,0-.07.01c.02,0,.05-.01.07-.01Z"/>
  <path class="st25" d="M233.6,443.25s.03.05.05.08c-.02-.02-.04-.05-.05-.08Z"/>
  <path class="st25" d="M233.9,493.47s.02,0,.04,0c0,0-.01,0-.02,0,0,0-.01,0-.02,0Z"/>
  <path class="st25" d="M233.88,443.49s.06.01.1.02c-.03,0-.07,0-.1-.02Z"/>
  <path class="st25" d="M233.6,493.61c-.05.06-.09.13-.1.22,0-.08.05-.16.1-.22Z"/>
  <path class="st14" d="M638.64,492.09c-6.15-7.57-12.28-15.33-18.39-23.27-.38-.49-.33-1.19.12-1.62,5.81-5.61,11.35-11,16.61-16.15,3.15-3.09,3.1-8.43-1.27-10.03-3.5-1.27-5.47-.1-8.12,2.62-7.45,7.62-15.67,15.9-24.67,24.83-.06.07-.15.1-.23.09,0,0,0,0,0,0-.04,0-.07-.03-.11-.05-.04-.01-.08-.01-.11-.04,0,0,0,0,0,0-.06-.06-.1-.14-.09-.23-.04-12.09-.05-29.65-.02-52.7.01-7.23-8.85-8.03-12.02-3.43-.83,1.2-1.22,4.04-1.19,8.53.17,24.48.18,48.16.03,71.03-.04,5.55.38,9.2,6.51,9.37,3.36.09,5.55-1.32,6.56-4.23.08-.22.12-.45.12-.69l-.03-9.92c0-.94.37-1.85,1.04-2.51l6.4-6.41s.04-.04.06-.06c.04-.03.09-.05.14-.07.06-.03.11-.07.17-.09.06-.02.12-.03.18-.04.06,0,.12-.02.19-.02.06,0,.12.02.18.04.06.01.12.02.18.05.06.03.11.07.16.11.04.03.09.05.13.08.02.02.04.04.06.06,4.21,5.01,10.24,12.43,18.1,22.24,1.52,1.9,3.35,2.96,5.5,3.18,4.04.41,7.44-2.79,6.23-6.87-.27-.88-1.07-2.15-2.41-3.8Z"/>
  <path class="st14" d="M610.33,477.02c.06,0,.12-.02.19-.02-.06,0-.12.01-.19.02Z"/>
  <path class="st14" d="M602.58,468.52s-.08-.02-.11-.05c0,0,0,0,0,0,.03.03.07.03.11.04Z"/>
  <path class="st14" d="M611.04,477.19c.06.05.13.08.18.15-.02-.02-.04-.04-.06-.06-.04-.04-.09-.05-.13-.08Z"/>
  <path class="st14" d="M602.92,468.47c-.06.06-.14.1-.23.09.08,0,.17-.03.23-.09Z"/>
  <path class="st14" d="M610.14,477.05c-.06.02-.12.06-.17.09.06-.03.11-.07.17-.09Z"/>
  <path class="st14" d="M610.88,477.08c-.06-.03-.12-.04-.18-.05.06.01.12.03.18.05Z"/>
  <path class="st25" d="M119.28,452.77s-.06-.03-.08-.05c-.01-.01-.01-.03-.02-.05-.02-.03-.03-.05-.04-.08,0-.03-.01-.06,0-.09,0-.02,0-.03,0-.05.01-.03.03-.06.05-.08.64-.75,1.81-.98,2.65-1.54,4.95-3.3,7.99-7.67,9.11-13.12,2.75-13.3-4.42-23.66-17.09-26.83-3.81-.96-8.04-1.44-12.68-1.45-12.35-.03-20.91.02-25.7.13-2.61.06-4.52.93-5.75,2.62-.67.94-1.01,3.04-1.01,6.29.02,29.51.04,53.86.06,73.05,0,2.35.13,3.82.38,4.4,1.69,3.92,4.78,4.38,9.37,4.36,12.03-.05,20.06-.02,24.1.07,16.15.37,32.32-5.57,33.3-24.13.6-11.43-4.94-19.25-16.63-23.45ZM84.48,421.67l17.82-.03c8.09-.01,14.66,5.6,14.67,12.53v1.48s0,0,0,0c0,.21-.02.41-.03.61-.01.22-.01.45-.04.67-.02.21-.07.42-.11.63-.04.21-.06.42-.11.62-.05.21-.12.4-.18.61-.06.2-.11.4-.18.6-.06.18-.15.35-.22.52-.09.21-.17.43-.27.63-.08.17-.18.33-.27.49-.11.2-.22.41-.34.61-.11.17-.24.34-.36.51-.12.18-.24.36-.38.53-.13.17-.28.32-.42.48-.14.16-.27.33-.42.49-.13.14-.28.27-.42.4-.17.17-.34.34-.52.49-.15.13-.31.24-.46.36-.19.15-.38.31-.58.45-.18.12-.36.23-.55.35-.19.12-.38.26-.58.37-.17.1-.35.18-.52.27-.23.12-.45.25-.69.36-.17.08-.36.15-.54.22-.25.1-.49.22-.74.31-.21.08-.43.13-.64.2-.23.07-.46.16-.7.22-.22.06-.45.1-.67.15-.24.05-.48.12-.73.16-.22.04-.45.06-.68.09-.26.04-.51.08-.77.1-.23.02-.47.02-.71.03-.26.01-.52.04-.78.04h0l-17.82.03c-.28,0-.53-.11-.71-.3-.18-.18-.3-.44-.3-.71l-.04-24.58c0-.56.45-1.01,1.01-1.01ZM121.19,474.52h0c0,.22-.03.42-.04.63-.01.24-.01.49-.04.72-.03.21-.08.4-.11.61-.04.24-.07.48-.13.71-.06.22-.14.44-.21.66-.06.2-.12.41-.19.61-.09.23-.2.45-.3.67-.08.18-.15.37-.24.55-.12.24-.27.46-.4.69-.09.16-.17.32-.28.47-.15.23-.32.44-.49.66-.11.14-.21.3-.32.44-.16.2-.35.38-.52.57-.14.15-.27.31-.41.45-.19.19-.39.36-.59.53-.15.14-.29.28-.45.41-.21.17-.43.32-.65.48-.17.12-.33.26-.5.37-.24.17-.51.31-.76.47-.16.1-.32.2-.48.3-.23.13-.48.24-.72.36-.2.1-.4.21-.61.31-.25.11-.51.2-.77.3-.22.08-.43.18-.65.26-.28.1-.57.17-.86.26-.21.06-.42.13-.63.19-.3.08-.62.13-.93.2-.21.04-.41.1-.62.13-.33.06-.68.09-1.02.13-.2.02-.39.06-.59.07-.34.03-.69.03-1.04.04-.21,0-.41.03-.62.03,0,0,0,0,0,0l-20.47.03c-.58,0-1.05-.47-1.05-1.05l-.04-25.62c0-.58.47-1.05,1.05-1.05l20.47-.03c8.96-.01,16.23,5.9,16.24,13.21v1.24Z"/>
  <path class="st25" d="M119.17,452.68s-.03-.05-.04-.08c0,.03.02.06.04.08Z"/>
  <path class="st25" d="M119.13,452.5s.01-.1.04-.13c-.02.02-.04.05-.05.08,0,.02,0,.03,0,.05Z"/>
  <path class="st14" d="M412.93,414.31c-2.19-.11-11.65-.17-28.37-.19-16.72-.03-26.17.01-28.36.12-7.94.37-8.41,12.34.71,12.41,4.67.03,11.31.04,19.93.04.28,0,.51.23.51.51-.07,24.71-.09,46.62-.04,65.71.01,5.07,1.67,8.53,7.13,8.53,5.47.01,7.13-3.44,7.16-8.51.1-19.09.15-41,.14-65.71,0-.28.23-.51.51-.51,8.62.03,15.26.03,19.93.01,9.12-.04,8.68-12.01.75-12.41Z"/>
  <path class="st25" d="M194.16,492.72s.1-.07.16-.07c0,0,0,0,.01,0,.02,0,.04.02.06.03.02,0,.04,0,.06.02,0,0,0,.01,0,.01.04.04.07.1.07.16-.12,2.17.47,4.05,1.77,5.65,2.65,3.29,9.26,2.9,11.35-.77.65-1.13.93-3.47.86-7-.21-10.33-.19-25.6.06-45.82.06-5.13-.56-8.68-5.94-9.49-4.22-.63-7.08,1.1-8.59,5.19-.02.05-.04.09-.08.13,0,0-.01,0-.01.01-.02.03-.05.05-.08.07-.02.02-.04.04-.07.05-.03.01-.06.02-.09.03-.03,0-.06.02-.09.02-.03,0-.06,0-.08,0-.03,0-.07,0-.1-.02,0,0-.01,0-.02,0-.05-.02-.09-.04-.13-.08-13.48-10.75-33.71-7.28-44.22,5.87-5.12,6.41-7.4,15.98-6.75,24.21.89,11.16,6.16,19.79,15.81,25.9,11.41,7.21,26.87,5.93,36.03-4.1ZM166.66,486.44c-2.26-1.22-4.25-2.9-5.87-4.91-.81-1.01-1.54-2.09-2.16-3.25-.62-1.16-1.14-2.38-1.54-3.66-.2-.64-.37-1.29-.52-1.96-.43-2-.58-4.09-.42-6.25h0c.37-5.02,2.38-9.51,5.43-12.9.44-.48.89-.95,1.37-1.38,1.43-1.31,3.03-2.41,4.76-3.25,1.15-.56,2.36-1,3.61-1.32,1.25-.32,2.55-.5,3.87-.55.66-.02,1.33-.01,2,.04,1.35.1,2.65.34,3.9.71,2.5.74,4.78,1.99,6.75,3.64.49.41.96.85,1.41,1.31.05.05.09.11.14.16,1.9,1.98,3.4,4.36,4.41,7.01.58,1.54,1.01,3.16,1.23,4.84.11.8.18,1.6.2,2.42.02.7,0,1.42-.06,2.13s-.14,1.42-.26,2.12c-.24,1.39-.6,2.73-1.07,4-.24.64-.5,1.26-.8,1.86-1.46,3.02-3.59,5.6-6.15,7.54-1.03.78-2.12,1.45-3.27,2.01-1.73.84-3.58,1.42-5.52,1.69-1.29.18-2.62.23-3.96.13-2.69-.2-5.22-.97-7.47-2.19Z"/>
  <path class="st25" d="M193.44,440.92c-.05-.02-.11-.04-.15-.08.04.03.09.06.13.08,0,0,.01,0,.02,0Z"/>
  <path class="st25" d="M193.95,440.78s-.05.05-.08.07c.03-.02.06-.04.08-.07Z"/>
  <path class="st25" d="M194.39,492.67s.05.02.07.03c0,0,0-.01,0-.01-.02-.02-.04-.01-.06-.02Z"/>
  <path class="st25" d="M193.72,440.92s.06-.01.09-.03c-.03.01-.06.02-.09.03Z"/>
  <path class="st25" d="M194.16,492.72s.1-.07.16-.07c-.06,0-.12.02-.16.07Z"/>
  <path class="st25" d="M193.63,440.94s-.06,0-.08,0c.03,0,.06,0,.08,0Z"/>
  <path class="st25" d="M349.69,445.23c-.05-2.93-.38-4.85-.98-5.75-2.57-3.87-9.47-4.11-12.04-.35-.88,1.28-1.3,3.78-1.26,7.5.08,6.96.12,15.49.13,25.58.01,5.8-3.46,12.12-8.98,14.54-7.93,3.46-17.23.05-19.87-8.52-.79-2.57-1.19-4.7-1.18-6.38.06-8.65.06-18.01-.01-28.08-.03-3.84-1.71-6.13-5.04-6.87-4.03-.9-6.88.3-8.55,3.61-.25.49-.38,1.04-.38,1.6-.11,18.93-.17,28.48-.17,28.63.11,4.93.57,8.65,1.38,11.14,4.31,13.24,15.31,20.17,28.87,18.47,5.22-.65,9.71-2.83,13.46-6.52.07-.07.16-.11.26-.11,0,0,0,0,0,0,0,0,0,0,0,0,.1,0,.19.04.26.11,0,0,0,0,0,0,0,0,0,0,0,0,.07.07.11.16.11.26.02,1.66-.13,3.75-.46,6.26-1.42,10.81-12.88,16.65-22.83,13.97-2.51-.68-3.43-1.37-6.03-2.74-1.99-1.05-3.55-1.55-4.66-1.5-5.72.3-7.67,8.11-3.04,11.28,8.56,5.85,17.88,7.61,27.95,5.3,12.68-2.91,19.57-11.82,22.37-24.14.61-2.65.86-6.85.76-12.59-.26-15.3.18-31.04-.08-44.7Z"/>
  <polygon class="st25" points="335.59 493.83 335.6 493.83 335.6 493.83 335.59 493.83"/>
  <path class="st25" d="M335.33,493.72s0,0,0,0c0,0,0,0,0,0Z"/>
  <path class="st14" d="M571.87,485.21c-.35.03-2.07.81-5.17,2.33-3.01,1.48-6.53,2.09-10.56,1.82-11.14-.73-18.82-9.03-18.83-20.34,0-5.34,1.61-9.8,4.86-13.38,5.82-6.43,13.33-8.14,22.53-5.14,2.43.79,5.88,3.61,8.25,3.32,4.37-.54,6.06-4.77,4.15-8.52-.65-1.29-2.05-2.54-4.19-3.75-8.43-4.79-20.9-5.4-29.44-1.74-11.45,4.91-17.86,13.89-19.23,26.95-1.31,12.52,5.09,23.99,15.73,30.15,9.98,5.77,24.67,5.44,34.68-.06,6.1-3.35,5.16-12.42-2.78-11.64Z"/>
  <path class="st14" d="M512.62,440.04c-4.91-1.05-7.76.79-8.55,5.54,0,.02-.01.04-.02.05,0,0-.02,0-.02.01-.01.01-.03.02-.04.03-.02,0-.03,0-.05,0,0,0-.02,0-.03,0-.02,0-.04-.01-.05-.02-10.01-8.23-21.04-9.66-33.07-4.29-11.65,5.19-18.21,18.32-17.54,30.82.77,14.24,10.55,26.04,24.39,28.76,9.73,1.91,18.13-.29,25.2-6.6.07-.06.15-.09.24-.11.01,0,.02-.01.03-.01.02,0,.03,0,.05,0,.04,0,.07,0,.1,0,.03,0,.06.01.09.02.03.01.06.03.09.04.03.02.06.04.08.06.01.01.03.02.04.03,0,0,0,.02.01.03.05.07.1.15.11.24.35,3.06,2.02,4.88,5.01,5.46,2.76.53,4.94-.02,6.53-1.65.91-.93,1.35-2.69,1.31-5.28-.08-4.42-.06-20.34.06-47.76.01-3.03-1.31-4.83-3.96-5.4ZM504.48,469.86c.02,4.9-1.6,9.39-4.31,12.9-.77,1-1.64,1.93-2.58,2.76-.94.83-1.95,1.56-3.03,2.19-.54.31-1.09.6-1.66.86-1.71.77-3.55,1.29-5.47,1.51-.64.07-1.29.11-1.95.11-10.53.04-19.1-9-19.14-20.19h0c0-1.57.17-3.08.48-4.55.32-1.51.81-2.96,1.43-4.32.27-.6.57-1.18.9-1.75.51-.88,1.06-1.72,1.69-2.51.53-.67,1.11-1.3,1.73-1.89.58-.57,1.19-1.1,1.84-1.58.27-.21.56-.4.84-.59,1.06-.71,2.19-1.31,3.37-1.79,1.42-.58,2.91-.98,4.47-1.18.74-.1,1.5-.16,2.26-.16h0c1.97,0,3.88.31,5.67.89,3.59,1.17,6.72,3.44,9.07,6.43,2.73,3.49,4.38,7.98,4.4,12.87h0Z"/>
  <path class="st14" d="M503.15,494.23s.07,0,.1,0c-.03,0-.07,0-.1,0Z"/>
  <path class="st14" d="M503.51,494.37s.04.04.05.06c0,0,0-.02-.01-.03-.01-.01-.03-.02-.04-.03Z"/>
  <path class="st14" d="M503.93,445.68s-.05,0-.08-.02c.02.01.03.02.05.02,0,0,.02,0,.03,0Z"/>
  <path class="st14" d="M503.07,494.24c-.09.02-.17.05-.24.11.07-.06.15-.09.24-.11Z"/>
  <path class="st14" d="M504.02,445.64s-.03.02-.04.03c.02,0,.03-.01.04-.03Z"/>
  <path class="st14" d="M503.43,494.31s-.06-.03-.09-.04c.03.01.06.03.09.04Z"/>
  <path class="st14" d="M439.87,450.27c2.42-.77,6.37-.36,9.15-.4.31,0,.61-.07.89-.19,2.25-.91,3.29-2.65,3.11-5.23-.32-4.57-4.13-6.06-8.16-6.1-6.34-.06-11.59,2.65-15.74,8.14-.03.04-.07.07-.11.1,0,0-.02,0-.02,0-.04.02-.07.03-.11.04,0,0,0,0,0,0-.02,0-.04,0-.05,0-.03,0-.06,0-.09,0-.03,0-.05-.02-.08-.04-.02,0-.03-.01-.05-.02,0,0,0,0,0,0-.03-.03-.06-.06-.08-.1,0,0-.01,0-.01-.02-.02-.04-.04-.09-.05-.14-.41-4.17-2.39-6.47-5.92-6.9-3.71-.46-7.01,1.95-7.05,5.63-.11,9.87-.05,26.44.17,49.69.03,2.78,1.33,4.56,3.9,5.35,2.38.72,6.32.56,7.98-1.83.83-1.2,1.25-2.11,1.25-2.73-.06-6.43,0-16.18.18-29.23.1-7.21,3.67-13.75,10.91-16.01Z"/>
  <path class="st14" d="M428.73,446.62s.06,0,.09,0c-.03,0-.06,0-.09,0Z"/>
  <path class="st14" d="M428.5,446.44s0,.01.01.02c0,0-.01,0-.01-.02Z"/>
  <path class="st14" d="M428.65,446.58s-.04-.01-.05-.03c0,0,0,0,0,0,.01.01.03.01.05.02Z"/>
  <path class="st14" d="M428.99,446.6s-.07.03-.11.04c.04,0,.08-.02.11-.04Z"/>
  <path class="st14" d="M429.01,446.59s.08-.06.11-.1c-.03.04-.07.07-.11.1Z"/>
  <path class="st23" d="M390.32,530.69c-1.79,1.94-2.77,2.99-2.95,3.16-.03.02-.06.05-.09.06-.01,0-.02,0-.04.01-.03.01-.06.02-.09.03-.03,0-.06.01-.09.01-.03,0-.06,0-.09,0s-.06-.01-.09-.02c-.03-.01-.05-.02-.08-.04-.03-.02-.05-.03-.07-.06,0,0-.02-.01-.03-.02-.02-.03-.04-.06-.06-.09-3.11-5.61-7.84-11.33-14.94-10.53-7.86.88-11.67,8.85-9.59,16.14,2.53,8.9,12.49,18.38,19.79,23.89.23.17.49.3.77.38,1.56.42,2.66.48,3.31.17,7.63-3.59,14.36-8.76,20.21-15.53,3.9-4.51,7.83-11.32,4.89-17.38-4.37-8.99-15.16-6.29-20.77-.18Z"/>
  <path class="st23" d="M387.07,533.96s-.06,0-.09,0c.03,0,.06,0,.09,0Z"/>
  <path class="st23" d="M387.15,533.95s.06-.01.09-.03c-.03.01-.06.02-.09.03Z"/>
  <path class="st23" d="M386.82,533.9s.05.03.08.04c-.03-.01-.05-.02-.08-.04Z"/>
  <path class="st23" d="M386.74,533.84s-.07-.07-.09-.11c.02.03.04.06.06.09,0,0,.02.01.03.02Z"/>
  <path class="st9" d="M339.62,549.96c-10.02-.72-16.5-1.29-19.43-1.72-17.61-2.56-29.69-4.58-36.22-6.06-33.87-7.69-68.63-10.63-104.3-8.82-5.03.25-8.27.53-9.74.83-1.94.38-3.26,2.2-3.02,4.16l.02.19c.24,1.96,1.95,3.4,3.92,3.31,21.77-.95,40.04-1.02,54.83-.23,1.5.08,9.5.78,24,2.1,18.43,1.68,37.49,5.12,55.3,7.45,11.04,1.45,22.53,2.08,34.48,1.88.82-.01,1.48-.66,1.53-1.48v-.05c.05-.81-.56-1.51-1.37-1.56Z"/>
  <path class="st23" d="M560.23,540.51s.05-.1.07-.15c.02-.05.04-.1.05-.16.01-.05.03-.1.04-.16.01-.06.02-.11.02-.17,0-.08.01-.17,0-.26v-.18c-.1-1.14-.99-2.05-2.13-2.16-37.62-3.57-75.08-3.44-112.39.37-5.58.57-9.71,1.17-12.38,1.8-1.61.38-2.62,1.96-2.3,3.58l.02.11c.33,1.66,1.89,2.77,3.57,2.56,21.1-2.68,39.14-4.27,54.11-4.76,19.69-.65,42.95-.49,69.77.48.09,0,.17,0,.25-.02.06,0,.12-.02.17-.03.05-.01.1-.03.15-.04.05-.02.1-.04.16-.06.05-.02.1-.05.15-.07.05-.03.09-.06.13-.09.04-.03.09-.06.13-.1.04-.04.08-.07.12-.11.04-.04.07-.08.11-.12.03-.04.06-.09.09-.13.03-.04.06-.09.08-.14Z"/>
  <path class="st23" d="M558.87,541.42s.05-.01.08-.01c-.08.01-.17.02-.25.02.06,0,.12,0,.18,0Z"/>
  <path class="st23" d="M559.57,541.2s-.1.05-.15.07c.05-.02.1-.05.15-.07Z"/>
  <path class="st23" d="M559.27,541.33c-.05.02-.1.03-.15.04.05-.01.1-.03.15-.04Z"/>
  <path class="st23" d="M559.84,541.01s-.08.07-.13.1c.04-.03.09-.06.13-.1Z"/>
  <path class="st23" d="M560.06,540.78s-.07.08-.11.12c.04-.04.07-.08.11-.12Z"/>
  <path class="st23" d="M560.35,540.2c-.02.05-.03.11-.05.16.02-.05.04-.1.05-.16Z"/>
  <path class="st23" d="M560.41,539.87c0,.06-.01.12-.02.17.01-.06.02-.11.02-.17Z"/>
  <path class="st23" d="M560.23,540.51s-.05.09-.08.14c.03-.05.06-.09.08-.14Z"/>
</svg>